<?xml version="1.0" standalone="no"?>
<!DOCTYPE svg PUBLIC "-//W3C//DTD SVG 20010904//EN"
 "http://www.w3.org/TR/2001/REC-SVG-20010904/DTD/svg10.dtd">
<svg version="1.0" xmlns="http://www.w3.org/2000/svg"
 width="414.000000pt" height="414.000000pt" viewBox="0 0 414.000000 414.000000"
 preserveAspectRatio="xMidYMid meet">
<metadata>
Created by potrace 1.11, written by Peter Selinger 2001-2013
</metadata>
<g transform="translate(0.000000,414.000000) scale(0.100000,-0.100000)"
fill="#000000" stroke="none">
<path d="M1415 3465 c-357 -360 -651 -656 -653 -659 -3 -4 -4 -218 -3 -715 l1
-223 187 -189 187 -189 938 0 938 0 0 -370 0 -369 -935 0 -935 0 0 185 0 184
-190 0 -190 0 0 -188 0 -187 188 -188 187 -187 940 0 940 0 188 188 187 187 0
376 0 375 -79 79 c-44 44 -77 84 -74 89 4 5 2 6 -4 3 -11 -7 -86 66 -78 76 3
4 2 5 -2 2 -10 -8 -92 78 -86 90 4 5 2 7 -2 2 -5 -4 -19 2 -31 14 -22 21 -23
21 -958 20 l-936 0 0 383 0 383 365 367 c221 222 370 364 377 360 7 -4 8 -3 4
4 -4 7 32 50 89 106 l95 95 160 -160 c94 -93 158 -164 154 -171 -4 -6 -3 -8 4
-4 14 9 245 -222 236 -236 -4 -7 -3 -8 4 -4 7 4 88 -71 197 -180 l185 -187 0
-194 0 -193 190 0 190 0 0 279 0 279 -659 661 c-363 364 -661 661 -663 660 -2
0 -295 -295 -653 -654z"/>
<path d="M1195 3950 c-3 -5 -22 -10 -41 -10 -29 0 -34 -4 -34 -22 -1 -56 -1
-438 -1 -487 l1 -54 29 29 c15 16 101 101 190 188 l161 160 0 93 0 93 -42 1
c-24 0 -92 0 -151 0 -66 0 -105 4 -102 9 4 6 4 10 1 10 -3 0 -8 -4 -11 -10z"/>
<path d="M2440 2937 c-25 -5 -50 -9 -57 -9 -7 -1 -11 -4 -11 -7 1 -3 -6 -22
-14 -41 -29 -64 7 -136 72 -145 3 0 11 -4 18 -8 7 -5 12 -3 12 4 0 7 3 9 6 6
12 -11 63 26 77 56 16 31 6 109 -15 116 -6 2 -18 11 -27 20 -13 13 -25 15 -61
8z"/>
<path d="M1600 2918 c-32 -30 -42 -64 -30 -108 11 -39 51 -77 80 -75 8 0 18
-4 22 -10 5 -6 8 -6 8 3 0 6 8 12 18 12 62 2 95 109 49 164 -20 25 -32 30 -75
32 -38 2 -55 -2 -72 -18z"/>
<path d="M1549 2703 c-15 -4 -89 -124 -89 -145 0 -6 -9 -23 -21 -39 -11 -16
-23 -45 -26 -64 -5 -30 -2 -36 18 -44 20 -8 28 -5 47 17 12 15 33 51 47 80 13
28 27 52 30 52 4 0 6 -17 4 -37 -1 -21 2 -46 6 -55 4 -10 4 -41 1 -70 -3 -29
-8 -73 -10 -98 -13 -118 -18 -166 -21 -181 -5 -25 23 -59 49 -59 25 0 53 26
54 50 0 8 3 35 6 60 4 25 9 70 12 100 6 64 14 78 15 29 0 -19 2 -43 4 -54 3
-11 7 -42 10 -70 9 -78 10 -82 24 -99 29 -35 92 -6 85 39 -1 11 -6 51 -9 90
-4 38 -10 88 -14 110 -6 34 -7 113 -2 218 2 44 15 27 66 -83 8 -19 37 -51 63
-70 90 -67 86 -57 63 -140 -17 -59 -18 -71 -6 -66 18 7 33 -21 30 -54 -3 -32
11 -60 30 -60 14 0 18 11 18 53 0 9 4 17 9 17 6 0 8 -6 5 -12 -7 -20 11 -58
28 -58 8 0 16 3 16 8 2 11 7 64 8 90 1 13 6 20 11 17 20 -12 28 5 19 40 -5 19
-13 50 -18 68 -8 32 -6 36 41 73 41 33 82 72 133 128 6 6 20 24 33 40 26 34
26 36 6 -56 -21 -101 -21 -101 -29 -120 -8 -19 -6 -20 39 -22 32 -2 46 -23 25
-37 -8 -5 -9 -9 -3 -9 6 0 9 -31 7 -87 -4 -113 1 -133 32 -133 30 0 37 11 40
68 4 59 14 134 19 139 2 2 4 -15 4 -39 0 -24 4 -69 7 -100 7 -60 23 -76 59
-62 16 6 17 21 14 133 l-3 125 34 3 c19 2 35 4 36 6 2 1 -6 38 -16 82 -10 44
-21 91 -24 105 -4 19 9 10 58 -44 52 -57 66 -68 85 -62 13 5 22 15 22 28 0 19
-45 86 -105 156 -11 13 -20 27 -20 30 0 4 -17 23 -37 43 -29 28 -44 35 -65 32
-58 -8 -83 -9 -83 -3 0 3 -9 6 -20 6 -11 0 -20 -4 -20 -9 0 -4 -4 -5 -10 -2
-10 6 -70 -46 -70 -62 0 -15 -36 -44 -44 -36 -4 4 -5 1 -1 -7 3 -9 -7 -28 -22
-46 -42 -45 -63 -81 -63 -105 0 -16 -5 -20 -20 -16 -11 3 -18 1 -15 -3 9 -15
-28 -27 -92 -29 -42 -2 -63 1 -63 9 0 6 -4 8 -10 5 -13 -8 -46 16 -46 35 0 8
-28 70 -61 137 -34 67 -58 125 -55 129 4 5 0 4 -8 -2 -8 -5 -28 -8 -45 -7 -39
4 -45 4 -75 0 -14 -2 -31 1 -37 6 -8 6 -13 6 -13 0 0 -10 -39 -10 -57 -1 -4 3
-15 3 -24 1z"/>
<path d="M2000 2510 c-11 -11 -20 -28 -20 -38 0 -23 40 -62 63 -62 23 0 57 36
57 60 0 11 -9 29 -20 40 -11 11 -29 20 -40 20 -11 0 -29 -9 -40 -20z"/>
<path d="M788 179 c-11 -6 -18 -22 -18 -39 0 -24 7 -33 40 -50 44 -22 48 -31
24 -51 -13 -10 -19 -10 -36 0 -29 18 -37 3 -10 -19 35 -29 82 -6 82 40 0 22
-8 30 -40 45 -42 19 -49 35 -25 55 12 10 18 10 30 0 22 -19 41 -7 21 13 -20
19 -43 21 -68 6z"/>
<path d="M1092 100 c1 -69 5 -90 15 -90 9 0 14 9 13 23 -5 50 -1 57 31 57 17
0 28 4 24 10 -3 6 -18 10 -33 10 -22 0 -27 5 -27 25 0 14 5 26 10 27 11 1 42
5 63 7 7 0 10 6 7 11 -3 6 -29 10 -56 10 l-49 0 2 -90z"/>
<path d="M1223 100 c1 -84 2 -90 21 -91 12 0 33 -2 49 -3 25 -2 31 3 25 21 -2
4 -18 6 -35 4 -31 -2 -33 0 -33 28 0 28 3 31 31 31 17 0 28 4 24 10 -3 6 -17
10 -30 10 -25 0 -34 15 -27 42 3 13 11 17 29 14 13 -3 31 -2 39 1 27 10 2 23
-45 23 l-49 0 1 -90z"/>
<path d="M1363 100 c0 -69 3 -90 13 -90 10 0 14 13 14 40 l0 41 41 -3 41 -2
-4 -38 c-3 -30 0 -38 11 -36 15 3 15 6 12 139 -1 28 -5 39 -13 37 -8 -3 -12
-19 -10 -41 l4 -37 -41 0 c-43 0 -45 3 -41 53 1 18 -3 27 -13 27 -11 0 -14
-19 -14 -90z"/>
<path d="M1530 101 l0 -89 33 -3 c43 -5 77 0 77 12 0 5 -17 9 -38 9 -47 0 -51
3 -44 36 3 15 11 24 21 23 30 -3 42 1 36 11 -3 6 -19 10 -34 10 -23 0 -28 4
-27 23 1 28 13 36 48 32 19 -2 28 1 28 11 0 10 -13 14 -50 14 l-50 0 0 -89z"/>
<path d="M1711 138 c-11 -29 -28 -66 -36 -81 -8 -16 -15 -33 -15 -38 0 -15 27
-10 34 6 7 19 76 17 83 -2 3 -7 11 -13 19 -13 10 0 8 11 -8 48 -11 26 -28 67
-38 90 l-17 44 -22 -54z m38 -49 c6 -18 11 -32 11 -33 0 -1 -11 -1 -25 -1 -26
0 -29 6 -19 43 9 31 20 28 33 -9z"/>
<path d="M1790 182 c0 -9 64 -160 71 -166 2 -2 21 36 41 85 24 58 32 89 24 89
-7 0 -24 -28 -38 -62 l-25 -62 -28 62 c-24 54 -45 79 -45 54z"/>
<path d="M1971 101 c-2 -99 -2 -100 69 -91 41 5 43 6 24 17 -12 7 -24 10 -27
7 -13 -14 -44 7 -42 29 2 17 8 22 29 20 17 -1 26 3 26 13 0 9 -10 14 -28 14
-26 0 -28 3 -24 28 3 26 7 28 41 27 25 -1 38 3 38 12 0 9 -16 13 -52 13 l-53
0 -1 -89z"/>
<path d="M2112 101 c0 -76 2 -91 15 -91 13 0 15 9 11 50 -3 28 -2 53 2 55 4 3
27 -17 51 -43 24 -26 49 -51 54 -54 7 -4 11 22 10 79 0 59 -4 88 -13 91 -9 3
-12 -14 -12 -59 l0 -63 -58 63 -59 63 -1 -91z"/>
<path d="M2403 100 c0 -69 4 -90 14 -90 10 0 13 11 10 42 -4 40 -4 41 12 22 9
-11 23 -31 32 -44 8 -12 21 -21 28 -19 8 3 3 17 -17 44 -31 43 -31 44 11 107
16 24 16 28 3 28 -8 0 -26 -19 -40 -42 l-26 -43 -1 35 c-1 19 -1 38 0 43 0 4
-5 7 -13 7 -11 0 -14 -20 -13 -90z"/>
<path d="M2547 183 c-3 -5 -5 -47 -5 -93 l1 -85 49 0 c29 0 50 5 53 13 3 8 -7
12 -34 12 -45 0 -50 3 -43 35 3 20 10 25 34 25 17 0 27 4 23 10 -3 6 -17 10
-30 10 -25 0 -36 16 -26 40 4 9 19 15 39 16 17 0 33 4 35 9 3 12 -89 19 -96 8z"/>
<path d="M2683 100 c0 -98 -4 -93 65 -92 19 0 36 3 40 6 11 11 -8 19 -43 18
-32 -1 -35 1 -35 28 0 27 3 30 31 30 17 0 28 4 24 10 -3 6 -17 10 -31 10 -20
0 -24 5 -24 29 0 28 2 30 35 27 25 -3 35 0 35 10 0 10 -14 14 -48 14 l-48 0
-1 -90z"/>
<path d="M2811 100 c1 -71 5 -90 16 -90 8 0 13 8 12 17 -3 36 2 43 29 43 57 0
84 52 50 95 -16 20 -28 25 -64 25 l-45 0 2 -90z m92 43 c13 -30 -7 -55 -42
-51 -21 2 -25 8 -26 33 0 17 4 33 9 37 19 13 49 3 59 -19z"/>
<path d="M2971 100 l1 -90 56 0 c50 1 55 2 39 14 -9 7 -28 11 -42 8 -14 -2
-25 0 -26 4 0 5 -2 19 -3 31 -1 12 0 22 3 21 3 0 19 0 34 1 34 1 27 21 -8 21
-26 0 -41 26 -25 45 6 8 24 12 41 10 20 -3 29 0 29 10 0 11 -13 15 -50 15
l-50 0 1 -90z"/>
<path d="M3102 100 c1 -69 4 -90 14 -90 8 0 13 3 13 8 -4 25 3 52 14 52 6 0
22 -16 35 -36 29 -44 51 -35 23 10 -20 31 -20 32 -1 44 28 17 26 66 -2 86 -12
9 -39 16 -59 16 l-37 0 0 -90z m88 50 c11 -17 0 -50 -16 -51 -8 -1 -20 -2 -26
-3 -15 -2 -26 31 -20 56 4 19 50 18 62 -2z"/>
<path d="M3278 178 c-16 -13 -22 -29 -19 -55 0 -7 19 -22 41 -33 22 -11 40
-27 40 -34 0 -19 -28 -28 -49 -16 -10 5 -21 6 -25 3 -22 -22 31 -46 65 -29 47
23 30 86 -27 100 -13 4 -24 13 -24 21 0 20 34 37 48 23 5 -5 16 -8 22 -6 9 3
8 9 -4 21 -21 20 -46 22 -68 5z"/>
<path d="M942 97 c-36 -91 -40 -112 -14 -81 21 25 90 31 98 9 4 -8 12 -15 20
-15 16 0 18 11 6 26 -5 5 -22 39 -37 77 -15 37 -31 67 -34 67 -3 0 -21 -37
-39 -83z m60 -14 c14 -17 1 -32 -22 -26 -23 6 -24 13 -8 49 11 24 13 25 17 8
2 -10 8 -24 13 -31z"/>
<path d="M2313 92 c-18 -2 -33 -7 -33 -11 0 -8 77 -8 85 1 9 9 -17 14 -52 10z"/>
</g>
</svg>
