<?xml version="1.0" encoding="utf-8"?>
<!-- Generator: Adobe Illustrator 22.0.1, SVG Export Plug-In . SVG Version: 6.00 Build 0)  -->
<svg version="1.1" xmlns="http://www.w3.org/2000/svg" xmlns:xlink="http://www.w3.org/1999/xlink" x="0px" y="0px"
	 viewBox="0 0 649.6 669.9" style="enable-background:new 0 0 649.6 669.9;" xml:space="preserve">
<style type="text/css">
	.st0{display:none;}
	.st1{display:inline;}
	.st2{fill:#FFFFFF;}
	.st3{fill:#444444;}
	.st4{fill:#662D91;}
	.st5{fill:#6B448E;}
</style>
<g id="Bg" class="st0">
	<g class="st1">
		<g>
			<rect x="-297.2" y="-225.9" class="st2" width="1122" height="1122"/>
		</g>
	</g>
</g>
<g id="Object">
	<g>
		<path class="st3" d="M429.9,200.2l-40.4,40.4l-60.1,60.1l-41.7,41.7L235.1,395l-41.7,41.7l-9,9l9.6,9.6l356-356h0l-9.6-9.6
			l-37.7,37.7V23.2c0-3.7-1.5-7.2-4.1-9.8c-2.6-2.6-6.2-4.1-9.8-4.1H21.9c-3.7,0-7.3,1.5-9.8,4.1C9.4,16,8,19.6,8,23.2V647
			c0,3.7,1.5,7.2,4.1,9.8c2.6,2.6,6.2,4.1,9.8,4.1h381.8c3.7,0,7.2-1.5,9.8-4l42.9-42.6l0.1-0.1l42.1-42.3c2.6-2.6,4.1-6.2,4.1-9.8
			V241.1l-27.8,27.8v265.3h-88.5c-3.7,0-7.2,1.5-9.8,4.1c-2.6,2.6-4.1,6.2-4.1,9.8V633H35.8V37.1h439v118.1L429.9,200.2z M400.2,562
			h74.1l-74.1,71.5V562z"/>
		<rect x="98" y="108.9" class="st4" width="337.5" height="40.4"/>
		<polygon class="st4" points="59.8,240.5 389.6,240.5 429.9,200.2 59.8,200.2 		"/>
		<polygon class="st4" points="61.1,342.3 287.8,342.3 329.5,300.6 61.1,300.6 		"/>
		<polygon class="st4" points="449.5,342.3 449.5,300.6 443.1,300.6 401.4,342.3 		"/>
		<polygon class="st4" points="449.5,436.7 449.5,395 348.7,395 307,436.7 		"/>
		<polygon class="st4" points="61.1,436.7 193.3,436.7 235.1,395 61.1,395 		"/>
		<polygon class="st4" points="139,531.2 140.4,528.4 159.5,489.5 61.1,489.5 61.1,531.2 		"/>
		<path class="st4" d="M229.7,511.6l-39.9,19.6H353v-41.7h-98.7l-13.1,13.2l0,0v0l-9.6-9.6l-3.6-3.6h-10.6l13.7,13.7
			c1.2,1.2,1.7,2.9,1.5,4.5C232.3,509.4,231.3,510.8,229.7,511.6z"/>
		<polygon class="st2" points="474.3,562 400.2,562 400.2,633.5 		"/>
		<path class="st2" d="M429.9,200.2l44.9-44.9V37.1h-439V633h336.6v-84.9c0-3.7,1.5-7.2,4.1-9.8c2.6-2.6,6.2-4.1,9.8-4.1h88.5V268.9
			l27.8-27.8l94.5-94.5L422.7,321.1l20.5-20.4h6.4v41.7h-48.1L241.1,502.6l0,0l13.1-13.2H353v41.7H189.9l-31.3,15.4l-21.9,10.8
			c-2,1-4.4,0.6-6-1c-1.6-1.6-2-4-1-6l9.4-19.2H61.1v-41.7h98.4l15.8-32.3c0.8-1.5,2.2-2.6,3.8-2.9c1.7-0.3,3.4,0.3,4.5,1.5
			l33.7,33.7H228l3.6,3.6l356-356l-37.7-37.7l-356,356l-9.6-9.6l9-9H61.1V395h174l52.7-52.7H61.1v-41.7h268.4l60.1-60.1H59.8v-40.4
			H429.9z M98,108.9h337.5v40.4H98V108.9z M307,436.7l41.7-41.7h100.8v41.7H307z M555.2,106.5l25.2,25.2l-356,356l-25.2-25.2
			L555.2,106.5z"/>
		<polygon class="st2" points="401.4,342.3 401.4,342.3 422.7,321.1 		"/>
		
			<rect x="138.1" y="279.2" transform="matrix(0.7071 -0.7071 0.7071 0.7071 -95.9097 362.6551)" class="st5" width="503.5" height="35.7"/>
		<polygon class="st3" points="241.1,502.6 241.1,502.6 597.2,146.6 587.6,137 231.6,493.1 		"/>
		<path class="st4" d="M183.7,455.8c-1.2-1.2-2.9-1.7-4.5-1.5c-1.7,0.3-3.1,1.3-3.8,2.9l-15.8,32.3l-19.1,39l18.2,18.1l31.3-15.4
			l39.9-19.6c1.5-0.8,2.6-2.2,2.9-3.8c0.3-1.7-0.3-3.3-1.5-4.5l-13.7-13.7L183.7,455.8z"/>
		<path class="st3" d="M129.6,550.4c-1,2-0.6,4.4,1,6c1.6,1.6,4,2,6,1l21.9-10.8l-18.2-18.1l-1.4,2.7L129.6,550.4z"/>
		<path class="st3" d="M575,55.1l-6.6,6.6l-11.1,11.1l-11.9,11.9l56.8,56.8l11.9-11.9l11.1-11.1l6.6-6.6c15.7-15.7,15.7-41.1,0-56.8
			C616.1,39.4,590.7,39.4,575,55.1z"/>
	</g>
</g>
</svg>
