<?xml version="1.0" encoding="utf-8"?>
<!-- Generator: Adobe Illustrator 22.0.1, SVG Export Plug-In . SVG Version: 6.00 Build 0)  -->
<svg version="1.1" xmlns="http://www.w3.org/2000/svg" xmlns:xlink="http://www.w3.org/1999/xlink" x="0px" y="0px"
	 viewBox="0 0 5000 4663.9" style="enable-background:new 0 0 5000 4663.9;" xml:space="preserve">
<style type="text/css">
	.st0{display:none;}
	.st1{display:inline;fill:#9461C1;}
	.st2{fill:#C8C8C8;}
	.st3{fill:#EDEDED;}
	.st4{fill:#FAFAFA;}
	.st5{fill:#DC4844;}
	.st6{fill:#BF3A37;}
	.st7{fill:#EBEBEB;}
	.st8{fill:#BABABA;}
	.st9{fill:#E7E6E6;}
	.st10{fill:#875A44;}
	.st11{fill:#AD7353;}
	.st12{fill:#474784;}
	.st13{fill:#322E8E;}
	.st14{fill:#E7B26A;}
	.st15{fill:#2E79BD;}
	.st16{fill:#252A26;}
	.st17{fill:#FBF8EC;}
	.st18{fill:#282928;}
</style>
<g id="Layer_2" class="st0">
	<rect y="-336.1" class="st1" width="5000" height="5000"/>
</g>
<g id="Layer_1">
	<path class="st2" d="M4367.2,3366.1l-2614.3,447c-143.9,24.6-281.8-73-306.5-217c0,0-256-2647.1-22.6-2687.1
		c0,0,2746-272.9,2785.9-39.5l374.4,2190.1C4608.8,3203.6,4511.1,3341.5,4367.2,3366.1z"/>
	<path class="st3" d="M4219,3460l-2640.2,252.8c-145.4,13.9-275.7-93.6-289.6-239c0,0-59.9-2658.8,175.8-2681.4
		c0,0,2758.6-69.5,2781.2,166.2L4458,3170.4C4471.9,3315.8,4364.4,3446.1,4219,3460z"/>
	<path class="st3" d="M1496.6,3365.2l2387.7,347.6c145.4,13.9,275.7-93.6,289.6-239c0,0,59.9-2658.8-175.8-2681.4
		c0,0-2361.5-60.3-2384.1,175.4l-248,2018.8C1352.1,3132,1351.2,3351.3,1496.6,3365.2z"/>
	<path class="st4" d="M4140.3,3531.1H1488c-146,0-265.5-119.5-265.5-265.5V1088.8c0-236.8,193.7-430.5,430.5-430.5h2322.2
		c236.8,0,430.5,193.7,430.5,430.5v2176.8C4405.8,3411.6,4286.3,3531.1,4140.3,3531.1z"/>
	<path class="st5" d="M4405.8,1404.9H1222.5v-316.2c0-236.8,193.7-430.5,430.5-430.5h2322.2c236.8,0,430.5,193.7,430.5,430.5V1404.9
		z"/>
	<path class="st6" d="M1740.5,875.5L1740.5,875.5c-35.6,0-64.8-29.1-64.8-64.8V658.2h129.5v152.5
		C1805.3,846.3,1776.2,875.5,1740.5,875.5z"/>
	<path class="st6" d="M2506.8,875.5L2506.8,875.5c-35.6,0-64.8-29.1-64.8-64.8V658.2h129.5v152.5
		C2571.6,846.3,2542.4,875.5,2506.8,875.5z"/>
	<path class="st6" d="M3223.5,875.5L3223.5,875.5c-35.6,0-64.8-29.1-64.8-64.8V658.2h129.5v152.5
		C3288.3,846.3,3259.1,875.5,3223.5,875.5z"/>
	<path class="st6" d="M3945.3,875.5L3945.3,875.5c-35.6,0-64.8-29.1-64.8-64.8c0,0,0-141.3,0-152.5c0-10.2,129.5,1.4,129.5,1.4
		v151.1C4010,846.3,3980.9,875.5,3945.3,875.5z"/>
	<path class="st7" d="M2481.3,853.7L2481.3,853.7c-35.6,0-64.8-29.1-64.8-64.8V622c0-35.6,29.1-64.8,64.8-64.8h0
		c35.6,0,64.8,29.1,64.8,64.8v166.9C2546,824.5,2516.9,853.7,2481.3,853.7z"/>
	<path class="st7" d="M3201.6,853.7L3201.6,853.7c-35.6,0-64.8-29.1-64.8-64.8V622c0-35.6,29.1-64.8,64.8-64.8h0
		c35.6,0,64.8,29.1,64.8,64.8v166.9C3266.3,824.5,3237.2,853.7,3201.6,853.7z"/>
	<path class="st7" d="M3921.9,853.7L3921.9,853.7c-35.6,0-64.8-29.1-64.8-64.8V622c0-35.6,29.1-64.8,64.8-64.8h0
		c35.6,0,64.8,29.1,64.8,64.8v166.9C3986.6,824.5,3957.5,853.7,3921.9,853.7z"/>
	<path class="st8" d="M4137.2,2731.3l-753,791.7c0,0,28.5-139.4,28.7-227c0.1-55.6-11.2-104.2-15.1-184.1
		c-10.7-224.1,119.1-281.2,180.3-314.4c94-50.9,248.1-13.2,341-19.3C3958.5,2775.7,4108,2769.2,4137.2,2731.3z"/>
	<path class="st9" d="M4386.7,2681.5L3384.3,3523c0,0,49.8-160,59.7-262.6c6.2-65.2-2.3-123.3,1.7-217.3
		c11.4-263.8,175.5-315.8,253.7-347.7c119.9-48.9,303.3,12.8,417,16.3C4164.4,2713.1,4346.9,2722.5,4386.7,2681.5z"/>
	<rect x="1551" y="1822.7" class="st7" width="424.6" height="275.3"/>
	<rect x="1551" y="2312.7" class="st7" width="424.6" height="275.3"/>
	<rect x="2226.8" y="2312.7" class="st7" width="424.6" height="275.3"/>
	<rect x="2902.5" y="2312.7" class="st7" width="424.6" height="275.3"/>
	<rect x="3565.2" y="2312.7" class="st7" width="424.6" height="275.3"/>
	<rect x="1551" y="2802.7" class="st7" width="424.6" height="275.3"/>
	<rect x="2226.8" y="2802.7" class="st7" width="424.6" height="275.3"/>
	<rect x="2902.5" y="2802.7" class="st7" width="424.6" height="275.3"/>
	<rect x="2226.8" y="1822.7" class="st7" width="424.6" height="275.3"/>
	<rect x="2902.5" y="1822.7" class="st7" width="424.6" height="275.3"/>
	<rect x="3578.2" y="1822.7" class="st7" width="424.6" height="275.3"/>
	<path class="st7" d="M1714.8,853.7L1714.8,853.7c-35.6,0-64.8-29.1-64.8-64.8V622c0-35.6,29.1-64.8,64.8-64.8h0
		c35.6,0,64.8,29.1,64.8,64.8v166.9C1779.6,824.5,1750.5,853.7,1714.8,853.7z"/>
</g>
<g id="Layer_5">
	<g>
		<g>
			<path class="st5" d="M2430.3,2008.9c-1.6,2.1-1,6.9,3.4,6.2l3.5-8L2430.3,2008.9z"/>
			<path class="st5" d="M2457.9,2026.1c2.7-1.7,5.6-4.1,7.7-7c2-2.9,3.1-6.4,1.9-10.4c-3,3.6-4.7,4.5-6.4,5.6
				c-1.7,1.1-3.6,2.5-6.7,6.9c-4.3,0.6-7.2-3.3-6.2-6.2c-0.8,1-2.5,0.3-4.2,0.2c-1.8-0.2-3.6,0-4.9,2.5c5.2,6.5,11.9,7.5,19.7,2.9
				C2460.1,2022.6,2458.4,2024.6,2457.9,2026.1z"/>
			<path class="st5" d="M2787,2239.2l-0.6-2.7C2786.3,2237.4,2786.6,2238.3,2787,2239.2z"/>
			<path class="st5" d="M2854.4,2472.4c-0.3-1.9-1.1-2.6-1.9-2.7C2853.1,2471.5,2853.7,2472.9,2854.4,2472.4z"/>
			<path class="st5" d="M2844.6,2513.7c0.3-0.9,0.5-1.6,0.7-2.4C2844.5,2512.2,2844,2513.1,2844.6,2513.7z"/>
			<path class="st5" d="M2787,2239.2c0,0,0.4,1.7,0.8,3.4c0.3,1.7,0.7,3.5,0.7,3.5C2790.9,2245.1,2788.4,2242.2,2787,2239.2z"/>
			<path class="st5" d="M2518.1,2016.3c-1.5,0.1-2.9,0.5-4.2,1.2c1.3-0.1,2.5-0.1,3.7-0.1
				C2517.8,2017.1,2517.9,2016.8,2518.1,2016.3z"/>
			<path class="st5" d="M2711.8,2161.6l-1.5-1.3c-1.1,0.3-2.2,0.8-3.5,1.4c0,0,1.2,0,2.5,0
				C2710.6,2161.6,2711.8,2161.6,2711.8,2161.6z"/>
			<path class="st5" d="M2645.5,2112.9c1.4,1.2,5.7-4.3,7.9-6.4c-2.4,1.8-4.3,2.2-6,1.8C2646.7,2109.3,2646.1,2110.8,2645.5,2112.9z
				"/>
			<path class="st5" d="M2530,2048.4c0,0-0.6,0.1-1.3,0.1c-0.6,0.1-1.3,0.2-1.3,0.2C2528.2,2048.5,2529.2,2048.5,2530,2048.4z"/>
			<path class="st5" d="M2751.4,2205.2c-0.7,0.8-1.2,1.6-1.4,2.2C2750.7,2206.8,2751.1,2206,2751.4,2205.2z"/>
			<path class="st5" d="M2387.9,2056.6c0,0.5,0.1,0.8,0.1,1.2C2388.5,2057.1,2388.6,2056.6,2387.9,2056.6z"/>
			<path class="st5" d="M2489.7,2085.4l-1.4,0.4c-0.1,1.3-0.2,2.6-0.1,3.9L2489.7,2085.4z"/>
			<path class="st5" d="M2824.9,2585.8c0.1-0.1,0.1-0.2,0.2-0.3C2824.8,2583.4,2824.7,2584.5,2824.9,2585.8z"/>
			<path class="st5" d="M2282.9,2819.7c3.1,4-0.5,5.1-3.7,6.4c-3.2,1.3-5.9,2.8-0.9,7.7c-0.2-1.5,3.1-3.3,5.4-5.8
				C2286,2825.6,2287.2,2822.8,2282.9,2819.7z"/>
			<path class="st5" d="M2520.2,2017.7c1.2,0.2,2.4,0.4,3.6,0.8C2522.2,2017.9,2521.1,2017.7,2520.2,2017.7z"/>
			<path class="st5" d="M2278.2,2833.8L2278.2,2833.8l1,1C2278.9,2834.4,2278.6,2834.1,2278.2,2833.8z"/>
			<path class="st5" d="M2757.8,2739.7c1.2,0.5,2.3,0.5,3.4,0.5C2760.6,2739.8,2759.7,2739.6,2757.8,2739.7z"/>
			<path class="st5" d="M2826.2,2631.7l-1.9,2.7C2825.3,2633.5,2825.8,2632.6,2826.2,2631.7z"/>
			<path class="st5" d="M2720.1,2793.6c-1.7,0.7-2.7,0.3-3.9,2.4c0.4,0.1,0.7,0.2,1.1,0.2C2717.3,2795,2717.9,2794,2720.1,2793.6z"
				/>
			<path class="st5" d="M2662.7,2829.3c0.5,0.3,1.1,0.5,1.7,0.8c0.6-0.4,1.2-0.8,1.8-1.2L2662.7,2829.3z"/>
			<path class="st5" d="M2161.9,2102.1c2.2,1.3,3.9,3,5.4,4.8C2164.5,2102.6,2174.7,2097.3,2161.9,2102.1z"/>
			<path class="st5" d="M2517.3,2020.1c0.8-1.6,1.7-2.3,2.9-2.4c-0.9-0.1-1.7-0.2-2.6-0.2
				C2517.1,2018.5,2516.9,2019.4,2517.3,2020.1z"/>
			<path class="st5" d="M2752.5,2837.7c0,0-2.7,1.9-5.4,3.7c-1.4,0.9-2.7,1.9-3.8,2.5c-1.1,0.7-1.8,1.1-1.8,1.1
				C2745,2843.4,2748.9,2840.6,2752.5,2837.7z"/>
			<path class="st5" d="M1896.5,2541.5l-1.6-2.6C1895.1,2540.1,1895.5,2541,1896.5,2541.5z"/>
			<path class="st5" d="M2709.2,2867.2c-3.3-1-6.1-1.1-8.8-0.7c-0.2,0.7-0.6,1.4-0.5,2.3L2709.2,2867.2z"/>
			<path class="st5" d="M2167.3,2106.9C2167.3,2106.9,2167.3,2106.9,2167.3,2106.9C2167.3,2106.9,2167.3,2106.9,2167.3,2106.9z"/>
			<path class="st5" d="M2240.6,2069.7c-11.5,2.4-3.4,9.9-4.7,15.6c-12.8,5.6-7.7-5.1-13.4-8.6c-1,0.5-1.9,1.2-2.8,1.8
				c-0.9,0.7-1.7,1.5-2.5,2.3c-1.6,1.6-3.1,3.3-4.5,4.9c-2.9,3.2-5.5,5.9-8.6,6.6c-0.9-1.3-2.2-1.5-1.3-3.7c-1.7,2.3-4.2,4-7.1,5.4
				c-2.9,1.4-6.1,2.5-9.4,3.6c-1.6,0.6-3.3,1.2-4.9,1.8c-1.6,0.7-3.2,1.5-4.6,2.4c-2.9,1.8-5.5,4-7.3,6.9c-1-0.5-1.6-1.1-2-1.7
				c3.1,3.8,4.8,8.1,5.6,11.3c-2.4,0.9-4.1,3-5.8,4.2c-1.6,1.3-3.1,1.8-5-0.7c3-0.9,2.4-3.3,3.2-5.5c0,0-1,1.1-2.1,2.1
				c-1,1.1-2.1,2.1-2.1,2.1c-7.5-6.4,5.9-5.3,3.8-11.2c-2.3,1.5-4.5,3.4-6.8,5.3c-2.2,1.9-4.5,3.8-6.7,5.7c-2.2,1.8-4.3,3.4-6.5,4.7
				c-2.1,1.3-4.2,2.1-6.3,2.3c-2.4-3.5,1.7-6,4.8-7.9c3.1-1.8,5.3-3.2-1.2-4.7c0,0,3.2-0.4,6.5-0.8c3.2-0.4,6.5-0.7,6.5-0.7
				c-13.7-9,7.6-1.8-5.7-12c-8.4,1.9-12.4,4.6-16.4,7.4c-4,2.8-7.9,5.6-16.1,7.9c-1.5,5.8,4,5.8,2.5,11.6c-4.5,4.3-8.2,5.9-11.6,6
				c-1.7,0-3.3-0.3-4.9-0.8c-1.5-0.5-3-1.1-4.4-1.8c-5.7-2.6-10.7-5.2-15.8,3.9c-0.7,3.5-0.1,7.8-1,11.4c-0.9,3.6-3.3,6.3-10,7.1
				c0,0-0.3-2.6-0.6-5.2c-0.3-2.6-0.6-5.2-0.6-5.2c-7.3,3.8-7.5,7.9-8.1,11.5c-0.3,1.8-0.7,3.5-2.1,4.9c-0.7,0.7-1.7,1.4-3,2
				c-1.3,0.6-3,1.2-5.2,1.7c0.2-2.4,2.4-4.8,4.3-6.5c1.9-1.7,3.4-2.8,2-2.6c-6.7-0.2-7.6,2.1-7.7,4.9c-0.1,2.8,0.6,6.2-2.9,8.5
				l-6.2-5.9c-3.4,2.8-6.7,5.8-9.9,9.2c-1.6,1.7-3.2,3.3-4.8,5.1c-1.6,1.8-3.1,3.6-4.7,5.4c-1.6,1.8-3.1,3.6-4.7,5.5
				c-1.6,1.8-3.1,3.7-4.7,5.5c-3.1,3.7-6.3,7.3-9.6,10.8c-0.9-2.6-0.1-6.8-5.2-5.6c-7.7,9.8-17.2,18.7-27.1,27.4
				c-9.9,8.7-20.1,17.2-29.4,25.6c0,0,0.1,2.9,0.2,5.9c0,1.4,0.1,2.9,0.2,4c0.1,1.1,0.1,1.8,0.1,1.8c-1.3,1.7-5,1.4-4.8-1.3
				c-7.6,6.3,3.5,3,3.3,8.3c-2.5,4.7-7.3,3.6-7.3-0.4c-2.1,8.6-5.2,20.4-9.3,31.5c-4.2,11.1-8.9,21.8-15.8,28.4c0,0-0.2-1-0.4-2
				c-0.2-1-0.3-2-0.3-2c-2,2.9-2.4,5.6-2.1,8.2c0.3,2.5,1.2,4.9,2.1,7.2c0.4,1.1,0.9,2.2,1.2,3.3c0.3,1.1,0.6,2.2,0.6,3.3
				c0,2.2-0.9,4.4-3.4,6.9l-0.5-2.6c-3.1,6.6-5,13.9-6.9,21.1c-1.5,7.3-3,14.6-4.1,21.7c-0.3,1.8-0.6,3.5-0.9,5.3
				c-0.2,0.9-0.3,1.7-0.5,2.6c-0.1,0.9-0.3,1.7-0.4,2.6c-0.6,3.4-1.3,6.8-2.1,10c-0.4,1.6-0.9,3.2-1.3,4.8c-0.4,1.6-0.9,3.1-1.4,4.6
				c-1,3-2.4,5.9-3.8,8.7c2.6,1.2,3.5,3.5,3.8,6.5c0.1,1.5,0,3.1-0.1,4.8c-0.1,0.8-0.2,1.7-0.3,2.6c-0.1,0.9-0.1,1.7-0.2,2.6
				c-0.5,6.9-0.5,13.6,6.9,14.1c-1.5,4.2-2.8,7.1-4,9.4c-1.2,2.3-2.2,4.1-3.1,6.1c-0.9,2-1.6,4.2-2.3,7.5c-0.3,1.6-0.7,3.5-1,5.7
				c-0.3,2.2-0.4,4.8-0.6,7.8c0.2,3.2,2.8,5.2,5.7,7.2c3,2.1,6.3,4.2,7.7,7.8l-7.4,1.7c0,0,2.5,2.2,4.9,4.4c1.2,1.1,2.5,2.1,3.5,2.9
				c1,0.8,1.6,1.3,1.6,1.3s-1.9,1.9-3.8,3.7c-1.9,1.9-3.8,3.8-3.8,3.8s0.9,1.7,1.8,3.3c0.9,1.7,1.8,3.3,1.8,3.3
				c-0.4-2.9,1.9-6.8,4-6.9c0.7,1.3,1.3,2.6,1.8,4.1c0.5,1.4,0.8,2.9,1,4.5c0.4,3.1,0.4,6.3,0.1,9.2c-0.6,5.9-2.3,10.8-4.1,11.5
				c0,0,0.9,1.5,2.2,3.7c1.3,2.2,3.3,5.1,5.1,8c1.9,2.9,3.8,5.7,5.2,7.9c1.5,2.1,2.5,3.5,2.5,3.5c-3.1,0.6-5.8-3.2-8.7-5.9
				c1.5,1.4,2.5,2.4,3.2,3.3c0.7,0.9,1,1.6,1.1,2.1c0.2,1.1-0.7,1.8-1.6,2.4c-1.8,1.2-3.6,2.4,2.1,7.2c0.9-2.3,4.5-0.8,6.1-1.2
				c-0.5,2-0.4,4.3,0,6.8c0.4,2.5,1.2,5.2,2.3,8c1,2.8,2.4,5.5,3.9,8.2c1.5,2.6,3.1,5.2,4.8,7.4l-5.6,0.5c0.9,2.3,2,4.6,3.2,6.9
				c1.2,2.3,2.4,4.6,3.8,6.8c1.3,2.3,2.7,4.5,4.2,6.8c1.5,2.2,3,4.5,4.5,6.7c1.5,2.3,3.1,4.5,4.8,6.7c1.6,2.2,3.2,4.5,4.8,6.7
				c3.2,4.5,6.6,8.9,9.7,13.6c-2.5-8,6.1-11.5,10.4-6.8l-5.1,6.7c6.5,0.5-1.4-7.2,8.5-3.8c4,7.1-4.1,9.8-9.1,7.5l8.2,6.5
				c-1.6,1.9-4,0.8-6.8,2.1c3.2,0.2,4.3,4.9,5.9,9.5c0.8,2.3,1.8,4.6,3.2,6.3c1.4,1.7,3.3,2.7,6,2.4l-1.5,2
				c7.1,8.7,13.2,14.3,18.9,19.5c2.9,2.5,5.8,4.9,8.7,7.5c0.7,0.6,1.5,1.3,2.2,2c0.8,0.7,1.5,1.3,2.3,2c1.6,1.4,3.2,2.8,4.9,4.4
				c2.5-2.4,4.8-2.1,7.4-1.2c2.6,0.9,5.6,2.2,9.5,1.9c2.1,2.6,4,5.5,6.1,8.3c2.1,2.8,4.3,5.8,6.6,8.8c0.6,0.7,1.2,1.5,1.8,2.2
				c0.6,0.7,1.2,1.4,1.9,2.1c1.3,1.4,2.6,2.8,3.9,4.1c1.4,1.4,2.8,2.7,4.2,3.9c1.5,1.3,3.1,2.4,4.7,3.6c11,3.8,6.1-2.8,12.5-3.2
				c-3.1,5.7,10.2,14.1,0.9,13.2c8.1,5.1,13.4,8,19.4,10.9c3,1.5,6.3,2.8,10.2,4.3c2,0.7,4.1,1.6,6.5,2.4c2.4,0.8,5,1.6,7.9,2.6
				c-1-3.5-2.9-5.9-0.5-7c4.2,1.2,7.1,7.1,5.1,9.5l-1.3,0c3.5,0.6,6.8,1.7,10,3.2c1.6,0.8,3.2,1.6,4.7,2.6c1.5,0.9,3.1,1.9,4.6,3
				c3,2.1,5.9,4.6,8.9,7c2.9,2.4,5.8,5,8.7,7.5c11.6,9.9,23.4,18.9,35.8,16.5l-1.3,0.2c0,0,1.4,0.1,3.6,0.2c2.2,0.1,5,0.4,7.9,0.5
				c5.7,0.2,11.4,0.5,11.4,0.5c4.5,2.2,2.8,2.8,0.5,3.7c-2.2,0.8-4.9,1.9-2,5c6.5-0.6,11.9,0,16.7,1c4.8,1,9,2.7,13.1,4.4
				c4.1,1.6,8.1,3.3,12.3,4.5c4.2,1.2,8.7,1.8,13.8,1.3c2.4,5.5,7,8.9,12.6,11.3c2.8,1.2,5.9,2,9.2,2.7c3.3,0.7,6.7,1.3,10.2,1.7
				c3.5,0.4,7,0.8,10.5,1.3c3.5,0.5,6.9,0.9,10.2,1.6c6.5,1.4,12.5,3.3,17,7.1l-0.4-4.5c5.9-3.3,5.8,3.5,9.5,5.1
				c0-3.5-5-4.8-1.4-6.6c22.2,0.9,44.4,5.2,67,10c22.5,4.8,45.4,9.9,68,12.5c8.3,0.8,10.7-4.8,13.7-9.3c3-4.5,6.3-7.7,16.7-2.5
				l-5.9,8.2c16.8-4.8,33.9-5.1,51.3-6c4.3-0.3,8.7-0.5,13-0.9c4.3-0.4,8.7-0.9,12.9-1.6c4.3-0.7,8.5-1.6,12.7-2.7
				c4.2-1.2,8.3-2.6,12.3-4.3c-1.7,2.2-1.3,4.6-4.6,5.1c2,1.2,4.7,1.5,7.6,1.2c2.9-0.3,5.9-1.2,8.7-2.4c1.4-0.6,2.7-1.3,3.8-2
				c1.2-0.7,2.2-1.5,3-2.3c1.7-1.5,2.6-3,2.4-4.2c5.3-0.7,2.2,4,6,5.6c2,0.5,4-0.1,6-1.2c2-1,3.9-2.4,5.7-3.8
				c3.6-2.6,6.8-5.1,9.6-2.8c0.9,0.7-1.4,2.5-2.6,3.3c1-1.1,2.8-2,4.9-2.8c2.1-0.9,4.5-1.6,6.6-2.6c4.1-1.9,6.9-3.8,3.6-6.1
				c6.8-0.6,12.3-4,17.6-6.9c1.3-0.7,2.6-1.5,3.8-2.3c1.3-0.7,2.5-1.4,3.8-2c2.5-1.2,5.2-2,8-2.4c0.6-2.5,2.3-4.2,4.4-5.6
				c2.1-1.3,4.6-2.3,6.9-3.4c4.6-2.2,8.5-4.4,6.5-9.5c2.6,5,8.7,3.6,14.6-0.1c2.9-2,5.7-4.6,8-7.2c2.3-2.6,3.9-5.5,4.7-7.8
				c-0.1,4.4,7.8-1.8,8.3,3.8c3.7-3.1,6.7-6.6,8.3-9.6c1.6-3,1.4-5.7-1.1-7.2c2.7-0.2,5-0.9,7-1.9c2-1,3.8-2.3,5.2-3.9
				c1.4-1.5,2.7-3.3,3.8-5c1.1-1.8,2.1-3.6,3-5.4c1.8-3.6,3.5-6.9,5.9-9c2.4-2.2,5.5-3.3,10.4-2.4c6.7-12.6,12.6-24.6,18.1-36.3
				c5.4-11.7,10.5-23,15.3-34c4.6,3.1,1.5,9.1-1.6,14.8c-3.1,5.7-6.1,11.2-1,13.9c4.4-11.1,6.1-20.8,8.1-30c1-4.6,2.3-9,3.9-13.6
				c1.6-4.5,3.9-9.1,6.9-13.9c3.8-4.7,3,5.1,3.7,7.7c0.8-2.8,1.6-5.6,2.5-8.3c0.9-2.7,1.9-5.3,3-7.9c2.1-5.2,4.2-10.2,6.3-15.2
				c2-5,3.9-10,5.4-15c1.4-5.1,2.3-10.2,2.5-15.5c1,0.4,1.3,2.8,1.4,5.1c1-3.9,4.5-8.4-0.5-9.5l0.1,4.1c-2.3,0.9-4,0.2-5.3-1.5
				c-1.4-1.7-2.5-4.3-3.4-7.1c-1.8-5.6-3-11.7-4.8-12.6c6.1,5.2,8.2,0.8,10.8-3.1c2.5-3.9,5.4-7.3,12.8,0.3
				c-0.2-2.8-1.7-6.6-5.1-6.9c1.9-3.5,4.1-4.3,6.9,0.5c0.4-7.4-1.1-10.1-2.2-12.5c-1.1-2.4-2-4.6-0.6-10.9c2.4,0.5,2.8,3.3,5.3,5.2
				c-1.7-3.7-3.3-7.4-4.1-11.4c-0.8-4-0.8-8.4,1.2-13.6c1.3,0.9,3.5,0,2.9,3.2c0.7-4.6,0.4-9.1-0.2-13.4c-0.3-2.1-0.6-4.3-1-6.4
				c-0.4-2.1-0.8-4.2-1.2-6.3c-0.4-2.1-0.8-4.2-1-6.3c-0.3-2.1-0.4-4.2-0.5-6.4c-0.1-4.4,0.4-8.9,1.9-13.9
				c10.3,6.7,3.9-6.7,13.1-7.3c0,0-0.5-2.8-1.1-5.6c-0.6-2.8-1.2-5.6-1.2-5.6l-4.6,4.3c0.2-4.8-1.4-9.4-2.6-13.7
				c-1.3-4.4-2.3-8.5-0.8-12.6l3.9,7.1c0,0-0.5-4.5-1-9c-0.2-2.2-0.6-4.5-0.8-6.2c-0.2-1.7-0.4-2.8-0.4-2.8s-0.8,2.6-1.5,5.1
				c-0.4,1.3-0.8,2.6-1.1,3.5c-0.3,1-0.5,1.6-0.5,1.6c-1.2-2.4-2.6-3.5-3.9-4c-1.3-0.5-2.5-0.4-3.5-0.5c-2-0.1-3.1-0.5-2.1-6.8
				c0.5,1.2,0.5-1.1,0.9-4.4c0.5-3.3,1.2-7.6,3.8-10.2c0,0,0,0,0,0c-1.6-2.2-3.3-4.5-4.4-7c-1.1-2.6-1.6-5.4-0.8-9
				c2.7-2.1,10.3,0.4,12.1-1c-2-1-3.3-2.8-4.3-5.1c-1-2.3-1.7-5.1-2.3-7.9c-0.7-2.8-1.3-5.6-2.5-8c-1.2-2.4-2.7-4.4-5-5.5
				c2.2,1.6,7,0.9,7.9,0.1l-6.8-2.8c1.3-4.7,2.1-5.5,6-5.5c-0.7-6.7-3.4-5.1-5.6-3.9c-2.2,1.2-4.1,2-3.1-6.2c0.7,1.1,1.5,0.3,3,2.7
				c-0.2-8-3-15.3-5.6-22.3c-2.9-7-5.4-13.8-6.1-21.1c3.8-3.4,5.3-0.5,6.5,2.4c1.3,2.9,2.2,5.8,5.4,2.3c-1.9-5-4.3-9.9-6.9-14.8
				c-2.8-4.8-5.7-9.6-8.5-14.3c-3-4.7-5.7-9.4-8.3-14.1c-1.3-2.3-2.5-4.7-3.5-7.1c-1-2.4-1.9-4.8-2.7-7.2c0,0,0.2,1,0.3,1.9
				c0.2,1,0.3,1.9,0.3,1.9c-6.5,1.3-6.6-2.7-6.2-8c0.2-2.6,0.5-5.6,0-8.3c-0.5-2.7-1.6-5.2-4.1-6.8c2,1.8,8-0.2,6.4-0.2
				c-4.3-13.6-16-24.3-30.6-39.8l4.2,0.4c-0.5-2.1-1.3-4.4-2.4-6.8c-1.1-2.3-2.5-4.7-4-7c-1.5-2.3-2.9-4.7-4.3-7
				c-1.4-2.2-2.7-4.4-3.7-6.4c-4.3-0.2-6.8-4.6-8.9,0.8c0-1-0.1-2.1-0.2-3c-0.1-1-0.3-1.9-0.4-2.8c-0.4-1.8-0.9-3.6-1.5-5.2
				c-0.6-1.6-1.3-3.2-2.1-4.7c-0.4-0.7-0.8-1.5-1.3-2.2c-0.5-0.7-1-1.3-1.5-2c-4.1-5.2-9.2-9.3-14.5-13c-2.7-1.9-5.3-3.7-7.8-5.6
				c-2.6-1.8-5-3.8-7.2-5.9c-1.1-1.1-2.1-2.2-3.1-3.4c-1-1.2-1.9-2.4-2.7-3.8c-1.6-2.7-2.8-5.7-3.6-9.3c2.1,2,7,2.8,5.4,1.2
				c0,0-1.1-0.8-2.6-1.9c-0.8-0.6-1.7-1.3-2.7-2c-1-0.7-2.1-1.4-3.2-2.2c-4.3-3-8.6-5.9-8.6-5.9c-2.7,5.3-0.3,4.4-0.2,10.6
				c-4.2,0.7-10.1-1.3-13.8-4.5c9.3,3.2,6.1-6.9,5.1-11.9c-0.6,1.8-2.9,2.3-3.8,3.9c-0.3-3.7-1.1-5.1-2.1-5.3
				c-1-0.2-2.3,0.8-3.7,1.7c-2.8,1.9-6.3,3.9-9.6-3.3l2.5-1.8c-1.3-0.6-2.6-1-4-1.4c-1.4-0.4-2.8-0.7-4.2-1.1
				c-2.8-0.8-5.3-1.8-7.4-3.9c2.1-6.7,6.4,1.1,10-3c-1.7-1.2-3.8-1.8-6.1-2.2c-1.1-0.2-2.3-0.3-3.5-0.4c-1.2-0.1-2.3-0.2-3.5-0.3
				c-4.5-0.5-8.4-1.6-9.5-6.4c3.9,0.5,7.9,3.5,11.9,4c-1-5.5-2-8-3.3-9.7c-1.3-1.7-2.8-2.6-5-4.8l0.4,0.5c0,0-2.4-2.7-4.9-5.4
				c-1.2-1.4-2.5-2.7-3.4-3.7c-0.9-1-1.6-1.7-1.6-1.7s0.5,0.9,0.9,1.9c0.5,0.9,0.9,1.9,0.9,1.9c-4.5,2.1-8,2.7-11,2.3
				c-2.9-0.4-5.3-1.6-7.8-3.1c-2.4-1.5-4.9-3.1-7.8-4.2c-1.5-0.6-3.1-1-4.8-1.2c-1.8-0.2-3.7-0.2-5.9,0.2c4.2-0.7,6.6-1.2,8-1.8
				c1.3-0.6,1.6-1.2,1.4-2c-0.3-1.5-2.1-3.5,0.2-6.4c-2.1-3.6-5.8-8.3-3.4-9.3c-4.4,1-6.3-1.4-8.7-3.6c-2.4-2.2-5.3-4.2-11.5-2.5
				c0.3-1.2-1.2-2.1-2.4-3.2c-1.2-1.1-1.9-2.6,0.1-4.9c-8.8-2.1,0.1,4.7-2,7c-7.8,0.8-13.7-4.8-20.9-10.1c-1.8-1.3-3.6-2.7-5.5-3.9
				c-1.9-1.2-4-2.2-6.1-3.1c-2.2-0.9-4.4-1.5-6.8-1.8c-2.4-0.3-5-0.2-7.8,0.3c-4.3-0.3-7.8-0.2-11,0.3c-3.2,0.5-5.9,1.3-8.6,2
				c-2.7,0.8-5.3,1.5-8.3,2c-2.9,0.6-6.2,1-10,0.9c-1.9-2.6-0.3-4.4,1.8-5.5c2.1-1.2,4.7-1.7,4.7-1.7c-6.9-5.8-13.2-6.7-21.4-6
				c2-1.6,0.9-3.8-0.8-7c-6.3-0.8-6.1,7.6-13.3,2.3c1.9-2.3,4.6-6.1,8.2-8c-7.8,0.4-16,3.5-23.8,4.2c-1.3-4.5,5.7-5.4,8.9-7.6
				c-2.2,0-4.8,0.1-7.4,0.1c-2.6,0.1-5.3,0.3-7.9,0.7c-5.1,0.8-9.4,2.2-11.2,5.4c0,0,1.3,0.7,2.6,1.5c1.3,0.8,2.5,1.6,2.5,1.6
				c-3.1-0.2-0.8-5.9,1.7-6.7c8.2-4,10.2,3.9,10.2,6.4l-5.6,0.7c0.8,3.7,2.5,5.6,4.9,6.5c2.3,0.9,5.2,0.8,8.4,0.2
				c6.4-1.1,13.8-3.3,19-1.7c0,0-1.7,2.2-3.4,4.5c-1.7,2.3-3.3,4.5-3.3,4.5s3.2-1.5,6.3-2.9c1.6-0.7,3.2-1.4,4.4-1.9
				c1.2-0.5,2-0.9,2-0.9c1.7,3.2,1.7,9.1-3.7,9.3c3.1,3.4,4.9,3,6.6,2.5c1.7-0.4,3.3-0.8,5.7,2.8c0.5,1.1,0,1.4-0.7,1.6l8-0.8
				c-2,1.7-0.9,7.3-4.8,4.6c2.8,2.4,5.5,3.4,8.2,3.9c2.7,0.5,5.2,0.4,7.5,0.3c4.6-0.3,8.2-0.7,9.3,3.9l-1.2,0.2
				c9.2,1.5,10.3-0.1,11-2.5c0.4-1.2,0.7-2.6,1.9-4c1.2-1.3,3.4-2.6,7.5-3.4c0,0,0.5,5.2,1,10.4c0.5,5.2,0.8,10.3,0.8,10.3l4.6-6.3
				c1.7,1,4.9,3,3.1,5.5c8.5-1.9,0.2-3.5,5.9-6.3c1.4,2.5,3.7,4.2,6.2,5.5c2.5,1.4,5.3,2.5,7.8,3.6c5,2.1,8.9,4.7,7.1,10.5
				c5.5-3.6-5.8-8,4.7-7c-1.7,6.4,1.1,7.2,4.9,7.5c3.8,0.4,8.6,0.5,10.8,5.1c-5.5,4.6-10.6-2.3-6.3,6.9c2.5-1.9,4.5-2.2,6.3-1.5
				c1.8,0.6,3.3,2.2,4.7,4.1c2.8,3.7,5.2,8.4,8.6,9.4c2.5-3.7,6.2-2.5,10.8,0.2c2.3,1.3,4.7,3.1,7.2,4.8c2.6,1.7,5.3,3.2,8.1,4.3
				c-1.2,1,2.6,5.3,7.5,10.4c4.8,5.3,10.7,11.3,13.7,16.1l-1.2,1c3.7-2.8,7.4-2.1,11.2-0.2c3.7,2,7.4,5.2,11.1,7.2
				c-3.9,3.8-6.4,4.4-11.3,3.4l5.7,5c3.3-0.9,6-0.4,10.4,2.2l-6,3.6c1.9,1.7,4.1,3,6.5,4.3c2.3,1.3,4.8,2.6,7.2,4
				c4.9,2.8,9.4,6.7,12.3,12.9c2.6-1.9,4-6.8,6.4-10.3c2.3-3.5,5.7-5.7,12.1-1.8c-2.2,2.7-6.1,7-9.7,5.2c1.2,0.6,5,1.3,5.5,4.1
				l-8-0.4c2.1,6.2,5.7-0.9,8.5,3.2c-3.7,3.2-0.2,5-3.6,7c-1.2-0.6-1.3-4.5-3.9-4.6c1.5,2.3,2.7,5.2,3.4,7.9
				c0.7,2.8,0.8,5.5,0.1,7.5c1.8-2.1,5-4.2,8-1.6c3.4,3.8,2.8,5.4,1.6,6.8c-1.2,1.4-3,2.6-2.2,5.7c4.2-0.2,5.3,7,11.2,2.8
				c1.8,2.4-0.7,4.9-1.6,7c1.4,0.6,3.1,2.1,4.8,3.8c1.7,1.8,3.5,3.8,5.2,5.5c3.3,3.5,6.3,5.5,7.9,0.9l-0.3-1.4
				c0.3,0.1,0.4,0.4,0.7,0.5c0,0,0,0,0,0l0,0c2,1.3,3.7,2.8,5.3,4.4c1.5,1.7,2.8,3.5,4,5.4c1.2,1.9,2.3,3.9,3.2,6
				c1,2,1.8,4.2,2.6,6.4c1.6,4.3,3.2,8.6,4.7,12.8c0.8,2.1,1.7,4.1,2.8,6c0.5,1,1.1,1.9,1.7,2.8c0.6,0.9,1.2,1.8,1.8,2.7l-2.2,1.1
				c3.5,4,6.5,8.9,9.3,13.5c1.4,2.3,2.9,4.5,4.5,6.4c1.6,1.9,3.2,3.6,5.2,4.8c1.2,2.9-1.4,8.4-4.6,8.2c2.4,3.3,4.1,4.9,5.5,7.2
				c0.6,1.2,1.2,2.5,1.5,4.3c0.3,1.8,0.6,4,0.6,7c-1.6-1.5-2.6-2-3.2-2.1c-0.6-0.1-0.8,0.3-0.9,0.5c-0.2,0.4,0.1,0.3-1.5-4.9
				c0.4,2.6,0.5,4.7,0.6,6.5c0,1.9,0.1,3.5,0.4,5.1c0.3,1.6,0.9,3.1,2,4.7c1.1,1.6,2.8,3.4,5.1,5.5c-3.5-0.8-4.8,1.6-4.9,4.6
				c-0.1,3.1,1.2,6.8,2.7,8.9c0,0,0.6-2,1.2-4c0.6-2,1.1-4,1.1-4c2.5,4.9,3.1,9.6,3.8,14.4l-8.6-0.4c-0.6,2.8-0.6,5.3-0.2,7.7
				c0.3,2.4,1,4.6,1.9,6.8c0.9,2.1,2.1,4.2,3.4,6.2c1.2,2,2.5,4,3.8,5.9c1.3,1.9,2.5,3.9,3.4,5.8c1,1.9,1.7,3.9,2,5.9
				c0.3,2,0.3,4-0.2,6.1c-0.3,1-0.7,2.1-1.2,3.2c-0.6,1.1-1.3,2.2-2.2,3.3c3.2,2.3,3.8-0.6,4.6-3.6c0.7-3,1.4-6.1,5.1-4.2
				c0.1,1.2,0,2.4-0.3,3.7c-0.3,1.2-0.7,2.5-1.1,3.7c-0.9,2.5-2.2,4.9-3.5,7.1c-2.5,4.4-5.2,7.8-5,9.3c-1.6,6.6,1.7,9.2,5.1,12
				c1.7,1.4,3.4,2.8,4.6,4.8c0.6,1,1,2.1,1.3,3.4c0.3,1.3,0.3,2.8-0.1,4.5c2.8-1.9,10.6-4.1,13.8,6.3c-0.2,2.5-1,4.4-2.2,6
				c-1.2,1.5-2.8,2.5-4.4,3.1c-3.2,1.1-6.6,0.1-7.8-2.8c-0.3-2.3,0.6-3.4,1.6-3.3c-1.2-3-2.6-7-5.6-3.1l3,1.1
				c-0.7,1.2-1.2,2.9-1.6,4.7c-0.4,1.8-0.8,3.8-1.2,5.5c-0.9,3.4-2,5.9-4.4,4.4c2.9,7,4.8,3,6.3-2.3c-2,6.1-2.2,10.7-2.1,15.5
				c0.1,4.7,0.1,9.6-1.6,15.7c1.7-1.9,5.2-3.5,5.1-1.5c-0.6,2.3-0.9,4.1-1.1,5.6c-0.2,1.5-0.2,2.6-0.1,3.5c0.2,1.8,1,2.7,1.9,3.4
				c1.9,1.4,4.5,2.2,4.5,8.6c-5.2,6.6-10.3-3.6-8,9.2c-3.9,7.2-7.9,0.6-9.9-2.6c0.5,1.5,0.9,2.9,1,4.3c0.1,1.4,0,2.7-0.2,4
				c-0.5,2.5-1.5,4.9-2.7,7c-1.2,2.2-2.6,4.1-3.9,5.9c-1.3,1.8-2.3,3.4-2.9,4.9l-1.3-6.1c0.8,3.6,0.3,6.4-0.3,9.3l6.3-2.2
				c-0.8,1.6-1.3,3.1-2,4.2c-0.7,1-1.4,1.6-2.6,1.3c1.5,2.1,4,1.9,6.7,2.2c2.6,0.3,5.3,1,7.1,5c-2,2-1.8,5.7-2.4,8.8
				c-0.6,3.1-1.6,5.8-5.6,5.7c3-6.8,1-6.9-1.5-6.7c-1.3,0.1-2.7,0.2-3.7-0.5c-1-0.7-1.5-2.1-1.2-5.2c0.5,2.5-0.3,5.3-2.1,8.4
				c-1,0.3-1.4-0.8-1.7-1.9c-9.9,11.6,7.1,8.2,3.1,22.1c-3.7-2.9-8.8,0.9-8.7,3.3c1.8-5.4,7.8-0.6,9.4,5.5c-3,3.9-3.1,6.5-2.8,8.7
				c0.3,2.2,1.2,4,0.2,6.2l3.3-4.8c3.5,3.2,1.5,7.5,0.6,14.2c-3.3-0.6-0.2-6.5-2.4-4.7c0.6,1.2,0.9,2.3,0.8,3.3c0,1-0.4,2-0.9,2.9
				c-1,1.8-2.8,3.5-4.7,5.1c-3.7,3.4-8,6.7-7.6,12.4c-4.5,3.1-7.7-2.8-11.1,0.1c0.3,6.2-2.4,8.3-5.1,10.4c-0.7,0.5-1.4,1-2,1.6
				c-0.7,0.6-1.3,1.2-1.9,2c-1.2,1.5-2,3.6-2.3,6.7c6.7-0.3,5.8-1.6,7.1,8.5c0,0,0.1-0.3,0.2-0.8c0.1-0.5,0.3-1.3,0.6-2.2
				c0.5-1.8,1.1-4.2,1.7-6.6c0.6-2.4,1.3-4.8,1.6-6.6c0.4-1.8,0.7-3,0.7-3s0.2,0.9,0.4,2.3c0.2,1.4,0.6,3.3,0.8,5.1
				c0.5,3.8,1,7.5,1,7.5c1.3-2.6,2-5.8,2.4-8.7c0.4-2.9,0.9-5.5,2.1-6.9c1.9,7.4,0.8,6.3,6.4,5.8c-2.9,0.9-4.4,2.4-5.3,4.3
				c-0.9,1.8-1.2,4-1.4,6.2c-0.2,2.3-0.4,4.6-1.1,6.7c-0.7,2.2-2.1,4-4.5,5.4l-12.7-7.2c-3.1,2.2-4.9,4.9-6.2,7.9
				c-1.3,2.9-2.1,6.2-2.8,9.6c-0.8,3.4-1.6,7-3,10.5c-1.5,3.5-3.6,7-6.8,10.2c0,0,1.4-0.8,2.7-1.7c1.3-0.9,2.7-1.7,2.7-1.7
				c1.7,2.6,0.4,5.1-1.7,7.6c-2.1,2.5-4.7,5.2-5.5,8.2c-3.6-3.3-7.2-1.5-11.1-1.3c1.5,1-0.4,3.6-2.1,6.7c-1.7,3.1-2.9,7,0.3,10.7
				c0,0-2.5,0.5-5.1,1c-2.5,0.5-5,0.9-5,0.9c-0.7,0.6-1.3,1.2-1.9,1.8c-0.6,0.6-1,1.2-1.5,1.8c-0.8,1.2-1.4,2.4-1.8,3.7
				c-0.8,2.6-0.9,5.3-1,8c-0.3,5.4-0.5,11-6.3,15.3c-0.2-3.4-2.2-4.6-3.4-6.1c-1.3-1.5-2-3.3,0-7.9c-3.3,3.1-6.9,5.2-4.7,7.8
				c-1-0.1-1.8,0.7-2.6,1.9c-0.8,1.2-1.5,2.8-2.3,4.5c-0.8,1.7-1.7,3.3-2.8,4.5c-1.1,1.2-2.4,1.8-3.9,1.6c-0.2,2.9,2.5,7.3-1.9,10.2
				c-1.1-0.4-1.4-1.9-1.4-1.9c1.5,1.9-4.7,7.5,2.2,9.1c-2.6-0.4-5.1-0.4-7.4,0.1c-2.4,0.4-4.6,1.1-6.8,2c-4.3,2-8.5,4.6-12.5,7.4
				c-2.1,1.4-4.2,2.6-6.2,3.8c-2.1,1.2-4.1,2.3-6.2,3c-2.1,0.7-4.2,1.2-6.3,1.3c-1,0-2.1,0-3.1-0.2c-1-0.2-2.1-0.5-3.1-1
				c-2.1,1.3-4.4,2.8-6.8,4.2c-1.2,0.7-2.4,1.4-3.6,2c-1.2,0.6-2.5,1.3-3.7,1.9c-4.9,2.6-9.9,4.5-14.3,6.2c0.1-1.6-0.7-2.3,1.1-2.4
				c-3.3-0.1-5.3,0.7-6.5,2.1c-1.2,1.4-1.8,3.3-2.4,5.3c-0.6,1.9-1.3,3.9-2.9,5.3c-1.5,1.4-4,2.1-7.9,1.7c-9.1-5.9,6.7-5.9,1.4-7.8
				c-1.4-3.8-3.2-5.3-5.1-5.5c-1-0.1-2,0.1-3.1,0.5c-1.1,0.4-2.3,0.9-3.5,1.5c-2.5,1.2-5.2,2.6-8,3.3c-2.8,0.6-5.7,0.4-8.5-1.5
				l2.2-1.3c-2.1-1-4.1-1-6.3-0.4c-2.2,0.6-4.5,1.8-6.9,3.1c-1.2,0.7-2.5,1.4-3.8,2.1c-1.3,0.7-2.7,1.3-4,1.9c-2.8,1.1-5.7,2-8.9,2
				c0,0,0.5-1.5-0.1-2.4c-3.9,4.4-9.8,7.7-16.4,10c-6.6,2.4-13.7,3.8-19.8,5.2c3.7-6.4,5.5-3.5,3-9.8c-5.4,1.1,1.9,10.2-9.1,12.2
				c-3.6-3.3-11.6-6.3-12.6-13.1c0,0,2.6-0.1,5.1-0.2c1.3,0,2.6-0.1,3.5-0.2c1-0.1,1.6-0.1,1.6-0.1c-2.7-4.3-6-4.3-9.3-3.3
				c-3.3,1-6.7,2.9-9.4,2.1l0.7-3.8c-3.9,0.3-6.9,1.1-9.4,2.1c-2.5,1-4.6,2.3-6.7,3.5c-4.2,2.4-8.6,4.6-17.1,3.9l1.7,3
				c-9.8,9.3-7.6-5.7-17.2,1l-2.3-9.9c-3.1,1-8.6,3-14.8,4.9c-6.1,1.8-12.9,3.6-18.5,4c6.9-6.6,20-9.3,28.1-13.2
				c-3-0.2-8.1-0.3-13,0.1c-4.8,0.4-9.3,1.5-11.1,3.7c2.5-0.7,5.8-2.9,8.1-1.2c-4,3.5-8.5,6.1-13.6,7.5c-5.1,1.4-10.7,1.8-16.7,1.1
				c2.1-9.3-5.7-11.2-14.7-13.1c-4.5-0.9-9.4-1.8-13.6-3.4c-4.2-1.6-7.6-4-9.1-8c-2.7,0.5-5.4,0.7-8.1,0.6c-2.7,0-5.3-0.3-7.9-0.7
				c-2.6-0.4-5.2-1-7.8-1.7c-2.6-0.7-5.2-1.5-7.8-2.4c-5.2-1.7-10.4-3.8-15.9-5.6c-2.7-0.9-5.5-1.8-8.3-2.6
				c-2.8-0.8-5.7-1.5-8.7-2.1c1.2,4.1,1.5,6,1,6.9c-0.5,0.9-1.6,0.7-2.9,0.4c-2.7-0.5-6.2-1.2-7.3,6.3c-5.9-0.4-8-1.2-8.2-2.3
				c0,0-3.6-3.3-7.3-6.6c-1.8-1.6-3.6-3.3-4.9-4.6c-1.3-1.3-2.2-2.1-2.2-2.1c-2.7-5.4,6.1-1.7,6.5-5.1c-11.6-4.6-3.2-7.6-9.9-13.7
				c0,5.7-6.3,6.1-12.4,2.1l7.4,9.6c-9.5,1.2-12.2-2.9-14.7-7.1c-2.6-4.2-5.1-8.3-14.5-7.5l6.7-2.6c-4.6-0.2-12.3-2.9-20.2-4.8
				c-2-0.5-4-0.8-6-1.2c-2-0.3-4-0.5-5.9-0.5c-3.9,0-7.6,0.7-10.8,2.6c-0.8-2.2-1-6.9,3-6.3c-4.6-2.6-10-4.2-15.5-5.8
				c-2.8-0.8-5.6-1.4-8.5-2.1c-2.8-0.7-5.7-1.4-8.4-2.1c-5.6-1.3-10.9-3.1-15.6-5.2c-4.6-2.2-8.5-5-11.1-8.7l3.3-2.4
				c-4-1-9.4,2.4-11.8-3.3c1-1.2,3.3-2.3,1.8-3.4c-1.2,0-4.3,0.1-7.5-0.6c-3.2-0.6-6.4-1.9-8-4.2l6-1c-1.8-1.9-3.7-3.4-5.5-4.8
				c-1.8-1.3-3.7-2.4-5.7-3.3c-1.9-0.9-3.9-1.5-5.9-2.1c-2-0.6-4-1.1-6-1.5c-8.1-1.6-16.4-2.6-24.1-7.1c3.4-4.2,2.6-9.6,0.4-14.6
				c-1.1-2.5-2.5-5.1-3.9-7.3c-1.4-2.3-2.9-4.3-4-6l1.2-0.9c-2-2.1-4-4-6-5.8c-1-0.9-2.1-1.7-3.1-2.5c-0.5-0.4-1.1-0.8-1.6-1.2
				c-0.5-0.4-1-0.8-1.5-1.2c-2.1-1.6-4.2-3-6.4-4.3c-1.1-0.7-2.2-1.3-3.3-2c-1.1-0.7-2.2-1.3-3.2-2c-4.3-2.7-8.9-5.1-13.2-8
				c-2.2-1.4-4.4-2.9-6.6-4.5c-2.2-1.6-4.3-3.4-6.4-5.2c0.1-2.3-0.2-4.6-0.8-6.9c-0.6-2.4-1.4-4.8-2.5-7.3c-0.6-1.2-1.2-2.5-1.8-3.7
				c-0.7-1.2-1.4-2.5-2.1-3.8c-1.4-2.6-3-5.3-4.6-7.9c-6.3-10.8-13.4-22.4-15.4-33.5c-0.2,3.8-7.7,3.5-10.5,0.5
				c-0.2-2.8-3.4-5.2-5.5-7.3c-2.1-2.2-2.9-4.1,1.7-5.8l0.6,1.7c1.8-1.9,2.7-3.9,3-5.8c0.4-2,0.1-4-0.4-5.9c-0.6-2-1.4-4-2.4-5.9
				c-0.9-2-1.8-3.9-2.5-5.8l-12.6,3.6c2.3-6.8,2.1-13.3,0.3-19.5c-0.8-3.1-1.9-6.2-3.2-9.3c-0.6-1.5-1.3-3-2-4.5
				c-0.6-1.5-1.3-3-2-4.5c-1.3-3-2.7-5.8-3.8-8.7c-1-2.8-1.9-5.5-2.4-8.1c-0.2-1.3-0.4-2.5-0.4-3.8c0-1.2,0.1-2.4,0.4-3.5
				c0.5-2.3,1.6-4.3,3.4-6.1c-1-1.1-1.9-2.3-2.7-3.6c-0.7-1.3-1.3-2.6-1.9-4c-1.2-2.7-2.5-5.4-4.5-7.7l7-0.7c0-3.5,0.1-6.6,0.1-9.5
				c0-1.4,0-2.8-0.1-4.2c0-1.4,0-2.8,0-4.2c-0.1-2.8-0.3-5.7-0.6-9c-0.2-3.3-0.5-6.9-1.1-11.2l5.1,3.4c0-1.2-0.3-2.3-0.8-3.3
				c-0.5-1-1.3-1.9-2.2-2.8c-1.8-1.7-4.4-3.3-6.9-4.8c-2.5-1.6-5.1-3.1-7.1-4.9c-2-1.8-3.1-3.8-3.1-6.1c0,0,2.6-0.5,5.3-1.1
				c2.6-0.5,5.3-1,5.3-1c0.1-2.1,0.3-4.3,0.8-6.4c0.5-2.1,1-4.2,1.6-6.3l0.9-3.1c0.3-1,0.6-2.1,1-3.1c0.7-2,1.4-4.1,2-6.1
				c0.3-1,0.6-2,0.8-3.1l0.4-1.5l0.4-1.5c0.5-2,0.9-4.1,1.1-6.2c0.1-1,0.2-2.1,0.2-3.2c0-0.5,0-1.1,0-1.6c0-0.5,0-1.1,0-1.6
				c-0.1-2.2-0.4-4.4-1-6.7c1.4,0.7,4.2,1.9,3.9,4.6c0.6-1.9,1.8-4.5,3-7.5c1.4-2.9,2.8-6,3.7-9c0.8-3,1.4-5.7,0.8-7.9
				c-0.6-2.2-2.4-3.8-6-4.4c2.2,0.8,3.7,0.2,4.8-1.3c0.5-0.8,0.9-1.7,1.2-2.9c0.4-1.1,0.6-2.4,0.8-3.8c0.2-1.4,0.3-2.9,0.4-4.5
				c0.1-1.6,0.2-3.2,0.3-4.8c0.2-3.2,0.1-6.4,0.3-8.9l5.5,4.3c-2.2-5.4-3.7-8.5-4.4-11.7c-0.5-3.1-0.3-6.2,1.5-11.8
				c2.2-1.9,5.9,0.8,2.6,2.9c3.8-2.9,3.3-5.2,2.9-7.7c-0.4-2.5-0.5-5.3,4-8.9l1.5,5.8c1.3-1.8,2.2-3.3,2.7-4.5
				c0.5-1.2,0.7-2.2,0.7-3.2c-0.1-2-1-3.9-1.6-7.5c0.6-3.2,3.6-6.5,7.1-8.7c3.6-2.1,7.7-3,10.6-1.6c-1.1-1.7-1.8-4.3-1.6-6.9
				c0.2-2.6,1.2-5.2,3.7-6.7c2.3,1,2,3.4,1.9,4.6c3.4-2.1,5.7-4.5,7.4-7.1c1.8-2.5,2.9-5.1,4.1-7.6c1.1-2.5,2.3-4.7,3.9-6.6
				c0.8-0.9,1.7-1.8,2.8-2.4c1.1-0.6,2.4-1.1,4-1.5c1.7,1.5,3,1.8,4.1,1.7c-4.5,4.1-8.4,7.9-11.3,10.5c-2.8,2.7-4.4,4.2-4.3,3.6
				c2.3,2.2,5.3,1.7,7.9,2.1c2.6,0.4,4.6,1.8,5.3,7.6c0.4-2.2,0.8-4.9,1.4-7.7c0.6-2.8,1.3-5.9,2.3-8.8c1-2.9,2.2-5.7,3.8-8
				c1.6-2.3,3.5-4.1,5.7-5.1c0.7,0.2,1.5,0.3,2.4,0.8l-0.3,1.2c2-1,3.2-2.7,3.9-4.7c3-1.2,4.9-1.8,7.2-3.6c2.1,1.7,4.7,0.5,7.2-1.5
				c2.6-1.9,5.2-4.6,7.2-5.9c-4.5-5.3,1.4-8.2-6.9-9.2c0.9-0.1-0.3,1.2-2.7,3.5c-0.5,0.6-1.1,1.2-1.2,1.9c0-0.2-0.1-0.5-0.1-0.7
				c-2.5,2.1-5.6,4.9-9.3,8c0.8-5.1,2.1-10.2,8.9-10.4c-0.7-5.1-1.2-10.5-1.1-13.2c11.4,3.5,25,0.5,29.8,4.6
				c5.1-5.8,12.3-10.9,18.4-16.6c3.1-2.8,5.9-5.8,8.1-9c2.2-3.2,3.8-6.8,4.5-10.8c3.1-3.5,6.2,1,8.6,2.1c-1.6,2.3-4.4,3.5-4.7,5.8
				c1.5-1.7,3.7-3.4,6-5.1c2.3-1.7,4.9-3.2,7.2-5c4.6-3.4,8.2-6.9,7.3-11.5c5.9-0.4,5.3,2.2,4.9,3.9c-0.4,1.7-0.6,2.5,6-1.2
				l-0.8,3.4c4.1,0.2,7.7-0.2,11-1.1c3.2-0.9,6.2-2.3,8.9-4c2.7-1.7,5.3-3.7,7.8-5.9c2.5-2.2,5-4.4,7.5-6.7c2.5-2.2,5.2-4.5,7.9-6.5
				c1.4-1,2.8-2,4.3-2.8c1.5-0.8,3-1.6,4.7-2.2c6.5-2.6,14-3.8,23.2-1.3c-2.5-0.5-3.8-0.7-4.6-2.1c4.9-0.2,9.7-0.8,14.4-1.6
				c4.8-0.8,9.5-1.7,14.2-2.9c2.4-0.6,4.7-1.2,7.1-1.8c2.4-0.6,4.7-1.2,7.1-1.8l7.1-1.9l3.6-1l3.6-0.9c4.8-1.2,9.6-2.3,14.3-3.3
				c4.8-1,9.6-1.7,14.5-2.2c2.4-0.3,4.8-0.5,7.3-0.6c2.4-0.1,4.9-0.1,7.3,0c4.9,0.2,9.7,0.7,14.6,1.8c11,1.4,11.4-4.5,17.5-9.6
				l3.1,7.2l10.4-9.6c7.7-4,15,0.1,22.7,3.3c7.7,3.2,15.9,5.9,25.6-0.8l-2.9-4.8c7.3,0.5,22.9-4.4,22,1.5c0.7-1,2.1-5.3,5.1-2.9
				l0.4,3.9l17.6-7.6c14,2.1-1.4,15.5,18.9,15.3c7.5-1.8,21-12.3,18-14.8c-3.1-0.1-7.9-2.1-8.3-6l6.8-2.3
				c0.7-11.5,5.6-23.5-11.8-30.8l-11.6,7.6l-4.1-5.4l10-0.8c-5.9-5-9.3-0.2-13.2,3.2c-1.1-2.9-2.9-4.9-5.3-5.9l-11.1,11.6
				c-1.7-4.4,4.8-9.2-3.2-11.2c-5.2,5.4,5.8,9.8-3.1,13.6c-6-4.9-4.6-9.3-11-4.4c-1.1-2.9,0.2-4.9,2.8-6.3
				c-5.8,3.9-15.7,2.5-18.4,8.8c-6.4-6-20.1,3.1-20.3-7.8c-1.7,2.7-9.9,9.4-15.4,10.3c4.5-6.9-0.7-6.7-6.8-6.5
				c-6.1,0.3-13.2,0.5-12.6-6.5c-3.2,6.2-9.8,8.1-17.2,9.6c-3.7,0.7-7.6,1.4-11.4,2.3c-3.8,1-7.4,2.3-10.5,4.3
				c0.6-1,1.8-3.1,3.1-2.6c-7.6,0-10.2-3.2-15.4-4.7c0.4,9.7-10.9,13.7-16.1,20.5c-5.3-3.9-4.4-6.9-2.7-10c1.7-3.1,4.3-6.3,2.1-10.5
				c0.8,3.8-2.8,6.3-6.2,8.8c-3.3,2.4-6.4,4.6-4.2,7.5c-8-4.4-6.5-1.7-11.5-8.9c1,12-6.2,3.3-10.5,11.7c-5.6-1.9-6.9-4.5-8-6
				c-0.6-0.7-1.1-1.1-2.1-1c-1,0.1-2.6,0.8-5.2,2.4c-3-1.2-2.3-3.4-0.8-5.3c0.7-1,1.7-1.8,2.4-2.5
				C2240,2070.1,2240.6,2069.7,2240.6,2069.7z M2004.7,2205.1c0,0-0.1-0.1-0.1-0.1c1.6-1.7,3-3.2,3.9-4
				C2007.7,2201.8,2006.6,2203,2004.7,2205.1z M1988.2,2221c2.2-1.8,4.6-4.2,7.3-6.8c2.2,1.2,3.3,3.6,1.6,5c-0.1-1-1.4-0.8-3.1-0.3
				C1992.3,2219.5,1990.1,2220.5,1988.2,2221z M2054.1,2226.4c-1.9,2.8-3.5,2.4-4.8,1.6c1.1-1,2.3-2.4,3.9-4.2
				c-0.1-0.3-0.1-0.6-0.2-0.9C2053.5,2224.1,2054,2225.3,2054.1,2226.4z"/>
			<path class="st5" d="M2053.1,2215.7c0.3-0.4,0.3-0.8,0.8-1.2c-0.9-0.1-1.7-0.1-2.5,0c0.1,0.8,0.3,1.7,0.4,2.4
				C2052.2,2216.5,2052.7,2216,2053.1,2215.7z"/>
			<path class="st5" d="M2786.3,2236.1l0.1,0.5c0-0.5,0.1-0.9,0.3-1.3C2786.6,2235.7,2786.4,2235.8,2786.3,2236.1z"/>
			<polygon class="st5" points="1887.2,2516.7 1888.9,2516.3 1887,2514.6 			"/>
			<path class="st5" d="M2724.2,2130.4c0.2-0.6,0.3-1.4-0.1-2.4C2723.9,2128.4,2724,2129.3,2724.2,2130.4z"/>
			<path class="st5" d="M2682.9,2096.4l-4.9-6.3C2680,2093.1,2681.6,2095,2682.9,2096.4z"/>
			<path class="st5" d="M2649.9,2071.3c-1.1,0.8-1.6,1.5-2.2,2.2c0,0,0,0,0,0.1L2649.9,2071.3z"/>
			<path class="st5" d="M2871,2644.1c-0.2,0.5-0.2,1.1-0.2,1.6C2870.7,2649.9,2871.1,2647.2,2871,2644.1z"/>
			<path class="st5" d="M2879.5,2448.6c1.4,2,2.8,3.9,3.7,6C2883.5,2451.1,2883.4,2448.4,2879.5,2448.6z"/>
			<path class="st5" d="M2753.7,2836.9c0,0,0,0-0.1-0.1c-0.4,0.3-0.7,0.6-1.1,0.9L2753.7,2836.9z"/>
			<path class="st5" d="M2883.5,2463.6c1.2-3.5,0.9-6.4-0.3-9C2883,2457.4,2882.3,2460.8,2883.5,2463.6z"/>
			<path class="st5" d="M2481.6,2008.6l-2-0.6c0,0.5-0.2,0.8-0.4,1.1L2481.6,2008.6z"/>
			<path class="st5" d="M2479.3,2009.1l-2.3,0.5C2478,2009.7,2478.8,2009.8,2479.3,2009.1z"/>
			<path class="st5" d="M2472.1,2010.7c0,0,1.2-0.3,2.4-0.6c0.6-0.1,1.2-0.3,1.7-0.4c0.5-0.1,0.8-0.2,0.8-0.2
				C2475.3,2009.3,2473.4,2008.9,2472.1,2010.7z"/>
			<path class="st5" d="M2534.9,2023.2l1.3-2.3C2535.7,2021.4,2535.3,2022.1,2534.9,2023.2z"/>
			<path class="st5" d="M2551.2,2027.3c-3.6-1.7-8.1-8-13.9-8.1l-1,1.8c1.8-1.5,4.3,0.9,7,3.2
				C2545.9,2026.5,2548.7,2028.7,2551.2,2027.3z"/>
			<path class="st5" d="M2602.7,2080.9c0,0-2.8-1.9-5.5-3.7c-1.4-1-2.8-1.8-3.8-2.5c-1.1-0.7-1.8-1.1-1.8-1.1c1,3.4,2.3,7.8-3.4,6.1
				c2.9,3.5,4.3,4.8,5,4.9c0.7,0.2,0.8-0.9,0.9-2.1C2594.4,2079.9,2595.1,2076.7,2602.7,2080.9z"/>
			<path class="st5" d="M2636.6,2103.3c-6.6-2.5-1.9,3.4-3,4.5C2638.6,2108,2639.9,2108,2636.6,2103.3z"/>
			<path class="st5" d="M2823.7,2319.4l-6.1,1.7C2820.4,2325.7,2819.9,2320.2,2823.7,2319.4z"/>
			<polygon class="st5" points="2872.3,2364.4 2874.7,2357.9 2868.4,2356.8 			"/>
			<polygon class="st5" points="2835.5,2406.7 2834.2,2404.6 2837.9,2412.8 			"/>
			<path class="st5" d="M2670.9,2818.8l4.9,6.3c1.3-1.4,1-4.2,0-5.9c-0.5-0.9-1.2-1.5-2.1-1.7
				C2672.8,2817.3,2671.9,2817.6,2670.9,2818.8z"/>
			<path class="st5" d="M2469.1,2856c-2.2-4-8.1-6.7-12-3.1C2461.9,2853.7,2466.6,2856.9,2469.1,2856z"/>
			<polygon class="st5" points="1962.7,2555.7 1966.5,2558.6 1961.9,2552.2 			"/>
		</g>
	</g>
</g>
<g id="Layer_4">
	<path class="st10" d="M1611.6,2668.9c-21.1,3.9-495.6,402.2-1155.3,521.1l500.4-870.4L1611.6,2668.9z"/>
	<path class="st11" d="M397.1,2671.5l359.3-402.4c0,0,29.5-29.6,71.5-55.3c43.7-26.8,95.6-36.8,146.3-28.7l668.1,107.6l-298.1,216.1
		l-330.5-69.7c0,0-44.7-8.9-88,80.3l-132.4,226.5c-46.5,79.5-37.7,180.4,23.4,249.3c11,12.4,23.5,23.5,37.4,32.1l-427.4,195.4
		L351.4,2924C351.4,2924,305.7,2775.8,397.1,2671.5z"/>
	<polygon class="st12" points="868.8,4201.6 613.3,4663.9 0,4663.9 0,4038.2 133.6,3796.3 474.9,3984.4 867.4,4200.8 	"/>
	<polygon class="st13" points="867.4,4200.8 611.8,4663.9 99.8,4663.9 474.9,3984.4 	"/>
	<path class="st14" d="M1677.6,2274.8c0,0,282.5-33.6,288.8-22.1c6.3,11.5-198.8,232.4-198.8,232.4l-67.8-86.5L1677.6,2274.8z"/>
	<path class="st15" d="M1679.1,2274.1L449.4,2805.5l88.8,204.5l1230.3-525.3c0,0,11.4-33.7-19.3-39.9c0,0,18.6-29.5-19.2-40.7
		c0,0,17.5-28.2-18.8-47.3c0,0,17.4-27.9-14.5-39.4C1696.7,2317.3,1712.2,2297.3,1679.1,2274.1z"/>
	<path class="st11" d="M1091.4,2957.6c27.8-22.3,131.4-118.8,186.4-231.3l117.3-228.2c0,0,42.8-74.9,130.8-69.3c4.1,0.3,8.1,1,12,2
		c22.7,6.2,100,32.8,126.7,112.2c3,8.9,3.9,18.4,2.7,27.7c-2.8,21-13.7,63.2-52.9,134.6l-313.7,623.6c0,0-86.1,153.5-174.5,240.9
		c-1.4,1.3-2.7,2.7-3.9,4.2c-12,14.2-80.8,95.2-123.1,127.1c-6.9,5.2-12.6,11.8-16.8,19.3l-51.2,91.9c-0.9,1.6-2.8,2.1-4.4,1.3
		l-490.5-271.3l29.9-54.1c7.2-13,9.5-28.1,6.4-42.6l-46.9-222.6l397.5-181.6c9.1-4.2,20.5-9.8,29.7-13.9
		C861.2,3023.7,902.3,3109.4,1091.4,2957.6z"/>
	<path class="st16" d="M314.9,2862.4l172.4-73.6l87.7,205.4l-172.4,73.6c-62.1,26.5-132.7,2-156.8-54.5l0,0
		C221.6,2956.9,252.7,2888.9,314.9,2862.4z"/>
	<path class="st17" d="M122.7,3833l720.6,397.6c46.5,25.7,105.6,8.6,131.3-37.9l124.3-225.4c25.7-46.5,8.6-105.6-37.9-131.3
		l-720.6-397.6c-46.5-25.7-105.6-8.6-131.3,37.9L84.8,3701.7C59.1,3748.3,76.2,3807.3,122.7,3833z"/>
	<path class="st18" d="M1855.9,2258.7c0,0,107.6-13.1,109.9-6.7c2.9,7.9-68.7,85.8-68.7,85.8L1855.9,2258.7z"/>
</g>
</svg>
