<?xml version="1.0" encoding="utf-8"?>
<!-- Generator: Adobe Illustrator 22.0.1, SVG Export Plug-In . SVG Version: 6.00 Build 0)  -->
<svg version="1.1" xmlns="http://www.w3.org/2000/svg" xmlns:xlink="http://www.w3.org/1999/xlink" x="0px" y="0px"
	 viewBox="0 0 800 800" style="enable-background:new 0 0 800 800;" xml:space="preserve">
<style type="text/css">
	.st0{display:none;}
	.st1{display:inline;fill:#A37B66;}
	.st2{display:inline;opacity:0.1;}
	.st3{fill:#774022;}
	.st4{display:inline;}
	.st5{fill:#333333;}
	.st6{opacity:0.4;fill:#593232;}
	.st7{fill:#495968;}
	.st8{fill:#C7CAD1;}
	.st9{fill:#FFFFFF;}
	.st10{fill:none;stroke:#333333;stroke-width:8;stroke-miterlimit:10;}
	.st11{fill:none;stroke:#00D398;stroke-width:12;stroke-miterlimit:10;}
	.st12{fill:#999999;}
	.st13{opacity:0.4;clip-path:url(#SVGID_2_);fill:#593232;}
	.st14{clip-path:url(#SVGID_2_);}
	.st15{fill:#BA714D;}
	.st16{clip-path:url(#SVGID_4_);fill:#F6E2CA;}
	.st17{clip-path:url(#SVGID_4_);}
	.st18{fill:#A57842;}
	.st19{fill:#E05B4A;}
	.st20{clip-path:url(#SVGID_6_);fill:#E8A244;}
	.st21{clip-path:url(#SVGID_6_);fill:#EED8A2;}
	.st22{clip-path:url(#SVGID_6_);fill:#324C5B;}
	.st23{clip-path:url(#SVGID_6_);fill:#EFC849;}
	.st24{clip-path:url(#SVGID_6_);fill:#D1933E;}
</style>
<g id="Background" class="st0">
	<rect class="st1" width="800" height="800"/>
	<g class="st2">
		<path class="st3" d="M123.9,483.8c3.2-27.7,3.5-64.4,9.7-99c2.8-15.9-1.6-89.9-1.7-196.1c0-42.3,1.4-87.1,1.4-127.4
			c0-21.8,0.6-43.1,1.4-61.4h-3.5c-1,19.6-1.9,41.5-1.7,61c0.6,62.4-4.9,126-4.3,186.8c0.7,63.7,5.8,78,3,129.6
			c-1.3,23.4-3.3,93-7.9,112.3c-0.3,1-1.3,11.4-2.5,28.1c-1.8,24.7-4.3-0.7-4.6,104.2c-0.2,55.5,3.7,102.3,4,111l2.7,67h6.6
			c-4.7-23.7-6.4-65.3-7.7-115C117.2,619.1,117.5,540.4,123.9,483.8z"/>
		<path class="st3" d="M210.8,377c-3.1-51.6,2.6-65.8,3.3-129.5c0.7-60.8-2-124.4-1.3-186.8c0.2-19.4,0-41.2-0.4-60.7h-8.6
			c0.9,18.2,1.6,39.4,1.6,61.1c0,40.3,1.5,85.1,1.5,127.4c0,106.2-4.9,180.2-1.8,196.1c0.1,0.7,0.3,6.1,0.6,14.2
			c1.1-9.6,2-16,2.3-16c1,13.4,2,36.2,0,62.2c0.8,12.6,1.9,24.2,3.3,31.2c10,51.9,12.2,128.7,9.9,208.5c-1.4,49.7-3.3,91.3-8.4,115
			h7.3l2.9-67c0.4-8.7,4.6-55.5,4.4-111.1C227,545.3,211.3,385.6,210.8,377z"/>
		<path class="st3" d="M117.4,476.5c3.9-21.9,5.2-89.2,5.6-91.6c2.8-15.9-1.6-89.9-1.7-196.1c0-42.3,1.4-87.1,1.4-127.4
			c0-21.8,0.6-43.1,1.5-61.4h-7.9c-0.5,19.6-0.6,41.5-0.4,61c0.6,62.4-1.8,126-1.2,186.8c0.6,63.7,5.8,78,3,129.6
			c-0.5,8.5-14.8,168.3-15,244.6c-0.2,55.5,3.6,102.3,4,111l2.7,67h6.6c-4.7-23.7-6.4-65.3-7.7-115
			C106.3,605.2,108.3,528.4,117.4,476.5z"/>
		<path class="st3" d="M101.4,517c-0.7-63.7-5.8-78-3-129.5c0.5-8.5,14.8-168.3,15-244.6c0.2-55.5-3.7-102.4-4-111.1L108.1,0h-3.8
			c1.7,22.1,2.6,49.4,3.4,79.7c2,79.8,0.1,156.6-9.1,208.5c-1.2,7-2.2,18.6-3,31.2c1.8,26,1,48.9,0,62.3c-0.3,0-1-6.5-2.1-16.1
			c-0.3,8.1-0.5,13.6-0.6,14.2c-2.8,16,1.6,89.9,1.7,196.1c0,42.3-1.4,87.1-1.4,127.4c0.1,38.5-2,75.5-3.5,96.6h8.6
			c1.4-24.1,2.1-63.5,1.7-96.2C99.6,641.4,102,577.8,101.4,517z"/>
		<path class="st3" d="M207.4,500.6c-1,0-2,5-2.6,14.5c-0.6,9.5-1.4,23.6-0.3,41.9c1.1,18.3,3.9,37.6,5,52.3
			c1.1,14.6,1.8,24.8,2.6,24.8c0.8,0,1.3-10.1,1.5-24.8c0.2-14.7,0.8-34,1-52.3c0.3-18.3-1.4-32.3-3.3-41.9
			C209.3,505.6,208.4,500.6,207.4,500.6z M213.5,556.8c-0.1,15.6-0.4,31-0.6,42.5c-0.1,11.5-0.5,19.2-1.2,19.2
			c-0.7,0-1.3-7.9-2.4-19.5c-1.1-11.7-3.2-27-4-42c-0.7-15-0.4-25.3,0.1-32.4c0.4-7.1,1.1-11.2,2-13.9c0.9-2.7,2.2,0.9,3.8,9.3
			C212.7,528.2,213.6,541.2,213.5,556.8z"/>
		<path class="st3" d="M794.9,665.1c1.5,8.1,3.3,16,5.1,24V577.2c-0.5-23.1-0.8-46.2-1-69.2c-0.2-26.5,0.2-50.8,1-74.3V286.4
			c-0.1,4.9-0.2,9.8-0.4,13.7c-2.6,84.4-4.6,169-3.7,254.4C796.3,591.1,793.8,659.2,794.9,665.1z"/>
		<path class="st3" d="M106.2,464.1c0-7.7,1.5-18.5,1.5-27.7c0-24.9,6.4-46.9,6.4-71.4c0-16.1-0.9-48.2-2.7-63.2
			c-1.5-12.6-6,49.9-6,54.5c0,20.7-7.8,77.7-1.3,94.2c-0.9,1-1.6,8.4-1.8,10.8C101.5,469.3,106.2,468.3,106.2,464.1z M104.7,431.9
			c1.1-12,0.3-22.9,1.2-35.8c0.7-10,1.6-19.8,1.6-25.3c0-2.7,1.3-30.9,2.2-23.6c1.1,8.8,2,19,2,28.4c0,14.3-3.8,27.2-3.8,41.7
			c0,5.3-0.9,11.7-0.9,16.2C106.9,436,104.2,436.6,104.7,431.9z"/>
		<path class="st3" d="M624.6,249.4c0.6,9.5,1.6,14.5,2.6,14.5c1,0,2-5,3.8-14.5c1.9-9.6,3.5-23.6,3.3-41.9
			c-0.3-18.3-0.8-37.6-1-52.3c-0.2-14.7-0.6-24.8-1.4-24.8c-0.8,0-1.5,10.2-2.6,24.8c-1.1,14.8-4,34-5,52.3
			C623.2,225.8,624,239.9,624.6,249.4z M625.2,207.5c0.7-15,2.9-30.4,4-42c1-11.5,1.7-19.5,2.4-19.5c0.7,0,1,7.7,1.1,19.2
			c0.1,11.5,0.4,27,0.6,42.6c0.1,15.6-0.7,28.6-2.2,36.8c-1.5,8.4-2.8,12-3.8,9.3c-0.9-2.8-1.5-6.8-2-13.9
			C624.8,232.7,624.4,222.6,625.2,207.5z"/>
		<path class="st3" d="M198.3,460.2c-2.6,18.6-10.1,42.8-8.4,60c5.2,47.9,6.6,92.6,6.3,141.7c-0.2,46.1,4.2,91.2-1.1,138.1
			c2.2,0,4.4,0,6.6,0c4-50.5-0.5-136.4,0.8-149.3c2.6-27-6-82.2-4.8-140.5c0.4-17.9,7.2-35.8,9.1-53.1c0.4-4.1,0.8-8.1,1.1-12.1
			c-1.1-16.2-1.8-34.1-2.3-46.2C203.7,415.5,200.8,441.8,198.3,460.2z"/>
		<path class="st3" d="M216.1,571.2c0.8-23.9-1.8-44.8-4.4-61.4c-2.4-15.2-2.5-25.5-3.9-25.5c-1.4,0-3.3,9.7-4.7,25.5
			c-1.4,15.6-2.3,37.4,0.2,61.4c2.4,24,4.7,46.5,5.7,64.2c1,17.7,2.4,30.4,3.2,34.5c0.8,4.1,2-8.6,2.5-28.3
			C215.2,621.9,215.3,595.1,216.1,571.2z M211.9,649c-1.1,0-2-9.7-2.8-24.2c-0.8-14.5-2.8-33.9-4.6-53.6
			c-1.9-19.7-1.3-38.8-0.5-53.1c0.8-14.3,2.2-23.6,3.5-23.6c1.3,0,2.3,9.3,4.7,23.6c2.4,14.3,3.1,33.5,2.7,53.1
			c-0.4,19.7-0.5,39.1-0.7,53.6C213.8,639.3,213,649,211.9,649z"/>
		<path class="st3" d="M207.7,515.4c-1.1,0-1.7,15.7-1.4,30.3c0.2,14.6,3.1,41.9,3.9,41.9c0.8,0,2.2-27.2,2.3-41.8
			C212.5,531.2,208.8,515.4,207.7,515.4z M208.7,529c1,0,2.1,9.5,2.1,21.1c0,11.6-0.3,23.1-1.1,23.1c-0.8,0-2.4-11.5-2.6-23.1
			C206.9,538.4,207.7,529,208.7,529z"/>
		<path class="st3" d="M769.1,132.4c-0.8,31.1,2.7,83,5,83s4.2-51.6,4.4-82.8c0.1-31.2,0.8-50.5,0.8-75.1c0-24.6-1.8-44-2.6-44
			c-0.9,0-1.4,19.4-3,43.8C772.1,82,770,101.3,769.1,132.4z M776.4,54.9c1.5,0,1.7,32.6,1.1,65.6c-0.6,33-1.7,60-3.5,60
			c-1.8,0-3.1-26.9-2.1-60C772.9,87.5,775,54.9,776.4,54.9z"/>
		<path class="st3" d="M177,493.9c-0.6-2.9-1.1-26.4-1.8-38.9c-3.7-67.7-8.9-124.6-8.3-198.4c0.4-48.1,1.7-96.4,4.1-145.1
			c1.8-37.2,13.9-73.5,14.2-111.4h-5.1c1,39.3-11,68.3-18.3,99.4c-1.4,5.9,1.7,74,1.3,110.6c-1.1,85.5,1.4,170,4.6,254.4
			c0.5,12.1,0.9,33.9,1.4,36.2c21.6,101,15.3,200,8.3,299.5h8.2C182,705.4,193.8,584.5,177,493.9z"/>
		<path class="st3" d="M167.9,539c-0.6-4.1-1.2-47.5-1.8-60.1c-3.7-67.8-9-146.7-8.3-220.5c0.4-48.1,1.1-136.8,3.5-185.4
			c1.7-34.7,11.7-49,13.1-73h-8.6c-0.7,23.5-4.2,43.2-10.6,70.6c-1.4,5.9-2.5,102.8-3,139.4c-1.1,85.5,3.2,194,6.4,278.4
			c0.4,12.1,4,55.6,4.5,57.9c21.6,101,10.4,154.2,3.5,253.7h8.2C174.3,731.9,191.1,714.2,167.9,539z"/>
		<path class="st3" d="M767.6,231.3c1.8,22.1,4.3,33.6,6.4,33.6c2.1,0,4-11.5,5.3-33.6c1.3-22.1,1.5-54.9,1.7-97.5
			c0.2-42.6,2.1-87.5-0.5-121.5c-0.3-4.3-0.6-8.4-0.9-12.3h-2.3c1.3,7.9,2.6,20.5,3.2,36.1c1.1,26.9-0.6,62.7-0.8,97.6
			c-0.2,34.9-0.6,54.9-1.8,69.2c-1.2,14.3-2.9,22.9-4.7,35.3c-1.8,12.4-3.6,4.5-4.8-15.5c-1.2-20-1.6-52.2-0.4-88.4
			c1.2-36.2,4-72,4.9-98.8c0.5-15.3,0.7-27.6,1-35.4H772c-0.1,3.9-0.1,8-0.2,12.3c-0.5,34.2-3.8,78.9-5.4,121.5
			C764.9,176.3,765.8,209.2,767.6,231.3z"/>
		<path class="st3" d="M209.8,564.2c0.3,0,0.6-7.2,0.4-16.1c-0.1-8.8-0.7-16-1.1-16c-0.4,0-0.5,7.2-0.3,16
			C209,557,209.4,564.2,209.8,564.2z"/>
		<path class="st3" d="M627.5,249c1.1,0,4.8-15.8,4.8-30.4c0-14.6-1.4-41.8-2.3-41.8c-0.8,0-3.6,27.3-3.9,41.9
			C625.8,233.3,626.4,249,627.5,249z M626.9,214.5c0.2-11.6,1.8-23.1,2.6-23.1c0.8,0,1.1,11.5,1.1,23.1c0,11.6-1.1,21.1-2.1,21.1
			C627.5,235.5,626.7,226.1,626.9,214.5z"/>
		<path class="st3" d="M630,216.3c0.1-8.8-0.1-16.1-0.4-16.1c-0.3,0-0.8,7.2-0.9,16.1c-0.2,8.8-0.1,16,0.3,16
			C629.4,232.4,629.9,225.2,630,216.3z"/>
		<path class="st3" d="M774.6,160c0.6,0,1-16.2,1.4-36.1c0.4-19.9,0.6-36.1,0.2-36.1s-1.5,16.2-2,36.1
			C773.8,143.7,774.1,160,774.6,160z"/>
		<path class="st3" d="M144.5,630.7c-0.2-42.6-0.5-75.4-2.1-97.5c-1.6-22.1-4-33.6-6.6-33.6c-2.6,0-5.6,11.4-7.9,33.6
			c-2.3,22.1-3.4,54.9-1.5,97.5c2,42.6,6,87.3,6.7,121.5c0.4,20.9,0.7,37.8,1.3,47.8h4.1c1.6-10,3.4-26.8,5.4-47.8
			C147,718.3,144.7,673.3,144.5,630.7z M136.9,773.6c-1.7,0-1.4-17.8-2.6-44.6c-1.1-26.9-4.6-62.6-6.1-98.9
			c-1.5-36.2-1-68.4,0.5-88.4c1.5-20,3.7-27.9,6-15.5c2.3,12.4,4.4,21,5.9,35.3c1.4,14.3,1.9,34.2,2.2,69.2
			c0.3,34.9,2.4,70.7,1,97.6C142.5,755.5,138.5,773.6,136.9,773.6z"/>
		<path class="st3" d="M156.4,515.9c-1.2-16.7-2.2-27.1-2.5-28.1c-4.6-19.3-6.7-46.6-7.9-70.1c-2.8-51.6,0.1-106.3,0.8-170
			c0.8-80.8-9.1-166.5-1.2-247.7h-4.8c-4,51.5-0.6,123.1-0.6,188.7c0,106.2-2.2,220.6,0.6,236.6c6.1,34.6,4.2,30.8,7.4,58.5
			c11.3,99.1,8.3,261-2.6,316.2h6.6c4.3-23,6.9-62.1,8.3-78.9c2.4-28.7,6.2-45.8,1-99.2C160.4,611.7,158.2,540.7,156.4,515.9z"/>
		<path class="st3" d="M136,549c-2.9,0-7.3,51.9-6.2,83c1.1,31.1,3.7,50.4,5.7,75c2,24.4,2.7,43.8,3.7,43.8c1.1,0,3.2-19.4,3.3-44
			c0-24.6-0.8-43.9-1-75.1C141.2,600.6,138.9,549,136,549z M138.8,709.5c-1.8,0-4.3-32.6-5.6-65.6c-1.3-33,0.4-60,2.6-60
			c2.2,0,3.6,26.9,4.4,60C140.9,677,140.6,709.5,138.8,709.5z"/>
		<path class="st3" d="M622.9,254.6c1.4,15.8,3.3,25.5,4.7,25.5c1.4,0,1.5-10.3,3.9-25.5c2.6-16.6,5.2-37.5,4.4-61.4
			c-0.8-23.9-0.9-50.7-1.4-70.4c-0.5-19.7-1.7-32.4-2.5-28.3c-0.8,4.1-2.2,16.8-3.2,34.5c-1,17.7-3.3,40.2-5.7,64.2
			C620.7,217.2,621.5,239,622.9,254.6z M628.9,139.7c0.8-14.5,1.7-24.2,2.8-24.2c1.1,0,1.9,9.6,2.2,24.2c0.3,14.5,0.3,33.9,0.7,53.6
			c0.4,19.6-0.3,38.9-2.7,53.1c-2.4,14.3-3.4,23.6-4.7,23.6c-1.3,0-2.7-9.4-3.5-23.6c-0.8-14.3-1.4-33.5,0.5-53.1
			C626.1,173.6,628.1,154.2,628.9,139.7z"/>
		<path class="st3" d="M149,651.8c-0.7-53.9-0.3-102.8-2.8-138.2c-2.6-35.4-5.8-57.4-8.8-57.4c-3,0-7.9,21.9-12,57.4
			c-4.1,35.3-4.9,84.3-1.9,138.2c2.8,49.8,5,105.1,6.6,148.2h2.6c-0.4-7.8-0.8-17.1-1-27.5c-0.8-32.7-3.2-76.4-5.6-120.7
			c-2.4-44.2-2.2-87.6,0.6-119.7c2.8-32.3,6.9-53.2,9.9-53.2c3.1,0,5.8,21.1,7.6,53.2c1.8,32.2,1.7,75.4,2.4,119.7
			c0.7,44.3,0.4,87.7-3.3,120.7c-1.2,10.4-2,19.7-2.8,27.5h1.5c0.1-1.2,0.2-2.4,0.3-3.7C146.1,756.2,149.7,705.7,149,651.8z"/>
		<path class="st3" d="M29.8,160c0.7,0,1.3-16.2,1.8-36.1c0.5-19.9,0.8-36.1,0.2-36.1c-0.6,0-1.9,16.2-2.4,36.1
			C28.7,143.7,29.1,160,29.8,160z"/>
		<path class="st3" d="M91.4,254.6c1.3,15.8,3,25.5,4.3,25.5c1.2,0,1.4-10.3,3.6-25.5c2.4-16.6,4.8-37.5,4.1-61.4
			c-0.7-23.9-0.9-50.7-1.3-70.4c-0.4-19.7-1.6-32.4-2.3-28.3c-0.7,4.1-2,16.8-2.9,34.5c-0.9,17.7-3,40.2-5.2,64.2
			C89.3,217.2,90.1,239,91.4,254.6z M96.8,139.7c0.7-14.5,1.5-24.2,2.6-24.2c1,0,1.7,9.6,2,24.2c0.3,14.5,0.3,33.9,0.7,53.6
			c0.4,19.6-0.3,38.9-2.5,53.1c-2.2,14.3-3.1,23.6-4.2,23.6c-1.2,0-2.5-9.4-3.2-23.6c-0.7-14.3-1.3-33.5,0.4-53.1
			C94.3,173.6,96.1,154.2,96.8,139.7z"/>
		<path class="st3" d="M319.6,249.4c0.4,9.5,1.2,14.5,1.9,14.5c0.8,0,1.4-5,2.8-14.5c1.4-9.6,2.6-23.6,2.4-41.9
			c-0.2-18.3-0.6-37.6-0.8-52.3c-0.1-14.7-0.5-24.8-1.1-24.8c-0.6,0-1.1,10.2-1.9,24.8c-0.8,14.8-2.9,34-3.7,52.3
			C318.6,225.8,319.2,239.9,319.6,249.4z M320.1,207.5c0.6-15,2.2-30.4,3-42c0.8-11.5,1.2-19.5,1.7-19.5c0.5,0,0.7,7.7,0.8,19.2
			c0.1,11.5,0.3,27,0.4,42.6c0.1,15.6-0.6,28.6-1.7,36.8c-1.1,8.4-2.1,12-2.8,9.3c-0.7-2.8-1.1-6.8-1.5-13.9
			C319.8,232.7,319.6,222.6,320.1,207.5z"/>
		<path class="st3" d="M318.5,254.6c1,15.8,2.4,25.5,3.4,25.5c1,0,1.1-10.3,2.9-25.5c1.9-16.6,3.9-37.5,3.3-61.4
			c-0.6-23.9-0.7-50.7-1.1-70.4c-0.4-19.7-1.3-32.4-1.8-28.3c-0.6,4.1-1.6,16.8-2.3,34.5c-0.7,17.7-2.4,40.2-4.2,64.2
			C316.8,217.2,317.4,239,318.5,254.6z M322.8,139.7c0.6-14.5,1.3-24.2,2.1-24.2c0.8,0,1.4,9.6,1.6,24.2c0.2,14.5,0.2,33.9,0.5,53.6
			c0.3,19.6-0.2,38.9-2,53.1c-1.8,14.3-2.5,23.6-3.4,23.6c-0.9,0-2-9.4-2.6-23.6c-0.6-14.3-1-33.5,0.3-53.1
			C320.8,173.6,322.2,154.2,322.8,139.7z"/>
		<path class="st3" d="M182.9,278.9c0.6,0,1.9-15.5,2.5-34.4c0.6-18.9,0.2-34.4-0.5-34.4c-0.7,0-1.3,15.4-1.8,34.4
			C182.6,263.5,182.3,278.9,182.9,278.9z"/>
		<path class="st3" d="M0,485.5v69.8c2,39.5,2.2,83.9,1,129.4c-0.3,11.6-0.6,22.7-1,33.2v80.2l2.6-65.5c0.3-8.7,4.2-55.5,4-111.1
			C6.5,586.4,3.4,533.3,0,485.5z"/>
		<path class="st3" d="M21,231.3c2.3,22.1,5.3,33.6,7.9,33.6c2.6,0,5-11.5,6.6-33.6c1.6-22.1,1.9-54.9,2.1-97.5
			c0.2-42.6,2.5-87.5-0.6-121.5C36.7,8,36.3,3.9,35.9,0h-2.8c1.6,7.9,3.2,20.5,4,36.1c1.3,26.9-0.8,62.7-1.1,97.6
			c-0.3,34.9-0.7,54.9-2.2,69.2c-1.5,14.3-3.6,22.9-5.9,35.3c-2.2,12.4-4.4,4.5-6-15.5c-1.5-20-2-52.2-0.5-88.4
			c1.5-36.2,4.9-72,6.1-98.8C28.1,20.1,28.4,7.8,28.7,0h-2.2c-0.1,3.9-0.2,8-0.2,12.3c-0.7,34.2-4.8,78.9-6.7,121.5
			C17.7,176.3,18.8,209.2,21,231.3z"/>
		<path class="st3" d="M321.8,249c0.8,0,3.5-15.8,3.5-30.4c0-14.6-1.1-41.8-1.7-41.8c-0.6,0-2.7,27.3-2.9,41.9
			C320.6,233.3,321,249,321.8,249z M321.4,214.5c0.1-11.6,1.3-23.1,1.9-23.1c0.6,0,0.8,11.5,0.8,23.1c0,11.6-0.8,21.1-1.5,21.1
			C321.8,235.5,321.2,226.1,321.4,214.5z"/>
		<path class="st3" d="M23,132.4c-1.1,31.1,3.4,83,6.2,83c2.9,0,5.3-51.6,5.5-82.8c0.2-31.2,1-50.5,1-75.1c0-24.6-2.2-44-3.3-44
			c-1.1,0-1.7,19.4-3.7,43.8C26.6,82,24,101.3,23,132.4z M32,54.9c1.8,0,2.1,32.6,1.4,65.6c-0.7,33-2.2,60-4.3,60
			c-2.2,0-3.9-26.9-2.6-60C27.7,87.5,30.2,54.9,32,54.9z"/>
		<path class="st3" d="M92.9,249.4c0.5,9.5,1.5,14.5,2.4,14.5s1.8-5,3.5-14.5c1.7-9.6,3.2-23.6,3-41.9c-0.3-18.3-0.8-37.6-1-52.3
			c-0.2-14.7-0.6-24.8-1.3-24.8c-0.7,0-1.4,10.2-2.3,24.8c-1,14.8-3.6,34-4.6,52.3C91.6,225.8,92.3,239.9,92.9,249.4z M93.4,207.5
			c0.7-15,2.7-30.4,3.6-42c1-11.5,1.5-19.5,2.2-19.5c0.6,0,0.9,7.7,1,19.2c0.1,11.5,0.4,27,0.5,42.6c0.1,15.6-0.7,28.6-2.1,36.8
			c-1.4,8.4-2.6,12-3.4,9.3c-0.8-2.8-1.4-6.8-1.8-13.9C93.1,232.7,92.7,222.6,93.4,207.5z"/>
		<path class="st3" d="M179,307.6c0,23.4,2.2,41.9,3.3,41.9c1.1,0,1.7-18.5,3.7-41.7c2-23.4,4.6-41.7,5.7-71.4
			c1.1-29.6-3.4-79-6.2-79c-2.9,0-5.3,49.1-5.5,78.8C179.8,265.7,178.9,284.2,179,307.6z M181.2,247.6c0.7-31.4,2.2-57,4.4-57
			c2.2,0,3.9,25.6,2.6,57c-1.2,31.4-3.8,62.4-5.6,62.4C180.9,310,180.5,279.1,181.2,247.6z"/>
		<path class="st3" d="M245.2,132.4c-1.1,31.1,3.7,83,6.9,83c3.1,0,5.8-51.6,6-82.8c0.2-31.2,1.1-50.5,1.1-75.1
			c0-24.6-2.4-44-3.6-44c-1.2,0-1.9,19.4-4.1,43.8C249.2,82,246.3,101.3,245.2,132.4z M255.1,54.9c2,0,2.4,32.6,1.6,65.6
			c-0.8,33-2.4,60-4.8,60c-2.4,0-4.2-26.9-2.9-60C250.4,87.5,253.1,54.9,255.1,54.9z"/>
		<path class="st3" d="M243.1,231.3c2.5,22.1,5.8,33.6,8.7,33.6c2.9,0,5.5-11.5,7.2-33.6c1.8-22.1,2.1-54.9,2.3-97.5
			c0.3-42.6,2.8-87.5-0.7-121.5c-0.4-4.3-0.9-8.4-1.3-12.3h-3.1c1.7,7.9,3.5,20.5,4.4,36.1c1.5,26.9-0.8,62.7-1.1,97.6
			c-0.3,34.9-0.8,54.9-2.4,69.2c-1.6,14.3-4,22.9-6.4,35.3c-2.5,12.4-4.9,4.5-6.5-15.5c-1.7-20-2.2-52.2-0.6-88.4
			c1.6-36.2,5.4-72,6.7-98.8c0.7-15.3,0.9-27.6,1.3-35.4h-2.4c-0.1,3.9-0.2,8-0.3,12.3c-0.7,34.2-5.2,78.9-7.3,121.5
			C239.4,176.3,240.6,209.2,243.1,231.3z"/>
		<path class="st3" d="M179.1,142.3c-1.6,21-1.9,52.3-2.1,92.7c-0.2,40.5-2.5,83.3,0.6,115.6c3.2,32.7,6.2,54.9,8,54.9
			c1.8,0,2.2-22.4,2.9-54.9c0.7-32.5,4.7-75.1,6.7-115.6c1.9-40.5,0.8-71.8-1.5-92.7c-2.3-21.1-5.3-31.9-7.9-31.9
			C183.1,110.4,180.7,121.3,179.1,142.3z M186.8,135.7c2.2-11.8,4.4-4.3,6,14.8c1.5,19,2,49.6,0.5,84.1c-1.5,34.5-4.9,68.5-6.1,94
			c-1.1,25.4-0.9,42.4-2.6,42.4c-1.6,0-5.6-17.3-6.9-43.1c-1.3-25.6,0.7-59.6,1-92.9c0.3-33.2,0.8-52.2,2.2-65.8
			C182.3,155.7,184.5,147.5,186.8,135.7z"/>
		<path class="st3" d="M95.5,249c1,0,4.3-15.8,4.3-30.4c0-14.6-1.3-41.8-2.1-41.8c-0.8,0-3.3,27.3-3.5,41.9
			C94,233.3,94.5,249,95.5,249z M95,214.5c0.2-11.6,1.6-23.1,2.4-23.1c0.7,0,1,11.5,1,23.1c0,11.6-1,21.1-1.9,21.1
			C95.5,235.5,94.8,226.1,95,214.5z"/>
		<path class="st3" d="M252.7,160c0.7,0,1.4-16.2,1.9-36.1c0.5-19.9,0.8-36.1,0.2-36.1c-0.6,0-2.1,16.2-2.7,36.1
			C251.5,143.7,251.9,160,252.7,160z"/>
		<path class="st3" d="M97.8,216.3c0.1-8.8-0.1-16.1-0.4-16.1c-0.3,0-0.7,7.2-0.8,16.1c-0.1,8.8-0.1,16,0.3,16
			C97.2,232.4,97.7,225.2,97.8,216.3z"/>
		<path class="st3" d="M184.1,69.1c-3,0-6.2,20.9-8.8,54.6c-2.6,33.6-2.1,80.2-2.8,131.5c-0.7,51.3,2.9,99.2,6.4,137.5
			c3.5,37.5,3.8,65,5.3,73.9c1.5,8.8,5.1-18.4,6.8-60.6c1.7-42.2,4-99.5,7-150.7c3-51.3,2.2-97.9-1.9-131.5
			C192,89.9,187,69.1,184.1,69.1z M194.7,141.3c2.8,30.5,3,71.8,0.6,113.8c-2.4,42.1-4.8,83.7-5.6,114.8
			c-0.7,31.1-2.6,51.7-4.9,51.7s-3.2-20.8-6.9-51.7c-3.7-31.4-3.9-72.7-3.2-114.8c0.7-42.1,0.5-83.2,2.4-113.8
			c1.8-30.6,4.6-50.6,7.6-50.6C187.8,90.7,191.9,110.6,194.7,141.3z"/>
		<path class="st3" d="M42.2,112.6c0.5-40.5-1.4-79-3.9-112.6h-0.8c2.9,31.8,3.1,71.9,2.4,112.6c-0.7,44.2-0.5,87.5-2.4,119.7
			c-1.8,32.2-4.6,53.3-7.6,53.3c-3.1,0-7.2-21-10-53.3c-2.8-32.1-3-75.4-0.6-119.7c2.2-40.7,4.4-81,5.4-112.6h-2.8
			c-1.4,35.8-3.2,75.7-5.2,112.6c-3,53.9-2.2,102.9,1.9,138.2c4.1,35.5,9,57.4,12,57.4s6.2-22,8.8-57.4
			C41.9,215.5,41.5,166.5,42.2,112.6z"/>
		<path class="st3" d="M76.1,485.6c-0.6,0-0.3,15.4,0.2,34.4c0.5,19,1.1,34.4,1.8,34.4c0.7,0,1.1-15.4,0.5-34.4
			C78,501,76.7,485.6,76.1,485.6z"/>
		<path class="st3" d="M549.6,132.4c-1.1,31.1,3.4,83,6.2,83c2.9,0,5.3-51.6,5.5-82.8c0.2-31.2,1-50.5,1-75.1c0-24.6-2.2-44-3.3-44
			c-1.1,0-1.7,19.4-3.7,43.8C553.3,82,550.6,101.3,549.6,132.4z M558.6,54.9c1.8,0,2.1,32.6,1.4,65.6c-0.7,33-2.2,60-4.4,60
			c-2.2,0-3.9-26.9-2.6-60C554.3,87.5,556.8,54.9,558.6,54.9z"/>
		<path class="st3" d="M79.2,456.8c-2-23.3-2.7-41.7-3.7-41.7c-1.1,0-3.2,18.5-3.3,41.9c0,23.4,0.8,41.8,1,71.5
			c0.2,29.6,2.6,78.7,5.5,78.7c2.9,0,7.3-49.3,6.2-78.9C83.8,498.5,81.2,480.2,79.2,456.8z M78.8,573.9c-2.2,0-3.6-25.6-4.4-57.1
			c-0.7-31.4-0.4-62.4,1.4-62.4c1.8,0,4.3,31,5.6,62.4C82.7,548.3,81,573.9,78.8,573.9z"/>
		<path class="st3" d="M547.7,231.3c2.3,22.1,5.3,33.6,7.9,33.6c2.6,0,5-11.5,6.6-33.6c1.6-22.1,1.9-54.9,2.1-97.5
			c0.2-42.6,2.5-87.5-0.6-121.5c-0.4-4.3-0.8-8.4-1.2-12.3h-2.8c1.6,7.9,3.2,20.5,4,36.1c1.3,26.9-0.7,62.7-1,97.6
			c-0.3,34.9-0.8,54.9-2.2,69.2c-1.5,14.3-3.6,22.9-5.9,35.3c-2.3,12.4-4.4,4.5-6-15.5c-1.5-20-2-52.2-0.5-88.4
			c1.5-36.2,4.9-72,6.1-98.8c0.7-15.3,0.9-27.6,1.2-35.4h-2.2c-0.1,3.9-0.2,8-0.2,12.3c-0.7,34.2-4.7,78.9-6.7,121.5
			C544.3,176.3,545.4,209.2,547.7,231.3z"/>
		<path class="st3" d="M323.7,216.3c0.1-8.8-0.1-16.1-0.3-16.1c-0.3,0-0.6,7.2-0.7,16.1c-0.1,8.8-0.1,16,0.2,16
			C323.2,232.4,323.6,225.2,323.7,216.3z"/>
		<path class="st3" d="M556.4,160c0.7,0,1.3-16.2,1.8-36.1c0.5-19.9,0.8-36.1,0.2-36.1c-0.6,0-1.9,16.2-2.5,36.1
			C555.3,143.7,555.7,160,556.4,160z"/>
		<path class="st3" d="M81.6,413.8c-0.7-32.4-1.1-54.9-2.8-54.9c-1.8,0-4.8,22.2-8,54.9c-3.2,32.3-0.8,75.1-0.6,115.6
			c0.2,40.5,0.5,71.8,2.1,92.8c1.6,21,4,31.9,6.6,31.9c2.6,0,5.6-10.9,7.9-31.9c2.3-21,3.4-52.3,1.5-92.8
			C86.3,488.9,82.2,446.4,81.6,413.8z M85.9,614c-1.5,19-3.7,26.5-6,14.8c-2.2-11.8-4.5-20-5.9-33.6c-1.5-13.6-1.9-32.6-2.2-65.8
			c-0.3-33.2-2.4-67.3-1-92.9c1.4-25.8,5.3-43,6.9-43c1.7,0,1.4,16.9,2.6,42.4c1.1,25.6,4.6,59.6,6.1,94
			C87.9,564.4,87.4,595,85.9,614z"/>
		<path class="st3" d="M91.2,509.3c-3-51.3-5.3-108.6-7-150.7c-1.7-42.3-5.3-69.5-6.8-60.6c-1.5,8.8-1.8,36.4-5.3,73.9
			c-3.5,38.2-7.1,86.1-6.4,137.4c0.7,51.3,0.3,97.8,2.8,131.5c2.6,33.7,5.8,54.6,8.8,54.6c3,0,7.9-20.8,12-54.6
			C93.3,607.2,94.2,560.6,91.2,509.3z M87.9,623.2c-2.8,30.7-6.9,50.6-9.9,50.6c-3.1,0-5.8-20-7.7-50.6
			c-1.8-30.6-1.7-71.8-2.4-113.8c-0.7-42.1-0.4-83.4,3.3-114.8c3.6-30.9,4.6-51.7,6.9-51.7s4.1,20.6,4.9,51.7
			c0.7,31.1,3.2,72.7,5.6,114.8C90.9,551.4,90.7,592.6,87.9,623.2z"/>
		<path class="st3" d="M60.1,508c-0.7-73.9,4.6-130.7,8.3-198.4c0.7-12.6,1.3-36,1.8-39C84.9,191,77.6,88,78.1,0H73
			c5.7,87.6,8.3,175-10.7,263.9c-0.5,2.3-1,24.1-1.4,36.2c-3.2,84.4-5.7,169-4.6,254.4c0.5,36.6-2.7,104.7-1.3,110.5
			c9.3,39.8,26.5,76,14.1,134.9h5.8c11.6-51.2-8.3-98.3-10.7-146.9C61.8,604.4,60.5,556.1,60.1,508z"/>
		<path class="st3" d="M14.6,575.7c0-106.2,4.5-180.1,1.7-196.1c-0.4-2.4-1.8-69.7-5.6-91.6C1.5,236.1-0.5,159.3,1.6,79.5
			C2.3,49.3,3.3,22,5,0H1.2L0,30.4v209.9c4.3,69.8,10.7,141.2,11,146.8c2.8,51.6-2.4,65.8-3,129.5c-0.6,60.8,1.8,124.4,1.2,186.8
			c-0.3,32.7,0.3,72.1,1.8,96.2h8.6C18,778.6,16,741.5,16,703.1C16,662.8,14.6,618,14.6,575.7z"/>
		<path class="st3" d="M411.5,272.1c3.7-52.1,6.6-108.3,2.2-158.3c-0.9-10.2,1.4-65.9,0.7-113.8h-5.3c0.9,34.4-1.3,68.2-1.2,102.6
			c0.2,49.1,4.4,99.2-0.4,147C402.5,305.6,410.1,272.1,411.5,272.1z"/>
		<path class="st3" d="M0,312v18.3c0.1,0.2,0.1,0.5,0.1,0.7c0,4.5,0.9,10.8,0.9,16.2c0,14.5,3.8,27.4,3.8,41.7
			c0,9.4-0.9,19.6-1.9,28.4c-0.9,7.4-2.2-20.9-2.2-23.5c0-3-0.3-7.3-0.7-12.3v47.1c1.4,18.8,3.7,42.6,4.7,34.3
			c1.8-15,2.7-47.1,2.7-63.2c0-24.5-6.4-46.6-6.4-71.5C0.9,323,0.4,317.3,0,312z"/>
		<path class="st3" d="M25.1,575.7c0-106.2,4.5-180.1,1.7-196.1c-6.1-34.5-6.5-71.2-9.7-99c-6.5-56.5-6.7-135.3-5-201.2
			C12.9,49.3,13.8,22,15.5,0h-3.7l-1.2,31.5c-0.4,8.7-4.2,55.5-4,111.1c0.3,104.8,2.8,79.5,4.6,104.2c1.2,16.7,2.2,27.1,2.5,28.1
			c4.6,19.3,6.7,88.9,7.9,112.3c2.8,51.6-2.4,65.8-3,129.5c-0.6,60.8,4.9,124.4,4.3,186.8c-0.3,32.7,2.3,72.1,3.8,96.2
			c2.5,0,1,0,3.5,0c-1.5-21.1-3.6-58.2-3.5-96.6C26.6,662.8,25.1,618,25.1,575.7z"/>
		<path class="st3" d="M39.9,516.7c-0.7-63.7-3.5-118.4-0.8-170c1.3-23.5,3.3-50.8,7.9-70.1c0.2-1,1.3-11.4,2.5-28.1
			c1.8-24.7,4-95.8,5-106c5.2-53.3,1.5-70.5-1-99.2c-0.8-9.6-2-26.4-3.7-43.4h-6.5c6.8,71.7,7.4,198-2.1,280.7
			c-3.2,27.7-1.3,24-7.4,58.5c-2.8,16-0.7,130.4-0.6,236.6c0,82.6-5.5,174.9,5.4,224.3c2.5,0,2.2,0,4.7,0
			C27.6,708.5,40.9,609.4,39.9,516.7z"/>
		<path class="st3" d="M94.7,307.5c-1.7-17.3-8-35.2-8.3-53.1c-1.1-58.3,6.8-113.6,4.4-140.6C89.9,103.6,92.3,47.9,91.5,0h-5.3
			c0.9,34.4-1.3,68.2-1.2,102.6c0.2,49.1-1.1,93.8-5.8,141.7c-1.6,17.2,5.3,41.4,7.6,60c2.4,18.4,5,44.7,6.8,61.4
			c0.4-12.1,1.1-30,2.1-46.2C95.5,315.5,95.2,311.5,94.7,307.5z"/>
		<path class="st3" d="M51,506.1c-0.7-73.8,4.6-152.8,8.3-220.5c0.7-12.5,1.3-56,1.8-60.1C79.8,84.3,72.5,45.4,69.2,0h-6.7
			c6.5,78.1,12.6,129.9-6.2,218.2c-0.5,2.3-4,45.8-4.5,57.9c-3.2,84.4-7.6,193-6.4,278.5c0.5,36.6,1.6,133.5,3,139.4
			c9.3,39.8,12.5,63.5,9.8,106.1h5.8c11.6-51.2-7.1-59.8-9.4-108.5C52.1,642.8,51.4,554.1,51,506.1z"/>
		<path class="st3" d="M136.6,604.5c-0.7,0-1.1,16.2-0.5,36.1c0.6,19.9,1.9,36.1,2.5,36.1c0.6,0,0.3-16.2-0.2-36.1
			C137.9,620.8,137.3,604.5,136.6,604.5z"/>
		<path class="st3" d="M626.6,307.5c-1.9-17.3-8.8-35.2-9.1-53.1c-1.2-58.3,7.4-113.6,4.8-140.6c-1-10.2,1.6-65.9,0.8-113.8h-5.8
			c0.9,34.4-1.4,68.2-1.3,102.6c0.2,49.1-1.2,93.8-6.3,141.7c-1.7,17.2,5.8,41.4,8.4,60c2.6,18.4,5.5,44.7,7.4,61.5
			c0.5-12.1,1.2-30,2.3-46.2C627.5,315.6,627.1,311.5,626.6,307.5z"/>
		<path class="st3" d="M610.8,358.6c-1.7-42.3-5.3-69.5-6.8-60.6c-1.5,8.8-1.8,36.4-5.3,73.9c-3.5,38.2-7.1,86.1-6.4,137.4
			c0.7,51.3,0.3,97.8,2.8,131.5c2.5,33.7,5.8,54.6,8.8,54.6c3,0,7.9-20.8,12-54.6c4.1-33.6,4.9-80.2,1.9-131.5
			C614.8,458.1,612.4,400.8,610.8,358.6z M614.5,623.2c-2.8,30.7-6.9,50.6-10,50.6c-3.1,0-5.8-20-7.6-50.6
			c-1.8-30.6-1.7-71.8-2.4-113.8c-0.7-42.1-0.4-83.4,3.3-114.8c3.6-30.9,4.6-51.7,6.9-51.7c2.3,0,4.1,20.6,4.9,51.7
			c0.7,31.1,3.2,72.7,5.6,114.8C617.5,551.4,617.3,592.6,614.5,623.2z"/>
		<path class="st3" d="M608.2,413.8c-0.7-32.4-1.1-54.9-2.9-54.9c-1.8,0-4.8,22.2-8,54.9c-3.1,32.3-0.8,75.1-0.6,115.6
			c0.2,40.5,0.5,71.8,2.1,92.8c1.6,21,4,31.9,6.6,31.9c2.6,0,5.6-10.9,7.9-31.9c2.3-21,3.4-52.3,1.5-92.8
			C612.9,488.9,608.9,446.4,608.2,413.8z M612.5,614c-1.5,19-3.7,26.5-6,14.8c-2.3-11.8-4.4-20-5.9-33.6
			c-1.4-13.6-1.9-32.6-2.2-65.8c-0.3-33.2-2.4-67.3-1-92.9c1.4-25.8,5.3-43,6.9-43c1.7,0,1.4,16.9,2.6,42.4
			c1.2,25.6,4.6,59.6,6.1,94C614.5,564.4,614.1,595,612.5,614z"/>
		<path class="st3" d="M634,517c-0.7-63.7-6.4-78-3.3-129.5c0.5-8.5,16.2-168.3,16.4-244.6c0.2-55.5-4-102.4-4.4-111.1L641.3,0h-4.1
			c1.8,22.1,2.9,49.4,3.7,79.7c2.2,79.8,0.1,156.6-9.9,208.5c-1.3,7-2.4,18.6-3.3,31.2c2,26,1,48.9,0,62.2c-0.3,0-1.1-6.4-2.3-16
			c-0.3,8.1-0.5,13.5-0.6,14.2c-3.1,16,1.8,89.9,1.8,196.1c0,42.3-1.6,87.1-1.5,127.4c0.1,38.5-2.2,75.5-3.8,96.6h9.4
			c1.6-24.1,2.2-63.5,1.9-96.2C632,641.4,634.6,577.8,634,517z"/>
		<path class="st3" d="M605.8,456.8c-2-23.3-2.6-41.7-3.7-41.7c-1.1,0-3.2,18.5-3.3,41.9c0,23.4,0.8,41.8,1,71.5
			c0.2,29.6,2.6,78.7,5.5,78.7c2.9,0,7.3-49.3,6.2-78.9C610.5,498.5,607.8,480.2,605.8,456.8z M605.4,573.9
			c-2.2,0-3.6-25.6-4.4-57.1c-0.7-31.4-0.4-62.4,1.4-62.4c1.8,0,4.3,31,5.6,62.4C609.3,548.3,607.6,573.9,605.4,573.9z"/>
		<path class="st3" d="M639.2,464.1c0-7.7,1.7-18.5,1.7-27.7c0-24.9,7.1-46.9,7.1-71.4c0-16.1-1-48.2-3-63.2
			c-1.7-12.6-6.5,49.9-6.5,54.5c0,20.7-8.5,77.7-1.5,94.2c-1,1-1.7,8.4-2,10.8C634,469.3,639.2,468.3,639.2,464.1z M637.5,431.9
			c1.3-12,0.3-22.9,1.3-35.8c0.7-10,1.8-19.8,1.8-25.3c0-2.7,1.4-30.9,2.4-23.6c1.2,8.8,2.1,19,2.1,28.4c0,14.3-4.1,27.2-4.1,41.7
			c0,5.3-1,11.7-1,16.2C639.9,436,637,436.6,637.5,431.9z"/>
		<path class="st3" d="M658.6,483.8c3.5-27.7,3.9-64.4,10.6-99c3.1-15.9-1.8-89.9-1.8-196.1c0-42.3,1.6-87.1,1.5-127.4
			c0-21.8,0.7-43.1,1.6-61.4h-3.8c-1.1,19.6-2.1,41.5-1.9,61c0.7,62.4-5.4,126-4.7,186.8c0.7,63.7,6.4,78,3.3,129.6
			c-1.4,23.4-3.6,93-8.7,112.3c-0.3,1-1.4,11.4-2.7,28.1c-2,24.7-4.7-0.7-5,104.2c-0.2,55.5,4,102.3,4.4,111l2.9,67h7.3
			c-5.2-23.7-7-65.3-8.4-115C651.3,619.1,651.6,540.4,658.6,483.8z"/>
		<path class="st3" d="M672.5,604.5c-0.7,0-1.2,16.2-0.6,36.1c0.6,19.9,2.1,36.1,2.7,36.1c0.6,0,0.3-16.2-0.2-36.1
			C673.9,620.8,673.2,604.5,672.5,604.5z"/>
		<path class="st3" d="M602.7,485.6c-0.6,0-0.3,15.4,0.2,34.4c0.5,19,1.1,34.4,1.8,34.4c0.7,0,1.1-15.4,0.5-34.4
			C604.6,501,603.3,485.6,602.7,485.6z"/>
		<path class="st3" d="M651.5,476.5c4.2-21.9,5.7-89.2,6.2-91.6c3.1-15.9-1.8-89.9-1.8-196.1c0-42.3,1.6-87.1,1.5-127.4
			c0-21.8,0.7-43.1,1.6-61.4h-8.6c-0.5,19.6-0.7,41.5-0.5,61c0.7,62.4-2,126-1.3,186.8c0.7,63.7,6.4,78,3.3,129.6
			c-0.5,8.5-16.2,168.3-16.5,244.6c-0.2,55.5,4,102.3,4.4,111l2.9,67h7.3c-5.1-23.7-7-65.3-8.4-115
			C639.3,605.2,641.5,528.4,651.5,476.5z"/>
		<path class="st3" d="M553.2,703.1c0-40.3-1.4-85.1-1.4-127.4c0-106.2,4.5-180.1,1.7-196.1c-6.1-34.5-6.5-71.2-9.7-99
			c-6.5-56.5-6.7-135.3-5.1-201.2c0.8-30.2,1.7-57.4,3.4-79.5h-3.7l-1.2,31.5c-0.3,8.7-4.2,55.5-4,111.1
			c0.3,104.8,2.8,79.5,4.6,104.2c1.2,16.7,2.2,27.1,2.5,28.1c4.6,19.3,6.7,88.9,7.9,112.3c2.8,51.6-2.4,65.8-3,129.5
			c-0.6,60.8,4.9,124.4,4.3,186.8c-0.3,32.7,2.3,72.1,3.8,96.2c2.5,0,1,0,3.5,0C555.1,778.6,553.1,741.5,553.2,703.1z"/>
		<path class="st3" d="M518.2,377c-2.8-51.6,2.4-65.8,3-129.5c0.6-60.8-1.8-124.4-1.2-186.8c0.2-19.4,0-41.2-0.4-60.7h-7.9
			c0.8,18.2,1.5,39.4,1.4,61.1c0,40.3,1.4,85.1,1.4,127.4c0,106.2-4.5,180.2-1.7,196.1c0.1,0.7,0.3,6.1,0.6,14.2
			c1-9.6,1.8-16.1,2.1-16.1c1,13.4,1.8,36.2,0,62.2c0.8,12.6,1.7,24.2,3,31.2c9.1,51.9,11.1,128.7,9.1,208.5
			c-1.3,49.7-3,91.3-7.7,115h6.6l2.7-67c0.3-8.7,4.2-55.5,4-111.1C533,545.3,518.7,385.6,518.2,377z"/>
		<path class="st3" d="M515.1,500.6c-0.9,0-1.9,5-2.4,14.5c-0.5,9.5-1.3,23.6-0.3,41.9c1,18.3,3.6,37.6,4.6,52.3
			c1,14.6,1.6,24.8,2.3,24.8c0.7,0,1.2-10.1,1.3-24.8c0.2-14.7,0.7-34,1-52.3c0.2-18.3-1.3-32.3-3-41.9
			C516.9,505.6,516,500.6,515.1,500.6z M520.6,556.8c-0.1,15.6-0.4,31-0.5,42.5c-0.1,11.5-0.4,19.2-1,19.2c-0.6,0-1.2-7.9-2.2-19.5
			c-1-11.7-3-27-3.6-42c-0.7-15-0.3-25.3,0.1-32.4c0.4-7.1,1-11.2,1.8-13.9c0.8-2.7,2,0.9,3.4,9.3
			C519.9,528.2,520.7,541.2,520.6,556.8z"/>
		<path class="st3" d="M541.2,575.7c0-106.2,4.5-180.1,1.7-196.1c-0.4-2.4-1.8-69.7-5.6-91.6c-9.2-51.9-11.1-128.7-9.1-208.5
			C529,49.3,529.9,22,531.6,0h-3.7l-1.2,31.5c-0.4,8.7-4.2,55.5-4,111.1c0.3,76.3,14.6,236.1,15,244.6c2.8,51.6-2.4,65.8-3,129.5
			c-0.6,60.8,1.8,124.4,1.2,186.8c-0.3,32.7,0.3,72.1,1.8,96.2h8.6c-1.5-21.1-3.6-58.2-3.5-96.6C542.7,662.8,541.2,618,541.2,575.7z
			"/>
		<path class="st3" d="M506.7,460.2c-2.4,18.6-9.2,42.8-7.6,60c4.7,47.9,6,92.6,5.8,141.7c-0.2,46.1,3.8,91.2-1,138.1c2,0,4,0,6,0
			c3.7-50.5-0.4-136.4,0.7-149.3c2.4-27-5.5-82.2-4.4-140.5c0.3-17.9,6.6-35.8,8.3-53.1c0.4-4.1,0.7-8.1,1-12.1
			c-1-16.2-1.6-34.1-2.1-46.2C511.7,415.5,509.1,441.8,506.7,460.2z"/>
		<path class="st3" d="M523,571.2c0.7-23.9-1.7-44.8-4.1-61.4c-2.2-15.2-2.3-25.5-3.5-25.5c-1.3,0-3,9.7-4.3,25.5
			c-1.3,15.6-2.1,37.4,0.1,61.4c2.2,24,4.3,46.5,5.2,64.2c0.9,17.7,2.2,30.4,2.9,34.5c0.7,4.1,1.8-8.6,2.3-28.3
			C522.2,621.9,522.3,595.1,523,571.2z M519.2,649c-1,0-1.9-9.7-2.6-24.2c-0.7-14.5-2.5-33.9-4.2-53.6c-1.7-19.7-1.2-38.8-0.4-53.1
			c0.7-14.3,2-23.6,3.2-23.6c1.2,0,2.1,9.3,4.3,23.6c2.2,14.3,2.9,33.5,2.5,53.1c-0.4,19.7-0.4,39.1-0.7,53.6
			C520.9,639.3,520.2,649,519.2,649z"/>
		<path class="st3" d="M566.6,516.7c-0.7-63.7-3.5-118.4-0.8-170c1.3-23.5,3.3-50.8,7.9-70.1c0.3-1,1.2-11.4,2.5-28.1
			c1.8-24.7,4-95.8,5-106c5.2-53.3,1.4-70.5-1-99.2c-0.8-9.6-2-26.4-3.7-43.4H570c6.8,71.7,7.3,198-2.1,280.7
			c-3.2,27.7-1.3,24-7.4,58.5c-2.8,16-0.6,130.4-0.6,236.6c0,82.6-5.5,174.9,5.4,224.3c2.5,0,2.2,0,4.7,0
			C554.2,708.5,567.5,609.4,566.6,516.7z"/>
		<path class="st3" d="M577.6,506.1c-0.7-73.8,4.6-152.8,8.3-220.5c0.7-12.5,1.3-56,1.8-60.1c18.7-141.1,11.4-180,8.1-225.4H589
			c6.5,78.1,12.6,129.9-6.2,218.2c-0.5,2.3-4,45.8-4.5,57.9c-3.2,84.4-7.6,193-6.4,278.5c0.5,36.6,1.6,133.5,3,139.4
			c9.3,39.8,12.5,63.5,9.8,106.1h5.8c11.6-51.2-7.1-59.8-9.4-108.5C578.7,642.8,578,554.1,577.6,506.1z"/>
		<path class="st3" d="M671.8,549c-3.2,0-8,51.9-6.9,83c1.2,31.1,4.1,50.4,6.3,75c2.2,24.4,2.9,43.8,4.1,43.8c1.2,0,3.6-19.4,3.6-44
			c0-24.6-0.9-43.9-1.1-75.1C677.6,600.6,675,549,671.8,549z M674.9,709.5c-2,0-4.7-32.6-6.1-65.6c-1.4-33,0.4-60,2.9-60
			c2.4,0,4,26.9,4.8,60C677.3,677,676.9,709.5,674.9,709.5z"/>
		<path class="st3" d="M586.7,508c-0.7-73.9,4.6-130.7,8.3-198.4c0.7-12.6,1.3-36,1.8-39C611.6,191,604.2,88,604.7,0h-5.1
			c5.7,87.6,8.3,175-10.7,263.9c-0.5,2.3-1,24.1-1.4,36.2c-3.2,84.4-5.7,169-4.6,254.4c0.5,36.6-2.7,104.7-1.3,110.5
			c9.3,39.8,26.5,76,14.1,134.9h5.8c11.6-51.2-8.3-98.3-10.6-146.9C588.4,604.4,587.1,556.1,586.7,508z"/>
		<path class="st3" d="M568.8,112.6c0.5-40.5-1.4-79-3.9-112.6h-0.8c2.9,31.8,3.1,71.9,2.5,112.6c-0.7,44.2-0.5,87.5-2.4,119.7
			c-1.8,32.2-4.6,53.3-7.6,53.3c-3.1,0-7.2-21-10-53.3c-2.8-32.1-3-75.4-0.6-119.7c2.2-40.7,4.4-81,5.4-112.6h-2.8
			c-1.4,35.8-3.2,75.7-5.2,112.6c-3,53.9-2.2,102.9,1.9,138.2c4.1,35.5,9,57.4,12,57.4c2.9,0,6.2-22,8.8-57.4
			C568.5,215.5,568.1,166.5,568.8,112.6z"/>
		<path class="st3" d="M526,300.4c0-4.2-4.7-5.2-3.8,2.8c0.2,2.5,0.9,9.8,1.8,10.9c-6.4,16.5,1.3,73.6,1.3,94.2
			c0,4.6,4.5,67.1,6,54.5c1.8-15,2.7-47.1,2.7-63.2c0-24.5-6.5-46.6-6.5-71.5C527.5,319,526,308.1,526,300.4z M531.4,388.8
			c0,9.4-0.9,19.6-1.9,28.4c-0.9,7.4-2.2-20.9-2.2-23.5c0-5.5-0.9-15.3-1.6-25.3c-0.9-12.9,0-23.8-1.2-35.8
			c-0.5-4.7,2.2-4.1,2.2-1.6c0,4.5,0.9,10.8,0.9,16.2C527.6,361.6,531.4,374.5,531.4,388.8z"/>
		<path class="st3" d="M743.9,377c-2.2-51.6,1.9-65.8,2.4-129.5c0.5-60.8-1.5-124.4-1-186.8c0.1-19.4,0-41.2-0.3-60.7h-6.3
			c0.7,18.2,1.2,39.4,1.2,61.1c0,31.3,0.7,65.4,1,98.9c1.2,23,1.2,49.3-0.1,77.4c-0.8,79.7-3,133.9-1.1,147.3
			c0.1,0.7,0.2,6.1,0.5,14.1c0.8-9.6,1.4-16,1.7-16c0.8,13.3,1.5,36.2,0,62.1c0.6,12.7,1.4,24.3,2.4,31.3
			c7.4,51.9,8.9,128.7,7.3,208.5c-1,49.7-2.4,91.3-6.2,115h5.3l2.1-67c0.3-8.7,3.4-55.5,3.2-111.1
			C755.8,545.3,744.3,385.6,743.9,377z"/>
		<path class="st3" d="M750.2,300.4c0-4.2-3.8-5.2-3,2.8c0.2,2.5,0.7,9.8,1.4,10.9c-5.2,16.5,1.1,73.6,1.1,94.2
			c0,4.6,3.6,67.1,4.8,54.5c1.5-15,2.2-47.1,2.2-63.2c0-24.5-5.2-46.6-5.2-71.5C751.4,319,750.2,308.1,750.2,300.4z M754.5,388.8
			c0,9.4-0.7,19.6-1.6,28.4c-0.7,7.4-1.7-20.9-1.7-23.5c0-5.5-0.8-15.3-1.3-25.3c-0.7-12.9,0-23.8-1-35.8c-0.4-4.7,1.8-4.1,1.8-1.6
			c0,4.5,0.7,10.8,0.7,16.2C751.5,361.6,754.5,374.5,754.5,388.8z"/>
		<path class="st3" d="M681.1,630.7c-0.2-42.6-0.5-75.4-2.3-97.5c-1.8-22.1-4.4-33.6-7.2-33.6c-2.9,0-6.2,11.4-8.7,33.6
			c-2.5,22.1-3.7,54.9-1.6,97.5c2.1,42.6,6.6,87.3,7.3,121.5c0.4,20.9,0.8,37.8,1.4,47.8h4.5c1.7-10,3.8-26.8,5.9-47.8
			C683.9,718.3,681.4,673.3,681.1,630.7z M672.8,773.6c-1.8,0-1.6-17.8-2.8-44.6c-1.3-26.9-5-62.6-6.7-98.9s-1.1-68.4,0.6-88.4
			c1.7-20,4.1-27.9,6.5-15.5c2.5,12.4,4.9,21,6.4,35.3c1.6,14.3,2.1,34.2,2.4,69.2c0.3,34.9,2.6,70.7,1.1,97.6
			C679,755.5,674.6,773.6,672.8,773.6z"/>
		<path class="st3" d="M726.3,110.4c-2.9,0-5.5,10.9-7.2,31.9c-1.8,21-2.1,52.3-2.3,92.7c-0.3,40.5-2.8,83.3,0.7,115.6
			c3.5,32.7,6.8,54.9,8.7,54.9c1.9,0,2.4-22.4,3.1-54.9c0.7-32.5,5.2-75.1,7.3-115.6c2.1-40.5,0.8-71.8-1.6-92.7
			C732.5,121.3,729.2,110.4,726.3,110.4z M734.6,234.6c-1.6,34.5-5.4,68.5-6.7,94c-1.3,25.4-1,42.4-2.8,42.4
			c-1.8,0-6.1-17.3-7.6-43.1c-1.5-25.6,0.8-59.6,1.1-92.9c0.3-33.2,0.8-52.2,2.4-65.8c1.6-13.6,4-21.8,6.4-33.6
			c2.5-11.8,4.9-4.3,6.5,14.8C735.7,169.4,736.2,200.1,734.6,234.6z"/>
		<path class="st3" d="M726.1,157.3c-3.1,0-5.8,49.1-6,78.8c-0.2,29.6-1.1,48.1-1.1,71.5c0,23.4,2.4,41.9,3.6,41.9
			c1.2,0,1.9-18.5,4.1-41.7c2.2-23.4,5.1-41.7,6.3-71.4C734.1,206.7,729.2,157.3,726.1,157.3z M729.1,247.6
			c-1.4,31.4-4.1,62.4-6.1,62.4s-2.4-31-1.6-62.4c0.8-31.4,2.4-57,4.8-57C728.6,190.6,730.5,216.2,729.1,247.6z"/>
		<path class="st3" d="M740.8,160c-0.7-13.3-1.7-25.5-3.2-36.3c-4.5-33.8-9.9-54.6-13.1-54.6c-3.3,0-6.8,20.9-9.6,54.6
			c-2.8,33.6-2.3,80.2-3.1,131.5c-0.7,51.3,3.2,99.2,7.1,137.5c3.8,37.5,4.2,65,5.8,73.9c1.6,8.8,5.6-18.4,7.4-60.6
			c1.8-42.2,4.4-99.5,7.7-150.7c0.4-6,0.7-12,1-17.8c0.2-15.4,0.2-31.7,0.3-48.9C741,179.1,740.9,169.5,740.8,160z M736.8,255.2
			c-2.6,42.1-5.3,83.7-6.1,114.8c-0.8,31.1-2.8,51.7-5.3,51.7c-2.5,0-3.6-20.8-7.5-51.7c-4-31.4-4.3-72.7-3.6-114.8
			c0.8-42.1,0.6-83.2,2.6-113.8c2-30.6,5-50.6,8.4-50.6c3.4,0,7.8,20,10.9,50.6C739.2,171.9,739.5,213.1,736.8,255.2z"/>
		<path class="st3" d="M770.9,575.7c0-106.2,3.6-180.1,1.3-196.1c-4.9-34.5-5.2-71.2-7.8-99c-5.2-56.5-5.4-135.3-4.1-201.2
			C761,49.3,761.8,22,763.1,0h-3l-1,31.5c-0.3,8.7-3.4,55.5-3.2,111.1c0.3,104.8,2.3,79.5,3.7,104.2c1,16.7,1.8,27.1,2,28.1
			c3.7,19.3,5.4,88.9,6.4,112.3c2.2,51.6-1.9,65.8-2.4,129.5c-0.5,60.8,3.9,124.4,3.4,186.8c-0.3,32.7,1.9,72.1,3.1,96.2
			c2,0,0.8,0,2.8,0c-1.2-21.1-2.9-58.2-2.8-96.6C772,662.8,770.9,618,770.9,575.7z"/>
		<path class="st3" d="M782.8,516.7c-0.5-63.7-2.8-118.4-0.6-170c1-23.5,2.7-50.8,6.4-70.1c0.2-1,1-11.4,2-28.1
			c1.4-24.7,3.2-95.8,4-106c4.2-53.3,1.1-70.5-0.8-99.2c-0.7-9.6-1.6-26.4-3-43.4h-5.2c5.4,71.7,5.9,198-1.7,280.7
			c-2.6,27.7-1,24-5.9,58.5c-2.3,16-0.5,130.4-0.5,236.6c0,82.6-4.5,174.9,4.4,224.3c2,0,1.8,0,3.8,0
			C772.9,708.5,783.6,609.4,782.8,516.7z"/>
		<path class="st3" d="M800,800v-67c-2.4-11.2-4.9-23.6-5.6-41.5c-1.9-48.6-2.4-137.3-2.8-185.4c-0.5-73.8,3.7-152.8,6.7-220.5
			c0.6-12.5,1.1-56,1.5-60.1c0.1-0.7,0.1-1.3,0.2-2v-31.8c-1.2,8.5-2.5,17.3-4.1,26.6c-0.4,2.3-3.2,45.8-3.6,57.9
			c-2.6,84.4-6.1,193-5.2,278.5c0.4,36.6,1.3,133.5,2.4,139.4c7.5,39.8,10.1,63.5,7.9,106.1H800z"/>
		<path class="st3" d="M784.6,112.6c0.4-40.5-1.1-79-3.1-112.6h-0.7c2.3,31.8,2.5,71.9,2,112.6c-0.6,44.2-0.4,87.5-1.9,119.7
			c-1.5,32.2-3.7,53.3-6.2,53.3c-2.5,0-5.8-21-8-53.3c-2.3-32.1-2.4-75.4-0.5-119.7c1.8-40.7,3.6-81,4.3-112.6h-2.3
			c-1.1,35.8-2.5,75.7-4.2,112.6c-2.4,53.9-1.7,102.9,1.5,138.2c3.3,35.5,7.2,57.4,9.6,57.4c2.4,0,5-22,7.1-57.4
			C784.4,215.5,784,166.5,784.6,112.6z"/>
		<path class="st3" d="M762.4,575.7c0-106.2,3.6-180.1,1.3-196.1c-0.3-2.4-1.4-69.7-4.5-91.6c-7.4-51.9-8.9-128.7-7.3-208.5
			c0.6-30.2,1.4-57.4,2.7-79.5h-3l-1,31.5c-0.3,8.7-3.4,55.5-3.2,111.1c0.2,76.3,11.7,236.1,12.1,244.6c2.2,51.6-1.9,65.8-2.4,129.5
			c-0.5,60.8,1.5,124.4,1,186.8c-0.3,32.7,0.2,72.1,1.4,96.2h6.9c-1.2-21.1-2.9-58.2-2.8-96.6C763.6,662.8,762.4,618,762.4,575.7z"
			/>
		<path class="st3" d="M716.8,493.9c-0.6-2.9-1.3-26.4-2-38.9c-4.1-67.7-9.8-124.6-9.1-198.4c0.5-48.1,1.9-96.4,4.5-145.1
			c2-37.2,15.2-73.5,15.6-111.4h-5.6c1.1,39.3-12.1,68.3-20.1,99.4c-1.5,5.9,1.9,74,1.4,110.6c-1.2,85.5,1.5,170,5.1,254.4
			c0.5,12.1,1,33.9,1.5,36.2c23.7,101,16.8,200,9.1,299.5h9C722.2,705.4,735.2,584.5,716.8,493.9z"/>
		<path class="st3" d="M706.8,539c-0.6-4.1-1.3-47.5-2-60.1c-4.1-67.8-9.8-146.7-9.1-220.5c0.5-48.1,1.2-136.8,3.8-185.4
			c1.9-34.7,12.8-49,14.3-73h-9.4c-0.8,23.5-4.6,43.3-11.6,70.6c-1.5,5.9-2.8,102.8-3.3,139.4c-1.2,85.5,3.5,194,7,278.4
			c0.5,12.1,4.4,55.6,4.9,57.9c23.7,101,11.4,154.2,3.8,253.7h9C713.8,731.9,732.2,714.2,706.8,539z"/>
		<path class="st3" d="M686.1,651.8c-0.7-53.9-0.3-102.8-3.1-138.2c-2.8-35.4-6.4-57.4-9.6-57.4c-3.2,0-8.7,21.9-13.1,57.4
			c-4.4,35.3-5.4,84.3-2.1,138.2c3.1,49.8,5.5,105.1,7.3,148.2h2.9c-0.5-7.8-0.8-17.1-1.1-27.5c-0.8-32.7-3.5-76.4-6.1-120.7
			c-2.6-44.2-2.4-87.6,0.7-119.7c3.1-32.3,7.6-53.2,10.9-53.2c3.4,0,6.4,21.1,8.4,53.2c2,32.2,1.8,75.4,2.6,119.7
			c0.8,44.3,0.4,87.7-3.6,120.7c-1.2,10.4-2.2,19.7-3,27.5h1.7c0.1-1.2,0.2-2.4,0.3-3.7C682.9,756.2,686.8,705.7,686.1,651.8z"/>
		<path class="st3" d="M694.2,515.9c-1.3-16.7-2.5-27.1-2.7-28.1c-5.1-19.3-7.3-46.6-8.7-70.1c-3-51.6,0.1-106.3,0.8-170
			c0.9-80.8-10-166.5-1.3-247.8H677c-4.4,51.5-0.6,123.1-0.6,188.7c0,106.2-2.4,220.6,0.7,236.6c6.7,34.6,4.6,30.8,8.1,58.5
			c12.4,99.1,9.1,261-2.9,316.2h7.3c4.7-23,7.6-62.1,9.1-78.9c2.7-28.7,6.7-45.8,1.1-99.2C698.6,611.7,696.2,540.7,694.2,515.9z"/>
		<path class="st3" d="M743.1,564.2c0.3,0,0.4-7.2,0.3-16.1c-0.1-8.8-0.5-16-0.8-16c-0.3,0-0.4,7.2-0.2,16
			C742.6,557,742.9,564.2,743.1,564.2z"/>
		<path class="st3" d="M747.8,571.2c0.6-23.9-1.3-44.8-3.3-61.4c-1.8-15.2-1.9-25.5-2.9-25.5c-1,0-2.4,9.7-3.4,25.5
			c-1,15.6-1.7,37.4,0.1,61.4c1.8,24,3.5,46.5,4.2,64.2c0.7,17.7,1.7,30.4,2.3,34.5c0.6,4.1,1.5-8.6,1.8-28.3
			C747.1,621.9,747.2,595.1,747.8,571.2z M744.7,649c-0.8,0-1.5-9.7-2.1-24.2c-0.6-14.5-2-33.9-3.4-53.6c-1.4-19.7-1-38.8-0.3-53.1
			c0.6-14.3,1.6-23.6,2.6-23.6c0.9,0,1.7,9.3,3.4,23.6c1.8,14.3,2.3,33.5,2,53.1c-0.3,19.7-0.3,39.1-0.5,53.6
			C746.1,639.3,745.5,649,744.7,649z"/>
		<path class="st3" d="M725.4,210.2c-0.7,0-1.4,15.4-1.9,34.4c-0.5,18.9-0.8,34.4-0.2,34.4c0.6,0,2.1-15.5,2.7-34.4
			C726.6,225.6,726.1,210.2,725.4,210.2z"/>
		<path class="st3" d="M741.6,515.4c-0.8,0-1.2,15.7-1,30.3c0.2,14.6,2.3,41.9,2.9,41.9c0.6,0,1.7-27.2,1.7-41.8
			C745.1,531.2,742.5,515.4,741.6,515.4z M742.4,529c0.7,0,1.5,9.5,1.5,21.1c0,11.6-0.2,23.1-0.8,23.1c-0.6,0-1.8-11.5-1.9-23.1
			C741,538.4,741.6,529,742.4,529z"/>
		<path class="st3" d="M734.7,460.2c-1.9,18.6-7.4,42.8-6.2,60c3.8,47.9,4.8,92.6,4.7,141.7c-0.2,46.1,3.1,91.2-0.8,138.1
			c1.6,0,3.2,0,4.8,0c2.9-50.5-0.3-136.4,0.6-149.3c1.9-27-4.4-82.2-3.5-140.5c0.3-17.9,5.3-35.8,6.7-53.1c0.3-4.1,0.6-8.2,0.8-12.2
			c-0.8-16.2-1.3-34.1-1.7-46.1C738.7,415.4,736.6,441.8,734.7,460.2z"/>
		<path class="st3" d="M741.4,500.6c-0.7,0-1.5,5-1.9,14.5c-0.4,9.5-1,23.6-0.2,41.9c0.8,18.3,2.9,37.6,3.7,52.3
			c0.8,14.6,1.3,24.8,1.9,24.8c0.6,0,0.9-10.1,1.1-24.8c0.1-14.7,0.6-34,0.8-52.3c0.2-18.3-1-32.3-2.4-41.9
			C742.8,505.6,742.2,500.6,741.4,500.6z M745.8,556.8c-0.1,15.6-0.3,31-0.4,42.5c-0.1,11.5-0.3,19.2-0.8,19.2
			c-0.5,0-1-7.9-1.7-19.5c-0.8-11.7-2.4-27-2.9-42c-0.6-15-0.3-25.3,0.1-32.4c0.3-7.1,0.8-11.2,1.5-13.9c0.7-2.7,1.6,0.9,2.8,9.3
			C745.3,528.2,745.9,541.2,745.8,556.8z"/>
		<path class="st3" d="M344.6,483.8c2.6-27.7,2.9-64.4,7.8-99c2.3-15.9-1.3-89.9-1.3-196.1c0-42.3,1.1-87.1,1.1-127.4
			c0-21.8,0.5-43.1,1.2-61.4h-2.8c-0.8,19.6-1.5,41.5-1.4,61c0.5,62.4-3.9,126-3.4,186.8c0.5,63.7,4.7,78,2.4,129.6
			c-1,23.4-2.7,93-6.4,112.3c-0.2,1-1,11.4-2,28.1c-1.4,24.7-3.4-0.7-3.7,104.2c-0.1,55.5,2.9,102.3,3.2,111l2.1,67h5.3
			c-3.8-23.7-5.2-65.3-6.2-115C339.2,619.1,339.5,540.4,344.6,483.8z"/>
		<path class="st3" d="M339.4,476.5c3.1-21.9,4.2-89.2,4.5-91.6c2.3-15.9-1.3-89.9-1.3-196.1c0-42.3,1.2-87.1,1.1-127.4
			c0-21.8,0.5-43.1,1.2-61.4h-6.3c-0.4,19.6-0.5,41.5-0.3,61c0.5,62.4-1.5,126-1,186.8c0.5,63.7,4.7,78,2.4,129.6
			c-0.4,8.5-11.9,168.3-12.1,244.6c-0.1,55.5,2.9,102.3,3.2,111l2.1,67h5.3c-3.8-23.7-5.2-65.3-6.2-115
			C330.5,605.2,332.1,528.4,339.4,476.5z"/>
		<path class="st3" d="M219.4,300.4c0-4.2-5.1-5.2-4.2,2.8c0.3,2.5,1,9.8,2,10.9c-7.1,16.5,1.5,73.6,1.5,94.2
			c0,4.6,4.9,67.1,6.6,54.5c2-15,2.9-47.1,2.9-63.2c0-24.5-7.1-46.6-7.1-71.5C221.1,319,219.4,308.1,219.4,300.4z M225.3,388.8
			c0,9.4-1,19.6-2.1,28.4c-1,7.4-2.4-20.9-2.4-23.5c0-5.5-1-15.3-1.8-25.3c-0.9-12.9,0-23.8-1.3-35.8c-0.5-4.7,2.4-4.1,2.4-1.6
			c0,4.5,1,10.8,1,16.2C221.1,361.6,225.3,374.5,225.3,388.8z"/>
		<path class="st3" d="M330.4,464.1c0-7.7,1.3-18.5,1.3-27.7c0-24.9,5.2-46.9,5.2-71.4c0-16.1-0.7-48.2-2.2-63.2
			c-1.2-12.6-4.8,49.9-4.8,54.5c0,20.7-6.3,77.7-1.1,94.2c-0.7,1-1.3,8.4-1.4,10.8C326.6,469.3,330.4,468.3,330.4,464.1z
			 M329.2,431.9c0.9-12,0.2-22.9,0.9-35.8c0.5-10,1.3-19.8,1.3-25.3c0-2.7,1-30.9,1.7-23.6c0.8,8.8,1.6,19,1.6,28.4
			c0,14.3-3,27.2-3,41.7c0,5.3-0.7,11.7-0.7,16.2C330.9,436,328.8,436.6,329.2,431.9z"/>
		<path class="st3" d="M354.8,604.5c-0.6,0-0.9,16.2-0.4,36.1c0.5,19.9,1.5,36.1,2,36.1c0.5,0,0.2-16.2-0.1-36.1
			C355.9,620.8,355.4,604.5,354.8,604.5z"/>
		<path class="st3" d="M326.5,517c-0.5-63.7-4.7-78-2.4-129.5c0.4-8.5,11.9-168.3,12.1-244.6c0.1-55.5-2.9-102.4-3.2-111.1l-1-31.8
			h-3c1.4,22.1,2.1,49.4,2.7,79.7c1.6,79.8,0.1,156.6-7.3,208.5c-1,7-1.8,18.6-2.4,31.3c1.5,26,0.8,48.8,0,62.2
			c-0.2,0-0.8-6.4-1.7-16c-0.2,8-0.4,13.5-0.5,14.2c-1.9,13.4,0.3,67.5,1.1,147.2c1.3,28,1.3,54.3,0.1,77.4c-0.3,33.5-1,67.5-1,98.9
			c0,38.5-1.6,75.5-2.8,96.6h6.9c1.2-24.1,1.7-63.5,1.4-96.2C325.1,641.4,327,577.8,326.5,517z"/>
		<path class="st3" d="M320.9,527.1c-0.3-5.9-0.6-11.8-1-17.8c-3.3-51.3-5.8-108.6-7.7-150.7c-1.8-42.3-5.8-69.5-7.4-60.6
			c-1.6,8.8-2,36.4-5.8,73.9c-3.9,38.2-7.8,86.1-7,137.4c0.7,51.3,0.3,97.8,3.1,131.5c2.8,33.7,6.4,54.6,9.6,54.6
			c3.2,0,8.7-20.8,13.1-54.6c1.4-10.8,2.5-23,3.2-36.3c0.1-9.6,0.1-19.1,0.1-28.5C321.2,558.8,321.1,542.5,320.9,527.1z
			 M316.4,623.2c-3.1,30.7-7.6,50.6-10.9,50.6c-3.4,0-6.4-20-8.4-50.6c-2-30.6-1.8-71.8-2.6-113.8c-0.8-42.1-0.4-83.4,3.6-114.8
			c4-30.9,5-51.7,7.5-51.7c2.5,0,4.5,20.6,5.3,51.7c0.8,31.1,3.5,72.7,6.1,114.8C319.7,551.4,319.4,592.6,316.4,623.2z"/>
		<path class="st3" d="M354.3,549c-2.3,0-5.9,51.9-5,83c0.8,31.1,2.9,50.4,4.6,75c1.6,24.4,2.1,43.8,3,43.8c0.9,0,2.6-19.4,2.7-44
			c0-24.6-0.6-43.9-0.8-75.1C358.6,600.6,356.6,549,354.3,549z M356.6,709.5c-1.4,0-3.5-32.6-4.5-65.6c-1-33,0.3-60,2.1-60
			c1.8,0,2.9,26.9,3.5,60C358.3,677,358,709.5,356.6,709.5z"/>
		<path class="st3" d="M380,539c-0.4-4.1-0.9-47.5-1.5-60.1c-2.9-67.8-7.2-146.7-6.7-220.5c0.4-48.1,0.9-136.8,2.8-185.4
			c1.4-34.7,9.4-49,10.5-73h-6.9c-0.6,23.5-3.4,43.2-8.5,70.6c-1.1,5.9-2,102.8-2.4,139.4c-0.9,85.5,2.6,194,5.2,278.4
			c0.4,12.1,3.2,55.6,3.6,57.9c17.4,101,8.4,154.2,2.8,253.7h6.6C385.2,731.9,398.6,714.2,380,539z"/>
		<path class="st3" d="M364.8,651.8c-0.6-53.9-0.2-102.8-2.3-138.2c-2.1-35.4-4.7-57.4-7.1-57.4c-2.4,0-6.4,21.9-9.6,57.4
			c-3.3,35.3-3.9,84.3-1.5,138.2c2.2,49.8,4,105.1,5.3,148.2h2.1c-0.3-7.8-0.6-17.1-0.8-27.5c-0.6-32.7-2.6-76.4-4.5-120.7
			c-1.9-44.2-1.7-87.6,0.5-119.7c2.2-32.3,5.5-53.2,8-53.2c2.5,0,4.7,21.1,6.2,53.2c1.5,32.2,1.3,75.4,1.9,119.7
			c0.6,44.3,0.3,87.7-2.6,120.7c-0.9,10.4-1.6,19.7-2.2,27.5h1.2c0.1-1.2,0.2-2.4,0.3-3.7C362.4,756.2,365.3,705.7,364.8,651.8z"/>
		<path class="st3" d="M361.2,630.7c-0.2-42.6-0.4-75.4-1.7-97.5c-1.3-22.1-3.2-33.6-5.3-33.6c-2.1,0-4.5,11.4-6.4,33.6
			c-1.8,22.1-2.7,54.9-1.2,97.5c1.5,42.6,4.8,87.3,5.4,121.5c0.3,20.9,0.6,37.8,1.1,47.8h3.3c1.3-10,2.8-26.8,4.3-47.8
			C363.2,718.3,361.3,673.3,361.2,630.7z M355.1,773.6c-1.3,0-1.2-17.8-2.1-44.6c-0.9-26.9-3.7-62.6-4.9-98.9
			c-1.2-36.2-0.8-68.4,0.4-88.4c1.2-20,3-27.9,4.8-15.5c1.8,12.4,3.6,21,4.8,35.3c1.2,14.3,1.5,34.2,1.8,69.2
			c0.2,34.9,1.9,70.7,0.8,97.6C359.5,755.5,356.4,773.6,355.1,773.6z"/>
		<path class="st3" d="M370.7,515.9c-1-16.7-1.8-27.1-2-28.1c-3.7-19.3-5.4-46.6-6.4-70.1c-2.2-51.6,0.1-106.3,0.6-170
			c0.7-80.8-7.3-166.5-1-247.7h-3.9c-3.3,51.5-0.5,123.1-0.5,188.7c0,106.2-1.8,220.6,0.5,236.6c4.9,34.6,3.4,30.8,5.9,58.5
			c9.1,99.1,6.6,261-2.1,316.2h5.3c3.5-23,5.5-62.1,6.7-78.9c2-28.7,5-45.8,0.8-99.2C374,611.7,372.2,540.7,370.7,515.9z"/>
		<path class="st3" d="M266.3,112.6c0.6-40.5-1.5-79-4.2-112.6h-0.9c3.2,31.8,3.4,71.9,2.7,112.6c-0.8,44.2-0.6,87.5-2.6,119.7
			c-2,32.2-5,53.3-8.4,53.3c-3.4,0-7.8-21-10.9-53.3c-3-32.1-3.3-75.4-0.7-119.7c2.4-40.7,4.9-81,5.9-112.6h-3.1
			c-1.6,35.8-3.5,75.7-5.7,112.6c-3.3,53.9-2.4,102.9,2.1,138.2c4.5,35.5,9.9,57.4,13.1,57.4c3.2,0,6.8-22,9.6-57.4
			C266,215.5,265.5,166.5,266.3,112.6z"/>
		<path class="st3" d="M275.9,506.1c-0.7-73.8,5-152.8,9.1-220.5c0.7-12.5,1.4-56,2-60.1c20.5-141.1,12.5-180,8.9-225.4h-7.4
			c7.1,78.1,13.9,129.9-6.8,218.2c-0.6,2.3-4.4,45.8-4.9,57.9c-3.5,84.4-8.3,193-7,278.5c0.5,36.6,1.8,133.5,3.3,139.4
			c10.2,39.8,13.7,63.5,10.7,106.1h6.3c12.8-51.2-7.7-59.8-10.4-108.5C277.1,642.8,276.4,554.1,275.9,506.1z"/>
		<path class="st3" d="M263.8,516.7c-0.7-63.7-3.9-118.4-0.8-170c1.4-23.5,3.6-50.8,8.7-70.1c0.3-1,1.4-11.4,2.7-28.1
			c2-24.7,4.4-95.8,5.5-106c5.7-53.3,1.6-70.5-1.1-99.2c-0.9-9.6-2.2-26.4-4-43.4h-7.2c7.4,71.7,8,198-2.3,280.7
			c-3.5,27.7-1.4,24-8.1,58.5c-3.1,16-0.7,130.4-0.7,236.6c0,82.6-6.1,174.9,5.9,224.3c2.7,0,2.5,0,5.2,0
			C250.3,708.5,264.8,609.4,263.8,516.7z"/>
		<path class="st3" d="M309.4,413.8c-0.7-32.4-1.2-54.9-3.1-54.9c-1.9,0-5.2,22.2-8.7,54.9c-3.5,32.3-0.9,75.1-0.7,115.6
			c0.2,40.5,0.5,71.8,2.3,92.8c1.8,21,4.4,31.9,7.2,31.9c2.9,0,6.2-10.9,8.7-31.9c2.5-21,3.8-52.3,1.6-92.8
			C314.7,488.9,310.2,446.4,309.4,413.8z M314.2,614c-1.7,19-4.1,26.5-6.5,14.8c-2.5-11.8-4.9-20-6.5-33.6
			c-1.6-13.6-2.1-32.6-2.4-65.8c-0.3-33.2-2.6-67.3-1.1-92.9c1.5-25.8,5.8-43,7.6-43s1.6,16.9,2.8,42.4c1.3,25.6,5,59.6,6.7,94
			C316.4,564.4,315.9,595,314.2,614z"/>
		<path class="st3" d="M236.1,575.7c0-106.2,4.9-180.1,1.8-196.1c-0.5-2.4-1.9-69.7-6.2-91.6c-10-51.9-12.2-128.7-9.9-208.5
			c0.8-30.2,1.9-57.4,3.7-79.5h-4.1L220,31.5c-0.4,8.7-4.6,55.5-4.4,111.1c0.3,76.3,16,236.1,16.5,244.6c3,51.6-2.6,65.8-3.3,129.5
			c-0.7,60.8,2,124.4,1.3,186.8c-0.4,32.7,0.3,72.1,1.9,96.2h9.4c-1.7-21.1-3.9-58.2-3.9-96.6C237.6,662.8,236,618,236.1,575.7z"/>
		<path class="st3" d="M247.6,575.7c0-106.2,4.9-180.1,1.8-196.1c-6.7-34.5-7.1-71.2-10.6-99c-7.1-56.5-7.4-135.3-5.5-201.2
			C234.1,49.3,235.2,22,237,0h-4.1l-1.4,31.5c-0.4,8.7-4.6,55.5-4.4,111.1c0.4,104.8,3.1,79.5,5.1,104.2c1.3,16.7,2.4,27.1,2.7,28.1
			c5.1,19.3,7.3,88.9,8.7,112.3c3,51.6-2.6,65.8-3.3,129.5c-0.7,60.8,5.3,124.4,4.7,186.8c-0.3,32.7,2.6,72.1,4.2,96.2
			c2.7,0,1.1,0,3.8,0c-1.7-21.1-3.9-58.2-3.8-96.6C249.2,662.8,247.6,618,247.6,575.7z"/>
		<path class="st3" d="M303.4,485.6c-0.6,0-0.3,15.4,0.2,34.4c0.5,19,1.2,34.4,1.9,34.4s1.2-15.4,0.6-34.4
			C305.5,501,304.1,485.6,303.4,485.6z"/>
		<path class="st3" d="M306.8,456.8c-2.2-23.3-2.9-41.7-4.1-41.7c-1.2,0-3.6,18.5-3.6,41.9c0,23.4,0.9,41.8,1.1,71.5
			c0.2,29.6,2.8,78.7,6,78.7c3.2,0,8-49.3,6.9-78.9C311.9,498.5,309,480.2,306.8,456.8z M306.4,573.9c-2.4,0-4-25.6-4.8-57.1
			c-0.8-31.4-0.4-62.4,1.5-62.4c2,0,4.7,31,6.1,62.4C310.6,548.3,308.8,573.9,306.4,573.9z"/>
		<path class="st3" d="M285.9,508c-0.7-73.9,5-130.7,9.1-198.4c0.7-12.6,1.4-36,2-39C313.1,191,305.1,88,305.7,0h-5.6
			c6.2,87.6,9.1,175-11.8,263.9c-0.5,2.3-1,24.1-1.5,36.2c-3.5,84.4-6.3,169-5.1,254.4c0.5,36.6-2.9,104.7-1.4,110.5
			c10.2,39.8,29,76,15.4,134.9h6.3c12.8-51.2-9.1-98.3-11.7-146.9C287.8,604.4,286.4,556.1,285.9,508z"/>
		<path class="st3" d="M321.1,307.5c-1.4-17.3-6.4-35.2-6.7-53.1c-0.9-58.3,5.5-113.6,3.5-140.6c-0.7-10.2,1.2-65.9,0.5-113.8h-4.2
			c0.7,34.4-1.1,68.2-0.9,102.6c0.2,49.1-0.9,93.8-4.7,141.7c-1.3,17.2,4.2,41.4,6.2,60c1.9,18.5,4,44.8,5.5,61.5
			c0.3-12.1,0.9-30,1.7-46.2C321.8,315.6,321.5,311.6,321.1,307.5z"/>
		<path class="st3" d="M437,483.8c3.2-27.7,3.5-64.4,9.6-99c2.8-15.9-1.6-89.9-1.6-196.1c0-42.3,1.4-87.1,1.4-127.4
			c0-21.8,0.6-43.1,1.5-61.4h-3.5c-1,19.6-1.9,41.5-1.7,61c0.6,62.4-4.9,126-4.3,186.8c0.6,63.7,5.8,78,3,129.6
			c-1.3,23.4-3.3,93-7.9,112.3c-0.2,1-1.3,11.4-2.5,28.1c-1.8,24.7-4.3-0.7-4.6,104.2c-0.2,55.5,3.7,102.3,4,111l2.7,67h6.6
			c-4.7-23.7-6.4-65.3-7.7-115C430.2,619.1,430.5,540.4,437,483.8z"/>
		<path class="st3" d="M480.9,539c-0.6-4.1-1.2-47.5-1.8-60.1c-3.7-67.8-8.9-146.7-8.3-220.5c0.4-48.1,1.1-136.8,3.5-185.4
			c1.7-34.7,11.7-49,13.1-73h-8.6c-0.7,23.5-4.2,43.2-10.6,70.6c-1.4,5.9-2.5,102.8-3,139.4c-1.1,85.5,3.2,194,6.4,278.4
			c0.5,12.1,4,55.6,4.5,57.9c21.6,101,10.4,154.2,3.5,253.7h8.2C487.3,731.9,504.1,714.2,480.9,539z"/>
		<path class="st3" d="M490,493.9c-0.6-2.9-1.2-26.4-1.8-38.9c-3.7-67.7-9-124.6-8.3-198.4c0.4-48.1,1.7-96.4,4.1-145.1
			c1.8-37.2,13.9-73.5,14.3-111.4h-5.1c1,39.3-11,68.3-18.3,99.4c-1.4,5.9,1.7,74,1.3,110.6c-1.1,85.5,1.4,170,4.6,254.4
			c0.5,12.1,0.9,33.9,1.4,36.2c21.6,101,15.3,200,8.3,299.5h8.2C495,705.4,506.8,584.5,490,493.9z"/>
		<path class="st3" d="M462,651.8c-0.7-53.9-0.3-102.8-2.8-138.2c-2.5-35.4-5.8-57.4-8.8-57.4c-3,0-7.9,21.9-12,57.4
			c-4.1,35.3-4.9,84.3-1.9,138.2c2.8,49.8,5,105.1,6.6,148.2h2.7c-0.4-7.8-0.8-17.1-1-27.5c-0.7-32.7-3.2-76.4-5.6-120.7
			c-2.4-44.2-2.2-87.6,0.6-119.7c2.8-32.3,6.9-53.2,9.9-53.2c3.1,0,5.8,21.1,7.7,53.2c1.8,32.2,1.7,75.4,2.4,119.7
			c0.7,44.3,0.4,87.7-3.3,120.7c-1.1,10.4-2,19.7-2.8,27.5h1.5c0.1-1.2,0.2-2.4,0.3-3.7C459.1,756.2,462.7,705.7,462,651.8z"/>
		<path class="st3" d="M469.4,515.9c-1.2-16.7-2.2-27.1-2.5-28.1c-4.6-19.3-6.7-46.6-7.9-70.1c-2.8-51.6,0.1-106.3,0.8-170
			c0.8-80.8-9.1-166.5-1.2-247.7h-4.9c-4,51.5-0.5,123.1-0.6,188.7c0,106.2-2.2,220.6,0.6,236.6c6.1,34.6,4.2,30.8,7.4,58.5
			c11.3,99.1,8.3,261-2.7,316.2h6.6c4.3-23,6.9-62.1,8.3-78.9c2.4-28.7,6.2-45.8,1-99.2C473.4,611.7,471.2,540.7,469.4,515.9z"/>
		<path class="st3" d="M495.9,278.9c0.6,0,1.9-15.5,2.5-34.4c0.6-18.9,0.2-34.4-0.5-34.4c-0.7,0-1.3,15.4-1.8,34.4
			C495.6,263.5,495.3,278.9,495.9,278.9z"/>
		<path class="st3" d="M457.5,630.7c-0.2-42.6-0.5-75.4-2.1-97.5c-1.6-22.1-4-33.6-6.6-33.6c-2.6,0-5.6,11.4-7.9,33.6
			c-2.2,22.1-3.4,54.9-1.5,97.5c1.9,42.6,6,87.3,6.7,121.5c0.4,20.9,0.7,37.8,1.3,47.8h4.1c1.5-10,3.4-26.8,5.4-47.8
			C460,718.3,457.7,673.3,457.5,630.7z M449.9,773.6c-1.6,0-1.4-17.8-2.6-44.6c-1.1-26.9-4.6-62.6-6.1-98.9
			c-1.5-36.2-1-68.4,0.5-88.4c1.5-20,3.7-27.9,6-15.5c2.2,12.4,4.4,21,5.9,35.3c1.5,14.3,1.9,34.2,2.2,69.2
			c0.3,34.9,2.4,70.7,1.1,97.6C455.5,755.5,451.6,773.6,449.9,773.6z"/>
		<path class="st3" d="M517.3,564.2c0.3,0,0.5-7.2,0.4-16.1c-0.1-8.8-0.6-16-0.9-16c-0.4,0-0.4,7.2-0.3,16
			C516.6,557,516.9,564.2,517.3,564.2z"/>
		<path class="st3" d="M492,307.6c0,23.4,2.2,41.9,3.3,41.9c1.1,0,1.7-18.5,3.7-41.7c2-23.4,4.6-41.7,5.7-71.4
			c1.1-29.6-3.4-79-6.2-79c-2.9,0-5.3,49.1-5.5,78.8C492.8,265.7,492,284.2,492,307.6z M494.3,247.6c0.7-31.4,2.2-57,4.4-57
			c2.2,0,3.9,25.6,2.6,57c-1.3,31.4-3.8,62.4-5.6,62.4C493.9,310,493.5,279.1,494.3,247.6z"/>
		<path class="st3" d="M497.1,69.1c-3,0-6.2,20.9-8.8,54.6c-2.5,33.6-2.1,80.2-2.8,131.5c-0.7,51.3,2.9,99.2,6.4,137.5
			c3.5,37.5,3.8,65,5.3,73.9c1.5,8.8,5.1-18.4,6.7-60.6c1.7-42.2,4-99.5,7-150.7c3-51.3,2.2-97.9-1.9-131.5
			C505,89.9,500.1,69.1,497.1,69.1z M507.7,141.3c2.8,30.5,3,71.8,0.6,113.8c-2.4,42.1-4.8,83.7-5.6,114.8
			c-0.7,31.1-2.5,51.7-4.9,51.7c-2.3,0-3.3-20.8-6.9-51.7c-3.7-31.4-4-72.7-3.3-114.8c0.7-42.1,0.5-83.2,2.4-113.8
			c1.8-30.6,4.6-50.6,7.7-50.6C500.8,90.7,504.9,110.6,507.7,141.3z"/>
		<path class="st3" d="M492.1,142.3c-1.6,21-1.9,52.3-2.1,92.7c-0.2,40.5-2.5,83.3,0.6,115.6c3.2,32.7,6.2,54.9,7.9,54.9
			c1.8,0,2.2-22.4,2.9-54.9c0.7-32.5,4.8-75.1,6.7-115.6c2-40.5,0.8-71.8-1.5-92.7c-2.3-21-5.3-31.9-7.9-31.9
			C496.1,110.4,493.7,121.3,492.1,142.3z M499.8,135.7c2.2-11.8,4.4-4.3,5.9,14.8c1.5,19,2,49.6,0.5,84.1c-1.5,34.5-4.9,68.5-6.1,94
			c-1.1,25.4-0.9,42.4-2.6,42.4c-1.7,0-5.6-17.3-6.9-43.1c-1.4-25.6,0.7-59.6,1-92.9c0.3-33.2,0.7-52.2,2.2-65.8
			C495.3,155.7,497.5,147.5,499.8,135.7z"/>
		<path class="st3" d="M394.3,110.4c-2.1,0-4,10.9-5.3,31.9c-1.3,21-1.5,52.3-1.7,92.7c-0.2,40.5-2.1,83.3,0.5,115.6
			c2.6,32.7,5,54.9,6.4,54.9s1.8-22.4,2.3-54.9c0.5-32.5,3.8-75.1,5.4-115.6c1.5-40.5,0.6-71.8-1.2-92.7
			C398.8,121.3,396.4,110.4,394.3,110.4z M400.4,234.6c-1.2,34.5-4,68.5-4.9,94c-0.9,25.4-0.8,42.4-2.1,42.4
			c-1.3,0-4.5-17.3-5.6-43.1c-1.1-25.6,0.6-59.6,0.8-92.9c0.2-33.2,0.6-52.2,1.8-65.8c1.2-13.6,2.9-21.8,4.8-33.6
			c1.8-11.8,3.6-4.3,4.8,14.8C401.2,169.4,401.6,200.1,400.4,234.6z"/>
		<path class="st3" d="M414.4,517c-0.6-63.7-5.8-78-3-129.5c0.4-8.5,14.8-168.3,15-244.6c0.2-55.5-3.6-102.4-4-111.1L421.2,0h-3.8
			c1.7,22.1,2.6,49.4,3.4,79.7c2,79.8,0.1,156.6-9.1,208.5c-3.9,21.9-5.2,89.2-5.6,91.6c-2.8,16,1.6,89.9,1.6,196.1
			c0,42.3-1.4,87.1-1.4,127.4c0,38.5-2,75.5-3.5,96.6h8.5c1.5-24.1,2.1-63.5,1.8-96.2C412.6,641.4,415,577.8,414.4,517z"/>
		<path class="st3" d="M402.6,123.7c-3.3-33.8-7.2-54.6-9.6-54.6c-2.4,0-5,20.9-7.1,54.6c-2.1,33.6-1.7,80.2-2.3,131.5
			c-0.6,51.3,2.4,99.2,5.2,137.5c2.8,37.5,3.1,65,4.2,73.9c1.2,8.8,4.1-18.4,5.5-60.6c1.4-42.2,3.2-99.5,5.6-150.7
			C406.6,203.9,405.9,157.2,402.6,123.7z M402,255.2c-1.9,42.1-3.9,83.7-4.5,114.8c-0.6,31.1-2.1,51.7-3.9,51.7
			c-1.8,0-2.6-20.8-5.5-51.7c-3-31.4-3.2-72.7-2.6-114.8c0.6-42.1,0.4-83.2,1.9-113.8c1.5-30.6,3.7-50.6,6.2-50.6
			c2.5,0,5.7,20,8,50.6C403.8,171.9,404,213.1,402,255.2z"/>
		<path class="st3" d="M387.3,493.9c-0.4-2.9-0.9-26.4-1.5-38.9c-3-67.7-7.2-124.6-6.7-198.4c0.3-48.1,1.4-96.4,3.3-145.1
			c1.5-37.2,11.2-73.5,11.5-111.4h-4.1c0.8,39.3-8.9,68.3-14.7,99.4c-1.1,5.9,1.4,74,1,110.6c-0.9,85.5,1.1,170,3.7,254.4
			c0.4,12.1,0.7,33.9,1.1,36.2c17.4,101,12.3,200,6.7,299.5h6.6C391.3,705.4,400.8,584.5,387.3,493.9z"/>
		<path class="st3" d="M449,549c-2.9,0-7.3,51.9-6.3,83c1.1,31.1,3.7,50.4,5.7,75c2,24.4,2.6,43.8,3.7,43.8s3.2-19.4,3.3-44
			c0-24.6-0.8-43.9-1-75.1C454.3,600.6,451.9,549,449,549z M451.8,709.5c-1.8,0-4.3-32.6-5.6-65.6c-1.2-33,0.4-60,2.6-60
			c2.2,0,3.6,26.9,4.4,60C454,677,453.6,709.5,451.8,709.5z"/>
		<path class="st3" d="M394.1,157.3c-2.3,0-4.2,49.1-4.4,78.8c-0.2,29.6-0.8,48.1-0.8,71.5c0,23.4,1.8,41.9,2.7,41.9
			c0.9,0,1.4-18.5,3-41.7c1.6-23.4,3.7-41.7,4.6-71.4C400,206.7,396.4,157.3,394.1,157.3z M396.3,247.6c-1,31.4-3,62.4-4.5,62.4
			c-1.5,0-1.7-31-1.1-62.4c0.6-31.4,1.7-57,3.5-57C396,190.6,397.4,216.2,396.3,247.6z"/>
		<path class="st3" d="M393.6,210.2c-0.5,0-1,15.4-1.4,34.4c-0.4,18.9-0.6,34.4-0.1,34.4s1.5-15.5,2-34.4
			C394.5,225.6,394.2,210.2,393.6,210.2z"/>
		<path class="st3" d="M515.3,515.4c-1,0-1.5,15.7-1.3,30.3c0.2,14.6,2.8,41.9,3.5,41.9c0.8,0,2.1-27.2,2.1-41.8
			C519.7,531.2,516.4,515.4,515.3,515.4z M516.3,529c0.9,0,1.9,9.5,1.9,21.1c0,11.6-0.3,23.1-1,23.1c-0.7,0-2.2-11.5-2.4-23.1
			C514.6,538.4,515.3,529,516.3,529z"/>
		<path class="st3" d="M419.2,464.1c0-7.7,1.6-18.5,1.6-27.7c0-24.9,6.4-46.9,6.4-71.4c0-16.1-0.9-48.2-2.7-63.2
			c-1.5-12.6-6,49.9-6,54.5c0,20.7-7.8,77.7-1.3,94.2c-0.9,1-1.5,8.4-1.8,10.8C414.5,469.3,419.2,468.3,419.2,464.1z M417.7,431.9
			c1.1-12,0.3-22.9,1.2-35.8c0.7-10,1.6-19.8,1.6-25.3c0-2.7,1.3-30.9,2.2-23.6c1,8.8,1.9,19,1.9,28.4c0,14.3-3.8,27.2-3.8,41.7
			c0,5.3-0.9,11.7-0.9,16.2C419.9,436,417.3,436.6,417.7,431.9z"/>
		<path class="st3" d="M449.6,604.5c-0.7,0-1.1,16.2-0.5,36.1c0.6,19.9,1.9,36.1,2.4,36.1c0.6,0,0.3-16.2-0.2-36.1
			C450.9,620.8,450.3,604.5,449.6,604.5z"/>
		<path class="st3" d="M430.4,476.5c3.9-21.9,5.2-89.2,5.6-91.6c2.8-15.9-1.6-89.9-1.7-196.1c0-42.3,1.4-87.1,1.4-127.4
			c0-21.8,0.6-43.1,1.4-61.4h-7.9c-0.5,19.6-0.6,41.5-0.4,61c0.6,62.4-1.8,126-1.2,186.8c0.6,63.7,5.8,78,3,129.6
			c-0.4,8.5-14.8,168.3-15,244.6c-0.2,55.5,3.7,102.3,4,111l2.7,67h6.6c-4.7-23.7-6.4-65.3-7.7-115
			C419.3,605.2,421.3,528.4,430.4,476.5z"/>
	</g>
</g>
<g id="Designed_by_Freepik">
	<g class="st0">
		<g class="st4">
			<path class="st5" d="M286,774.3V774c-0.3,0.4-0.7,0.7-1,1c-0.3,0.3-0.7,0.4-1.1,0.6c-0.4,0.1-0.8,0.2-1.3,0.2
				c-0.6,0-1.2-0.1-1.7-0.4c-0.5-0.3-1-0.6-1.4-1.1c-0.4-0.5-0.7-1.1-0.9-1.7c-0.2-0.7-0.3-1.4-0.3-2.1c0-1.6,0.4-2.9,1.2-3.8
				c0.8-0.9,1.8-1.4,3.1-1.4c0.7,0,1.4,0.1,1.9,0.4c0.5,0.3,1,0.7,1.5,1.2V763c0-0.5,0.1-0.9,0.3-1.2c0.2-0.3,0.5-0.4,0.9-0.4
				c0.4,0,0.7,0.1,0.9,0.4c0.2,0.3,0.3,0.6,0.3,1.1v11.4c0,0.5-0.1,0.9-0.3,1.1c-0.2,0.2-0.5,0.4-0.9,0.4c-0.4,0-0.6-0.1-0.9-0.4
				C286.1,775.1,286,774.8,286,774.3z M280.9,770.5c0,0.7,0.1,1.3,0.3,1.8c0.2,0.5,0.5,0.9,0.9,1.1c0.4,0.3,0.8,0.4,1.2,0.4
				c0.5,0,0.9-0.1,1.2-0.4c0.4-0.2,0.7-0.6,0.9-1.1c0.2-0.5,0.3-1.1,0.3-1.8c0-0.7-0.1-1.3-0.3-1.8c-0.2-0.5-0.5-0.9-0.9-1.1
				c-0.4-0.3-0.8-0.4-1.3-0.4c-0.5,0-0.9,0.1-1.3,0.4c-0.4,0.3-0.7,0.7-0.9,1.2C281,769.2,280.9,769.8,280.9,770.5z"/>
			<path class="st5" d="M297.5,771.1h-5.1c0,0.6,0.1,1.1,0.4,1.6c0.2,0.4,0.5,0.8,0.9,1c0.4,0.2,0.8,0.3,1.3,0.3
				c0.3,0,0.6,0,0.9-0.1c0.3-0.1,0.5-0.2,0.7-0.3c0.2-0.2,0.5-0.3,0.7-0.5c0.2-0.2,0.5-0.4,0.8-0.7c0.1-0.1,0.3-0.2,0.6-0.2
				c0.3,0,0.5,0.1,0.6,0.2c0.2,0.1,0.2,0.3,0.2,0.6c0,0.2-0.1,0.5-0.3,0.8c-0.2,0.3-0.5,0.6-0.8,0.9c-0.4,0.3-0.8,0.5-1.4,0.7
				c-0.6,0.2-1.2,0.3-1.9,0.3c-1.7,0-3-0.5-3.9-1.4c-0.9-0.9-1.4-2.2-1.4-3.9c0-0.8,0.1-1.5,0.3-2.1c0.2-0.7,0.6-1.2,1-1.7
				c0.4-0.5,1-0.8,1.6-1.1c0.6-0.3,1.3-0.4,2.1-0.4c1,0,1.9,0.2,2.6,0.6c0.7,0.4,1.3,1,1.6,1.7c0.4,0.7,0.5,1.4,0.5,2.1
				c0,0.7-0.2,1.1-0.6,1.3C298.7,771,298.1,771.1,297.5,771.1z M292.4,769.7h4.7c-0.1-0.9-0.3-1.6-0.7-2c-0.4-0.4-1-0.7-1.6-0.7
				c-0.6,0-1.2,0.2-1.6,0.7C292.7,768.1,292.5,768.8,292.4,769.7z"/>
			<path class="st5" d="M309.3,772.4c0,0.7-0.2,1.3-0.5,1.8c-0.3,0.5-0.9,0.9-1.5,1.2c-0.7,0.3-1.5,0.4-2.5,0.4
				c-0.9,0-1.7-0.1-2.4-0.4c-0.7-0.3-1.2-0.6-1.5-1.1c-0.3-0.4-0.5-0.9-0.5-1.3c0-0.3,0.1-0.5,0.3-0.7c0.2-0.2,0.5-0.3,0.8-0.3
				c0.3,0,0.5,0.1,0.6,0.2s0.3,0.3,0.4,0.6c0.3,0.5,0.6,0.8,1,1c0.4,0.2,0.9,0.3,1.5,0.3c0.5,0,0.9-0.1,1.3-0.3
				c0.3-0.2,0.5-0.5,0.5-0.8c0-0.5-0.2-0.8-0.5-1c-0.3-0.2-0.9-0.4-1.7-0.6c-0.9-0.2-1.6-0.5-2.2-0.7c-0.6-0.2-1-0.6-1.3-1
				c-0.3-0.4-0.5-0.9-0.5-1.5c0-0.5,0.2-1,0.5-1.5c0.3-0.5,0.8-0.8,1.4-1.1c0.6-0.3,1.3-0.4,2.2-0.4c0.7,0,1.3,0.1,1.8,0.2
				c0.5,0.1,1,0.3,1.3,0.6c0.4,0.2,0.6,0.5,0.8,0.8c0.2,0.3,0.3,0.6,0.3,0.8c0,0.3-0.1,0.5-0.3,0.7c-0.2,0.2-0.5,0.3-0.9,0.3
				c-0.3,0-0.5-0.1-0.7-0.2c-0.2-0.2-0.4-0.4-0.6-0.7c-0.2-0.3-0.4-0.5-0.7-0.6c-0.3-0.2-0.6-0.2-1.1-0.2c-0.5,0-0.9,0.1-1.2,0.3
				c-0.3,0.2-0.5,0.4-0.5,0.7c0,0.3,0.1,0.5,0.3,0.7c0.2,0.2,0.5,0.3,0.9,0.4c0.4,0.1,0.9,0.3,1.6,0.4c0.8,0.2,1.5,0.4,2,0.7
				c0.5,0.3,0.9,0.6,1.2,1C309.1,771.5,309.3,771.9,309.3,772.4z"/>
			<path class="st5" d="M311.9,764c-0.4,0-0.7-0.1-0.9-0.3c-0.3-0.2-0.4-0.5-0.4-0.9c0-0.4,0.1-0.7,0.4-0.9c0.3-0.2,0.6-0.4,0.9-0.4
				c0.3,0,0.6,0.1,0.9,0.3c0.3,0.2,0.4,0.5,0.4,0.9c0,0.4-0.1,0.7-0.4,0.9C312.6,763.9,312.3,764,311.9,764z M313.2,766.7v7.5
				c0,0.5-0.1,0.9-0.4,1.2c-0.2,0.3-0.6,0.4-0.9,0.4c-0.4,0-0.7-0.1-0.9-0.4c-0.2-0.3-0.4-0.7-0.4-1.2v-7.4c0-0.5,0.1-0.9,0.4-1.2
				c0.2-0.3,0.5-0.4,0.9-0.4c0.4,0,0.7,0.1,0.9,0.4C313.1,765.9,313.2,766.2,313.2,766.7z"/>
			<path class="st5" d="M324.6,767.1v7.5c0,0.9-0.1,1.6-0.3,2.2c-0.2,0.6-0.5,1.1-0.9,1.5c-0.4,0.4-0.9,0.7-1.6,0.9
				c-0.7,0.2-1.5,0.3-2.4,0.3c-0.9,0-1.7-0.1-2.4-0.4c-0.7-0.3-1.2-0.6-1.6-1c-0.4-0.4-0.6-0.8-0.6-1.2c0-0.3,0.1-0.6,0.3-0.8
				c0.2-0.2,0.5-0.3,0.8-0.3c0.4,0,0.7,0.2,1,0.5c0.1,0.2,0.3,0.3,0.4,0.5c0.1,0.2,0.3,0.3,0.5,0.4c0.2,0.1,0.4,0.2,0.7,0.3
				c0.3,0.1,0.5,0.1,0.9,0.1c0.7,0,1.2-0.1,1.6-0.3c0.4-0.2,0.6-0.4,0.8-0.8c0.1-0.3,0.2-0.7,0.3-1.1c0-0.4,0-1,0.1-1.8
				c-0.4,0.6-0.9,1-1.4,1.3c-0.5,0.3-1.1,0.4-1.9,0.4c-0.9,0-1.6-0.2-2.3-0.7c-0.6-0.4-1.1-1.1-1.5-1.9c-0.3-0.8-0.5-1.7-0.5-2.8
				c0-0.8,0.1-1.5,0.3-2.1c0.2-0.6,0.5-1.2,0.9-1.6c0.4-0.4,0.8-0.8,1.4-1c0.5-0.2,1.1-0.3,1.7-0.3c0.7,0,1.4,0.1,1.9,0.4
				c0.5,0.3,1,0.7,1.5,1.3v-0.4c0-0.4,0.1-0.8,0.3-1c0.2-0.2,0.5-0.4,0.9-0.4c0.5,0,0.8,0.2,1,0.5
				C324.5,766,324.6,766.5,324.6,767.1z M317,770.4c0,1.1,0.2,1.8,0.7,2.4c0.5,0.5,1.1,0.8,1.8,0.8c0.4,0,0.8-0.1,1.2-0.3
				c0.4-0.2,0.7-0.6,0.9-1c0.2-0.5,0.4-1,0.4-1.7c0-1.1-0.2-1.9-0.7-2.5c-0.5-0.6-1.1-0.9-1.8-0.9c-0.7,0-1.3,0.3-1.8,0.8
				C317.3,768.6,317,769.4,317,770.4z"/>
			<path class="st5" d="M328.7,766.7v0.3c0.5-0.6,1-1,1.5-1.3c0.5-0.3,1.2-0.4,1.9-0.4c0.7,0,1.3,0.2,1.8,0.4
				c0.5,0.3,0.9,0.7,1.2,1.3c0.2,0.3,0.3,0.7,0.3,1c0.1,0.4,0.1,0.8,0.1,1.4v4.8c0,0.5-0.1,0.9-0.4,1.2c-0.2,0.3-0.5,0.4-0.9,0.4
				c-0.4,0-0.7-0.1-0.9-0.4c-0.2-0.3-0.4-0.7-0.4-1.2v-4.3c0-0.9-0.1-1.5-0.4-2c-0.2-0.5-0.7-0.7-1.4-0.7c-0.5,0-0.9,0.1-1.3,0.4
				c-0.4,0.3-0.7,0.7-0.8,1.1c-0.1,0.4-0.2,1.1-0.2,2.2v3.2c0,0.5-0.1,0.9-0.4,1.2c-0.2,0.3-0.6,0.4-0.9,0.4c-0.4,0-0.7-0.1-0.9-0.4
				c-0.2-0.3-0.4-0.7-0.4-1.2v-7.5c0-0.5,0.1-0.9,0.3-1.1c0.2-0.2,0.5-0.4,0.9-0.4c0.2,0,0.4,0.1,0.6,0.2c0.2,0.1,0.3,0.3,0.4,0.5
				C328.6,766.1,328.7,766.3,328.7,766.7z"/>
			<path class="st5" d="M344.5,771.1h-5.1c0,0.6,0.1,1.1,0.4,1.6c0.2,0.4,0.5,0.8,0.9,1c0.4,0.2,0.8,0.3,1.3,0.3
				c0.3,0,0.6,0,0.9-0.1c0.3-0.1,0.5-0.2,0.7-0.3c0.2-0.2,0.5-0.3,0.7-0.5c0.2-0.2,0.5-0.4,0.8-0.7c0.1-0.1,0.3-0.2,0.6-0.2
				c0.3,0,0.5,0.1,0.6,0.2c0.2,0.1,0.2,0.3,0.2,0.6c0,0.2-0.1,0.5-0.3,0.8c-0.2,0.3-0.5,0.6-0.8,0.9c-0.4,0.3-0.8,0.5-1.4,0.7
				c-0.6,0.2-1.2,0.3-1.9,0.3c-1.7,0-3-0.5-3.9-1.4c-0.9-0.9-1.4-2.2-1.4-3.9c0-0.8,0.1-1.5,0.3-2.1c0.2-0.7,0.6-1.2,1-1.7
				c0.4-0.5,1-0.8,1.6-1.1c0.6-0.3,1.3-0.4,2.1-0.4c1,0,1.9,0.2,2.6,0.6c0.7,0.4,1.3,1,1.6,1.7c0.4,0.7,0.5,1.4,0.5,2.1
				c0,0.7-0.2,1.1-0.6,1.3C345.7,771,345.1,771.1,344.5,771.1z M339.4,769.7h4.7c-0.1-0.9-0.3-1.6-0.7-2c-0.4-0.4-1-0.7-1.6-0.7
				c-0.6,0-1.2,0.2-1.6,0.7C339.7,768.1,339.5,768.8,339.4,769.7z"/>
			<path class="st5" d="M355,774.3V774c-0.3,0.4-0.7,0.7-1,1c-0.3,0.3-0.7,0.4-1.1,0.6c-0.4,0.1-0.8,0.2-1.3,0.2
				c-0.6,0-1.2-0.1-1.7-0.4c-0.5-0.3-1-0.6-1.4-1.1c-0.4-0.5-0.7-1.1-0.9-1.7c-0.2-0.7-0.3-1.4-0.3-2.1c0-1.6,0.4-2.9,1.2-3.8
				c0.8-0.9,1.8-1.4,3.1-1.4c0.7,0,1.4,0.1,1.9,0.4s1,0.7,1.5,1.2V763c0-0.5,0.1-0.9,0.3-1.2c0.2-0.3,0.5-0.4,0.9-0.4
				c0.4,0,0.7,0.1,0.9,0.4c0.2,0.3,0.3,0.6,0.3,1.1v11.4c0,0.5-0.1,0.9-0.3,1.1c-0.2,0.2-0.5,0.4-0.9,0.4c-0.4,0-0.6-0.1-0.9-0.4
				C355.1,775.1,355,774.8,355,774.3z M349.9,770.5c0,0.7,0.1,1.3,0.3,1.8c0.2,0.5,0.5,0.9,0.9,1.1c0.4,0.3,0.8,0.4,1.2,0.4
				c0.5,0,0.9-0.1,1.2-0.4c0.4-0.2,0.7-0.6,0.9-1.1c0.2-0.5,0.3-1.1,0.3-1.8c0-0.7-0.1-1.3-0.3-1.8c-0.2-0.5-0.5-0.9-0.9-1.1
				c-0.4-0.3-0.8-0.4-1.3-0.4c-0.5,0-0.9,0.1-1.3,0.4c-0.4,0.3-0.7,0.7-0.9,1.2C350,769.2,349.9,769.8,349.9,770.5z"/>
			<path class="st5" d="M365.6,762.9v4c0.5-0.5,1-0.9,1.5-1.2c0.5-0.3,1.1-0.4,1.9-0.4c0.9,0,1.6,0.2,2.3,0.6c0.6,0.4,1.2,1,1.5,1.8
				c0.4,0.8,0.5,1.7,0.5,2.8c0,0.8-0.1,1.5-0.3,2.2c-0.2,0.7-0.5,1.2-0.9,1.7c-0.4,0.5-0.8,0.9-1.4,1.1c-0.5,0.3-1.1,0.4-1.8,0.4
				c-0.4,0-0.8,0-1.1-0.1c-0.4-0.1-0.7-0.2-0.9-0.4c-0.2-0.2-0.5-0.3-0.6-0.5c-0.2-0.2-0.4-0.4-0.7-0.7v0.3c0,0.5-0.1,0.9-0.4,1.1
				c-0.2,0.3-0.5,0.4-0.9,0.4c-0.4,0-0.7-0.1-0.9-0.4c-0.2-0.3-0.3-0.6-0.3-1.1V763c0-0.5,0.1-0.9,0.3-1.2c0.2-0.3,0.5-0.4,0.9-0.4
				c0.4,0,0.7,0.1,0.9,0.4C365.5,762,365.6,762.4,365.6,762.9z M365.7,770.6c0,1,0.2,1.8,0.7,2.4c0.5,0.6,1.1,0.8,1.9,0.8
				c0.7,0,1.2-0.3,1.7-0.9c0.5-0.6,0.7-1.4,0.7-2.4c0-0.7-0.1-1.3-0.3-1.8c-0.2-0.5-0.5-0.9-0.8-1.1c-0.4-0.3-0.8-0.4-1.3-0.4
				c-0.5,0-0.9,0.1-1.3,0.4c-0.4,0.3-0.7,0.7-0.9,1.2C365.9,769.2,365.7,769.9,365.7,770.6z"/>
			<path class="st5" d="M376.7,776.1l0.2-0.6l-3.2-8c-0.2-0.5-0.3-0.8-0.3-1c0-0.2,0.1-0.4,0.2-0.6c0.1-0.2,0.3-0.3,0.5-0.5
				c0.2-0.1,0.4-0.2,0.6-0.2c0.4,0,0.7,0.1,0.8,0.4c0.2,0.2,0.4,0.6,0.5,1l2.2,6.4l2.1-5.9c0.2-0.5,0.3-0.9,0.4-1.1
				c0.1-0.3,0.3-0.5,0.4-0.5c0.1-0.1,0.4-0.1,0.6-0.1c0.2,0,0.4,0.1,0.6,0.2c0.2,0.1,0.3,0.2,0.4,0.4c0.1,0.2,0.1,0.4,0.1,0.6
				c0,0.1-0.1,0.3-0.1,0.5c-0.1,0.2-0.1,0.4-0.2,0.7l-3.4,8.9c-0.3,0.8-0.6,1.4-0.9,1.8c-0.3,0.4-0.6,0.8-1.1,1
				c-0.5,0.2-1.1,0.4-1.9,0.4c-0.8,0-1.3-0.1-1.7-0.2c-0.4-0.2-0.6-0.5-0.6-0.9c0-0.3,0.1-0.5,0.3-0.7c0.2-0.2,0.4-0.2,0.8-0.2
				c0.1,0,0.3,0,0.4,0.1c0.2,0,0.3,0.1,0.4,0.1c0.3,0,0.5,0,0.7-0.1c0.2-0.1,0.3-0.2,0.5-0.5C376.3,776.8,376.5,776.5,376.7,776.1z"
				/>
		</g>
		<g class="st4">
			<path class="st5" d="M414.2,765.4h0.6v-0.8c0-0.8,0.1-1.5,0.3-1.9c0.2-0.5,0.6-0.8,1-1c0.5-0.2,1.2-0.3,2-0.3
				c1.5,0,2.3,0.4,2.3,1.1c0,0.2-0.1,0.4-0.2,0.6c-0.2,0.2-0.3,0.3-0.6,0.3c-0.1,0-0.3,0-0.5-0.1c-0.2,0-0.5-0.1-0.6-0.1
				c-0.5,0-0.8,0.1-0.9,0.4c-0.1,0.3-0.2,0.7-0.2,1.2v0.6h0.6c1,0,1.5,0.3,1.5,0.9c0,0.4-0.1,0.7-0.4,0.8c-0.3,0.1-0.6,0.2-1.1,0.2
				h-0.6v6.9c0,0.5-0.1,0.9-0.4,1.2c-0.2,0.3-0.6,0.4-0.9,0.4c-0.4,0-0.7-0.1-0.9-0.4c-0.2-0.3-0.4-0.7-0.4-1.2v-6.9h-0.7
				c-0.4,0-0.7-0.1-0.9-0.3c-0.2-0.2-0.3-0.4-0.3-0.7C412.9,765.8,413.4,765.4,414.2,765.4"/>
			<path class="st5" d="M422.7,772v2.2c0,0.5-0.1,0.9-0.4,1.2c-0.2,0.3-0.6,0.4-0.9,0.4c-0.4,0-0.7-0.1-0.9-0.4
				c-0.2-0.3-0.4-0.7-0.4-1.2V767c0-1.2,0.4-1.7,1.3-1.7c0.4,0,0.7,0.1,0.9,0.4c0.2,0.3,0.3,0.7,0.3,1.2c0.3-0.5,0.6-0.9,0.9-1.2
				c0.3-0.3,0.8-0.4,1.3-0.4c0.5,0,1.1,0.1,1.6,0.4c0.5,0.3,0.8,0.6,0.8,1.1c0,0.3-0.1,0.6-0.3,0.8c-0.2,0.2-0.5,0.3-0.7,0.3
				c-0.1,0-0.3-0.1-0.7-0.2c-0.4-0.1-0.7-0.2-1-0.2c-0.4,0-0.7,0.1-0.9,0.3c-0.2,0.2-0.4,0.5-0.6,0.9c-0.1,0.4-0.2,0.9-0.3,1.4
				C422.7,770.6,422.7,771.2,422.7,772"/>
			<path class="st5" d="M434.6,771.1h-5.1c0,0.6,0.1,1.1,0.4,1.6c0.2,0.4,0.5,0.8,0.9,1c0.4,0.2,0.8,0.3,1.3,0.3
				c0.3,0,0.6,0,0.8-0.1c0.3-0.1,0.5-0.2,0.7-0.3c0.2-0.2,0.5-0.3,0.7-0.5c0.2-0.2,0.5-0.4,0.8-0.7c0.1-0.1,0.3-0.2,0.6-0.2
				c0.3,0,0.5,0.1,0.6,0.2c0.2,0.1,0.2,0.3,0.2,0.6c0,0.2-0.1,0.5-0.3,0.8c-0.2,0.3-0.5,0.6-0.8,0.9c-0.4,0.3-0.8,0.5-1.4,0.7
				c-0.6,0.2-1.2,0.3-1.9,0.3c-1.7,0-3-0.5-3.9-1.4c-0.9-1-1.4-2.2-1.4-3.9c0-0.8,0.1-1.5,0.3-2.1c0.2-0.7,0.6-1.2,1-1.7
				c0.4-0.5,1-0.8,1.6-1.1c0.6-0.3,1.3-0.4,2.1-0.4c1,0,1.9,0.2,2.6,0.6c0.7,0.4,1.3,1,1.6,1.7c0.4,0.7,0.5,1.4,0.5,2.1
				c0,0.6-0.2,1.1-0.6,1.3C435.8,771,435.3,771.1,434.6,771.1 M429.6,769.7h4.7c-0.1-0.9-0.3-1.5-0.7-2c-0.4-0.4-1-0.7-1.6-0.7
				c-0.6,0-1.2,0.2-1.6,0.7C429.9,768.1,429.7,768.8,429.6,769.7"/>
			<path class="st5" d="M445.4,771.1h-5.1c0,0.6,0.1,1.1,0.4,1.6c0.2,0.4,0.5,0.8,0.9,1c0.4,0.2,0.8,0.3,1.3,0.3
				c0.3,0,0.6,0,0.8-0.1c0.3-0.1,0.5-0.2,0.8-0.3c0.2-0.2,0.5-0.3,0.7-0.5c0.2-0.2,0.5-0.4,0.8-0.7c0.1-0.1,0.3-0.2,0.6-0.2
				c0.3,0,0.5,0.1,0.7,0.2c0.2,0.1,0.2,0.3,0.2,0.6c0,0.2-0.1,0.5-0.3,0.8c-0.2,0.3-0.5,0.6-0.8,0.9c-0.4,0.3-0.8,0.5-1.4,0.7
				c-0.6,0.2-1.2,0.3-1.9,0.3c-1.7,0-3-0.5-3.9-1.4c-0.9-1-1.4-2.2-1.4-3.9c0-0.8,0.1-1.5,0.3-2.1c0.2-0.7,0.6-1.2,1-1.7
				c0.4-0.5,1-0.8,1.6-1.1c0.6-0.3,1.4-0.4,2.1-0.4c1,0,1.9,0.2,2.6,0.6c0.7,0.4,1.3,1,1.6,1.7c0.4,0.7,0.5,1.4,0.5,2.1
				c0,0.6-0.2,1.1-0.6,1.3C446.6,771,446.1,771.1,445.4,771.1 M440.4,769.7h4.7c-0.1-0.9-0.3-1.5-0.7-2c-0.4-0.4-1-0.7-1.6-0.7
				c-0.6,0-1.2,0.2-1.6,0.7C440.7,768.1,440.4,768.8,440.4,769.7"/>
			<path class="st5" d="M451.1,766.7v0.3c0.5-0.6,1-1,1.5-1.3c0.5-0.3,1.1-0.4,1.8-0.4c0.8,0,1.5,0.2,2.2,0.6c0.7,0.4,1.2,1,1.6,1.8
				c0.4,0.8,0.6,1.7,0.6,2.8c0,0.8-0.1,1.5-0.3,2.2c-0.2,0.7-0.5,1.2-0.9,1.7c-0.4,0.4-0.9,0.8-1.4,1c-0.5,0.2-1.1,0.4-1.7,0.4
				c-0.7,0-1.4-0.1-1.9-0.4c-0.5-0.3-1-0.7-1.4-1.3v3.9c0,1.1-0.4,1.7-1.2,1.7c-0.5,0-0.8-0.1-1-0.4c-0.2-0.3-0.2-0.7-0.2-1.3v-11.2
				c0-0.5,0.1-0.9,0.3-1.1c0.2-0.2,0.5-0.4,0.9-0.4c0.4,0,0.7,0.1,0.9,0.4C451,765.8,451.1,766.2,451.1,766.7 M456.2,770.4
				c0-0.7-0.1-1.3-0.3-1.8c-0.2-0.5-0.5-0.9-0.9-1.1c-0.4-0.3-0.8-0.4-1.2-0.4c-0.7,0-1.3,0.3-1.8,0.8c-0.5,0.6-0.7,1.4-0.7,2.5
				c0,1,0.2,1.8,0.7,2.4c0.5,0.6,1.1,0.9,1.8,0.9c0.4,0,0.8-0.1,1.2-0.4c0.4-0.3,0.7-0.6,0.9-1.1
				C456.1,771.8,456.2,771.2,456.2,770.4"/>
			<path class="st5" d="M461.4,764c-0.4,0-0.7-0.1-0.9-0.3c-0.3-0.2-0.4-0.5-0.4-0.9c0-0.4,0.1-0.7,0.4-0.9c0.3-0.2,0.6-0.4,0.9-0.4
				c0.3,0,0.6,0.1,0.9,0.3c0.3,0.2,0.4,0.5,0.4,0.9c0,0.4-0.1,0.7-0.4,0.9C462.1,763.9,461.8,764,461.4,764 M462.7,766.7v7.5
				c0,0.5-0.1,0.9-0.4,1.2c-0.3,0.3-0.6,0.4-0.9,0.4c-0.4,0-0.7-0.1-0.9-0.4c-0.2-0.3-0.4-0.7-0.4-1.2v-7.4c0-0.5,0.1-0.9,0.4-1.2
				c0.2-0.3,0.5-0.4,0.9-0.4c0.4,0,0.7,0.1,0.9,0.4C462.6,765.9,462.7,766.2,462.7,766.7"/>
			<path class="st5" d="M471.1,774.6l-2.3-3.8l-1.4,1.3v2.1c0,0.5-0.1,0.9-0.4,1.1c-0.3,0.3-0.6,0.4-0.9,0.4c-0.4,0-0.7-0.1-0.9-0.4
				c-0.2-0.3-0.3-0.7-0.3-1.2v-11.1c0-0.6,0.1-1,0.3-1.3c0.2-0.3,0.5-0.5,1-0.5c0.4,0,0.7,0.1,0.9,0.4c0.2,0.3,0.4,0.7,0.4,1.2v6.3
				l2.9-3.1c0.4-0.4,0.6-0.6,0.8-0.8c0.2-0.1,0.4-0.2,0.7-0.2c0.3,0,0.6,0.1,0.8,0.3c0.2,0.2,0.3,0.5,0.3,0.8c0,0.4-0.4,0.9-1.1,1.5
				l-1.4,1.3l2.7,4.2c0.2,0.3,0.3,0.5,0.4,0.7c0.1,0.2,0.1,0.3,0.1,0.5c0,0.4-0.1,0.7-0.3,1c-0.2,0.2-0.5,0.4-0.9,0.4
				c-0.3,0-0.6-0.1-0.7-0.3C471.6,775.3,471.3,775,471.1,774.6"/>
			<path class="st5" d="M476.7,775.8c-0.4,0-0.7-0.1-1-0.4c-0.3-0.2-0.4-0.6-0.4-1.1c0-0.4,0.1-0.7,0.4-1c0.3-0.3,0.6-0.4,1-0.4
				c0.4,0,0.7,0.1,1,0.4c0.3,0.3,0.4,0.6,0.4,1c0,0.5-0.1,0.8-0.4,1.1C477.4,775.6,477.1,775.8,476.7,775.8"/>
			<path class="st5" d="M489.6,772.6c0,0.3-0.1,0.7-0.3,1c-0.2,0.4-0.5,0.7-0.9,1.1c-0.4,0.3-0.9,0.6-1.5,0.8
				c-0.6,0.2-1.3,0.3-2,0.3c-1.6,0-2.9-0.5-3.8-1.4c-0.9-0.9-1.3-2.2-1.3-3.8c0-1.1,0.2-2,0.6-2.8c0.4-0.8,1-1.4,1.8-1.9
				c0.8-0.4,1.7-0.7,2.8-0.7c0.7,0,1.3,0.1,1.9,0.3c0.6,0.2,1,0.5,1.4,0.8c0.4,0.3,0.7,0.6,0.9,1c0.2,0.4,0.3,0.7,0.3,1
				c0,0.3-0.1,0.6-0.3,0.8c-0.2,0.2-0.5,0.3-0.8,0.3c-0.2,0-0.4-0.1-0.5-0.2c-0.1-0.1-0.3-0.3-0.5-0.5c-0.3-0.5-0.6-0.8-1-1.1
				c-0.3-0.2-0.8-0.4-1.3-0.4c-0.8,0-1.4,0.3-1.9,0.9c-0.5,0.6-0.7,1.4-0.7,2.5c0,0.5,0.1,0.9,0.2,1.3c0.1,0.4,0.3,0.8,0.5,1
				c0.2,0.3,0.5,0.5,0.8,0.7c0.3,0.2,0.7,0.2,1.1,0.2c0.5,0,1-0.1,1.3-0.4c0.4-0.2,0.7-0.6,1-1.1c0.2-0.3,0.3-0.5,0.5-0.7
				c0.2-0.2,0.4-0.3,0.7-0.3c0.3,0,0.6,0.1,0.8,0.4C489.5,772,489.6,772.3,489.6,772.6"/>
			<path class="st5" d="M500.8,770.5c0,0.8-0.1,1.5-0.4,2.1c-0.2,0.7-0.6,1.2-1,1.7c-0.5,0.5-1,0.8-1.6,1.1
				c-0.6,0.2-1.3,0.4-2.1,0.4c-0.8,0-1.5-0.1-2.1-0.4c-0.6-0.2-1.2-0.6-1.6-1.1c-0.5-0.5-0.8-1-1.1-1.7c-0.2-0.6-0.3-1.4-0.3-2.1
				c0-0.8,0.1-1.5,0.4-2.2c0.2-0.7,0.6-1.2,1-1.7c0.5-0.5,1-0.8,1.6-1.1c0.6-0.2,1.3-0.4,2.1-0.4c0.8,0,1.5,0.1,2.1,0.4
				c0.6,0.3,1.2,0.6,1.6,1.1c0.5,0.5,0.8,1,1,1.7C500.7,769,500.8,769.7,500.8,770.5 M498.2,770.5c0-1.1-0.2-1.9-0.7-2.5
				c-0.5-0.6-1.1-0.9-1.9-0.9c-0.5,0-1,0.1-1.3,0.4s-0.7,0.6-0.9,1.2c-0.2,0.5-0.3,1.1-0.3,1.8c0,0.7,0.1,1.3,0.3,1.8
				c0.2,0.5,0.5,0.9,0.9,1.2c0.4,0.3,0.8,0.4,1.4,0.4c0.8,0,1.4-0.3,1.9-0.9C497.9,772.4,498.2,771.5,498.2,770.5"/>
			<path class="st5" d="M510.7,770.7v3.4c0,0.5-0.1,1-0.4,1.2c-0.3,0.3-0.6,0.4-1,0.4c-0.4,0-0.7-0.1-1-0.4
				c-0.2-0.3-0.4-0.7-0.4-1.2V770c0-0.7,0-1.2-0.1-1.5c0-0.4-0.2-0.7-0.4-0.9c-0.2-0.2-0.5-0.4-0.9-0.4c-0.8,0-1.4,0.3-1.7,0.9
				c-0.3,0.6-0.4,1.4-0.4,2.5v3.5c0,0.5-0.1,0.9-0.4,1.2c-0.3,0.3-0.6,0.4-1,0.4c-0.4,0-0.7-0.1-1-0.4c-0.3-0.3-0.4-0.7-0.4-1.2
				v-7.4c0-0.5,0.1-0.9,0.3-1.1c0.2-0.3,0.5-0.4,0.9-0.4c0.4,0,0.7,0.1,0.9,0.4c0.2,0.2,0.4,0.6,0.4,1v0.2c0.5-0.5,0.9-0.9,1.4-1.2
				c0.5-0.3,1.1-0.4,1.7-0.4c0.7,0,1.2,0.1,1.7,0.4c0.5,0.3,0.9,0.7,1.2,1.2c0.4-0.5,0.9-0.9,1.4-1.2c0.5-0.3,1.1-0.4,1.7-0.4
				c0.7,0,1.3,0.1,1.8,0.4c0.5,0.3,0.9,0.7,1.1,1.2c0.2,0.5,0.3,1.2,0.3,2.2v5.1c0,0.5-0.1,1-0.4,1.2c-0.2,0.3-0.6,0.4-1,0.4
				c-0.4,0-0.7-0.1-1-0.4c-0.3-0.3-0.4-0.7-0.4-1.2v-4.4c0-0.6,0-1-0.1-1.3c0-0.3-0.2-0.6-0.4-0.8c-0.2-0.2-0.5-0.3-1-0.3
				c-0.3,0-0.7,0.1-1,0.3c-0.3,0.2-0.5,0.5-0.7,0.8C510.8,768.8,510.7,769.6,510.7,770.7"/>
		</g>
		<g class="st4">
			<path class="st5" d="M390,769.9C390,769.9,390,769.9,390,769.9C390,769.9,390,769.9,390,769.9z"/>
			<path class="st5" d="M390.1,770.7C390.1,770.7,390.1,770.7,390.1,770.7c0-0.2-0.1-0.5-0.1-0.7C390,770.2,390.1,770.5,390.1,770.7
				z"/>
			<path class="st5" d="M391,773.1C391,773.1,390.9,773.1,391,773.1C390.9,773.1,391,773.1,391,773.1z"/>
			<path class="st5" d="M390.9,772.9c0,0,0-0.1-0.1-0.1C390.8,772.9,390.9,772.9,390.9,772.9z"/>
			<path class="st5" d="M390.3,771.6c0.1,0.4,0.3,0.8,0.5,1.2C390.6,772.4,390.5,772,390.3,771.6
				C390.3,771.6,390.3,771.6,390.3,771.6z"/>
			<path class="st5" d="M400,759.9c0.5,0,0.9,0,1.3,0.1l0.1-0.8c0,0-1.2-0.4-2.7-0.2l-0.1-0.4c0.5-0.1,0.8-0.5,0.8-1
				c0-0.6-0.5-1.1-1.1-1.1c-0.6,0-1.1,0.5-1.1,1.1c0,0.5,0.4,0.9,0.8,1l0.1,0.5c-1.6,0.2-2.9,0.9-2.9,0.9l0.2,0.7
				c1-0.3,1.8-0.5,2.6-0.6C399,760,399.5,759.9,400,759.9z"/>
			<path class="st5" d="M390.9,763.8L390.9,763.8c0-0.1,0.1-0.1,0.1-0.2l-0.3-0.2l-0.5-0.4c0,0-0.8,0.7-1.4,2c0,0-0.1-0.1-0.1-0.1
				c-0.2-0.2-0.4-0.3-0.8-0.3c0,0,0,0,0,0c-0.2,0-0.3-0.1-0.4-0.1c0.1-0.1,0.1-0.3,0.1-0.4c0-0.4-0.3-0.7-0.7-0.7
				c-0.4,0-0.7,0.3-0.7,0.7c0,0.4,0.3,0.7,0.7,0.7c0.1,0,0.1,0,0.2,0c0.2,0.2,0.4,0.3,0.8,0.3c0.2,0,0.3,0,0.4,0.2
				c0.1,0.1,0.1,0.3,0.2,0.4c0,0,0,0,0,0c-0.4,1.2-0.3,2.7-0.3,2.7l1.1,0c0-0.5,0.1-1.5,0.4-2.2
				C390.3,764.7,390.9,763.8,390.9,763.8z"/>
			<path class="st5" d="M409.2,760.8c-0.4,0-0.7,0.3-0.7,0.7c0,0.1,0,0.1,0,0.2c-0.2,0.2-0.3,0.4-0.3,0.8c0,0.2,0,0.3-0.2,0.4
				c-0.1,0.1-0.2,0.1-0.3,0.1c-0.8-1.1-1.8-1.8-1.8-1.8l-0.8,0.8c0.6,0.5,1.2,1.2,1.7,2c0.4,0.6,0.8,1.3,1.1,2l1-0.5
				c0,0-0.5-1.2-1.1-2.2c0.1,0,0.2-0.1,0.3-0.2c0.2-0.2,0.3-0.4,0.3-0.8c0-0.2,0.1-0.3,0.1-0.4c0.1,0.1,0.3,0.1,0.4,0.1
				c0.4,0,0.7-0.3,0.7-0.7C409.9,761.1,409.6,760.8,409.2,760.8z"/>
			<path class="st5" d="M406.5,770c-1.4,0.7-3.7,1.6-6.8,2c-1.2,0.2-2.4,0.2-3.4,0.2c-1.4,0-2.6-0.1-3.6-0.2
				c-1.1-0.1-1.9-0.3-2.4-0.4c0.1,0.4,0.3,0.8,0.5,1.2c0,0,0,0,0,0c0,0,0,0.1,0.1,0.1c0,0,0,0.1,0.1,0.1c0,0,0,0,0,0
				c0.3,0.6,0.7,1.1,1.1,1.5c1.4,1.6,2.9,1.8,2.9,1.8l0,0l0,0c0,0,1.3,0.4,3.3,0.4c1.9,0,3.9-0.4,5.7-1.2c1.3-0.7,2.6-1.7,3.3-2.7
				c0.5-0.7,0.8-1.5,1.1-2.3c0.1-0.4,0.2-1.1,0.1-1.8C408,769.2,407.4,769.6,406.5,770z"/>
			<path class="st5" d="M391.4,764.1c0,0.1-0.7,0.9-1.1,2.3c-0.4,1-0.3,2.4-0.3,2.5v0c0,0.3,0,0.7,0.1,1c0,0,0,0,0,0
				c0,0,0,0.1,0,0.1c0,0.2,0.1,0.5,0.1,0.7c0.7,0.2,4.9,1.2,9.5,0.5c2.9-0.4,5.1-1.3,6.5-1.9c1.1-0.5,1.8-1,2.1-1.2
				c-0.3-1-1-2.6-1.7-3.6c-2-2.9-4.2-3.6-5.3-3.8c-0.4-0.1-0.8-0.1-1.2-0.1c-0.4,0-1,0-1.7,0.1c-0.7,0.1-1.6,0.3-2.5,0.6
				c-1.3,0.5-2.6,1.2-3.5,2l0,0C392,763.4,391.7,763.7,391.4,764.1z M403.7,763.5c1,0,1.7,0.8,1.7,1.7c0,1-0.8,1.7-1.7,1.7
				c-1,0-1.7-0.8-1.7-1.7C401.9,764.2,402.7,763.5,403.7,763.5z M395.4,763.4c1.6,0,2.8,1.3,2.8,2.8c0,1.6-1.3,2.8-2.8,2.8
				c-1.6,0-2.8-1.3-2.8-2.8C392.6,764.6,393.9,763.4,395.4,763.4z"/>
		</g>
	</g>
</g>
<g id="Object">
	<g>
		<polygon class="st6" points="594.9,617.9 629.2,613.3 596.9,368.8 612.2,134.8 565.7,131.8 557.5,70.1 247.1,111 171.1,106.1 
			170.1,121.2 119.3,127.9 122.1,149.3 95.7,152.3 142.1,551 135.5,652.9 154.1,654.1 159.1,696.7 391.4,669.6 576.5,681.7 
			578.8,647.8 598.1,645.5 		"/>
		<g>
			
				<rect x="167.6" y="85" transform="matrix(0.9914 -0.1309 0.1309 0.9914 -43.6529 53.962)" class="st7" width="442" height="548"/>
			
				<rect x="114.2" y="161.3" transform="matrix(6.505854e-02 -0.9979 0.9979 6.505854e-02 -18.5187 744.7939)" class="st8" width="548" height="442"/>
			<g>
				
					<rect x="140.3" y="113.3" transform="matrix(0.9933 -0.1156 0.1156 0.9933 -42.3699 44.3802)" class="st9" width="442" height="548"/>
				<g>
					<g>
						
							<rect x="157.3" y="174.9" transform="matrix(0.9933 -0.1156 0.1156 0.9933 -23.1736 23.8643)" class="st10" width="73.5" height="73.5"/>
						<polyline class="st11" points="171.4,206.9 186.8,227.5 218.1,193.9 						"/>
						<g>
							
								<rect x="256.8" y="162.6" transform="matrix(0.9933 -0.1156 0.1156 0.9933 -16.6646 45.7533)" class="st12" width="258.4" height="7.8"/>
							
								<rect x="259.4" y="185.5" transform="matrix(0.9933 -0.1156 0.1156 0.9933 -19.2967 46.2158)" class="st12" width="258.4" height="7.8"/>
							
								<rect x="262.4" y="214.7" transform="matrix(0.9933 -0.1156 0.1156 0.9933 -23.0665 39.6409)" class="st12" width="135.4" height="7.8"/>
						</g>
					</g>
					<g>
						
							<rect x="168.3" y="269.1" transform="matrix(0.9933 -0.1156 0.1156 0.9933 -33.9951 25.7649)" class="st10" width="73.5" height="73.5"/>
						<polyline class="st11" points="182.4,301.1 197.7,321.7 229.1,288.1 						"/>
						<g>
							
								<rect x="267.7" y="256.8" transform="matrix(0.9933 -0.1156 0.1156 0.9933 -27.4867 47.655)" class="st12" width="258.4" height="7.8"/>
							
								<rect x="270.4" y="279.7" transform="matrix(0.9933 -0.1156 0.1156 0.9933 -30.1187 48.1173)" class="st12" width="258.4" height="7.8"/>
							
								<rect x="273.4" y="308.9" transform="matrix(0.9933 -0.1156 0.1156 0.9933 -33.8881 41.5418)" class="st12" width="135.4" height="7.8"/>
						</g>
					</g>
					<g>
						
							<rect x="179.3" y="363.3" transform="matrix(0.9933 -0.1157 0.1157 0.9933 -44.8217 27.6691)" class="st10" width="73.5" height="73.5"/>
						<polyline class="st11" points="193.4,395.4 208.7,415.9 240,382.3 						"/>
						<g>
							
								<rect x="278.7" y="351" transform="matrix(0.9933 -0.1156 0.1156 0.9933 -38.3078 49.5548)" class="st12" width="258.4" height="7.8"/>
							
								<rect x="281.4" y="373.9" transform="matrix(0.9933 -0.1156 0.1156 0.9933 -40.9402 50.0177)" class="st12" width="258.4" height="7.8"/>
							
								<rect x="284.3" y="403.2" transform="matrix(0.9933 -0.1157 0.1157 0.9933 -44.712 43.445)" class="st12" width="135.4" height="7.8"/>
						</g>
					</g>
					<g>
						
							<rect x="190.2" y="457.5" transform="matrix(0.9933 -0.1156 0.1156 0.9933 -55.6319 29.5623)" class="st10" width="73.5" height="73.5"/>
						<polyline class="st11" points="204.4,489.6 219.7,510.1 251,476.5 						"/>
						<g>
							
								<rect x="289.7" y="445.2" transform="matrix(0.9933 -0.1156 0.1156 0.9933 -49.1285 51.4545)" class="st12" width="258.4" height="7.8"/>
							
								<rect x="292.3" y="468.2" transform="matrix(0.9933 -0.1157 0.1157 0.9933 -51.7636 51.9204)" class="st12" width="258.4" height="7.8"/>
							
								<rect x="295.3" y="497.4" transform="matrix(0.9933 -0.1156 0.1156 0.9933 -55.531 45.3429)" class="st12" width="135.4" height="7.8"/>
						</g>
					</g>
					<g>
						
							<rect x="201.2" y="551.7" transform="matrix(0.9933 -0.1157 0.1157 0.9933 -66.4681 31.4713)" class="st10" width="73.5" height="73.5"/>
						<polyline class="st11" points="215.3,583.8 230.6,604.3 262,570.7 						"/>
						<g>
							
								<rect x="300.6" y="539.5" transform="matrix(0.9933 -0.1157 0.1157 0.9933 -59.9535 53.3588)" class="st12" width="258.4" height="7.8"/>
							
								<rect x="303.3" y="562.4" transform="matrix(0.9933 -0.1156 0.1156 0.9933 -62.5814 53.8171)" class="st12" width="258.4" height="7.8"/>
							
								<rect x="306.3" y="591.6" transform="matrix(0.9933 -0.1157 0.1157 0.9933 -66.3604 47.25)" class="st12" width="135.4" height="7.8"/>
						</g>
					</g>
				</g>
			</g>
		</g>
		<g>
			<defs>
				<rect id="SVGID_1_" width="800" height="800"/>
			</defs>
			<clipPath id="SVGID_2_">
				<use xlink:href="#SVGID_1_"  style="overflow:visible;"/>
			</clipPath>
			<path class="st13" d="M738.1,730.6c1.7-2.8,3.5-5.5,5.3-8.1c29.1-41.7,14.6-49.6,6-62.5c-8.6-12.9-24-39.7-41.1-82.4
				c-17.1-42.7-61.7-61.5-61.7-61.5c-28.3-14.9-84.8-70.3-97.6-35.5c-2,5.5-1.5,11.6,0.9,18.1l-60-73.7l-62.9-44.8l16.9,70
				l86.6,102.1c-3.5-2.2-7-3.4-10.5-3.3c-29.5,1-40.5,20.8-21.7,49.6c18.8,28.8,26.6,59.6,26.6,59.6s9.4,50.6,16.3,85.4
				c6.9,34.7-1.7,43.7,24,93.3c25.7,49.6,20.6,78.4,20.6,78.4l119.9-12.9c-8.1-42.8-1.4-90.6,12.8-129.9c1.3,0.3,2.4,0.3,3.2-0.4
				l27.1-21c2-1.5,1.3-5.5-1.5-8.9L738.1,730.6z M626.8,575.7c-0.1,6,1.1,13.4,3.3,21.7L588,545.6
				C607.5,562.9,626.8,575.7,626.8,575.7z M576.3,650.1c-4.7-26.6-14.3-54.6-25.8-74.4l106.1,125.1
				C640,707.6,584.8,698.5,576.3,650.1z"/>
			<g class="st14">
				<g>
					<path class="st15" d="M582.5,847.5c0,0,5.1-28.8-20.6-78.4c-25.7-49.6-17.1-58.6-24-93.3c-6.9-34.7-16.3-85.4-16.3-85.4
						s-7.7-30.8-26.6-59.6c-18.8-28.8-7.9-48.6,21.7-49.6c22.5-0.7,47.7,52.6,56.3,101.2c8.6,48.6,64.3,57.6,80.5,50.6
						c16.3-6.9-30.8-90.3-30-125.1c0,0-90.8-60.3-77.9-95.1c12.8-34.7,69.4,20.6,97.6,35.5c0,0,44.6,18.9,61.7,61.5
						c17.1,42.7,32.6,69.5,41.1,82.4c8.6,12.9,23.1,20.8-6,62.5c-29.1,41.7-49.7,116.1-37.7,179.6L582.5,847.5z"/>
					<g>
						<defs>
							<path id="SVGID_3_" d="M582.5,847.5c0,0,5.1-28.8-20.6-78.4c-25.7-49.6-17.1-58.6-24-93.3c-6.9-34.7-16.3-85.4-16.3-85.4
								s-7.7-30.8-26.6-59.6c-18.8-28.8-7.9-48.6,21.7-49.6c22.5-0.7,47.7,52.6,56.3,101.2c8.6,48.6,64.3,57.6,80.5,50.6
								c16.3-6.9-30.8-90.3-30-125.1c0,0-90.8-60.3-77.9-95.1c12.8-34.7,69.4,20.6,97.6,35.5c0,0,44.6,18.9,61.7,61.5
								c17.1,42.7,32.6,69.5,41.1,82.4c8.6,12.9,23.1,20.8-6,62.5c-29.1,41.7-49.7,116.1-37.7,179.6L582.5,847.5z"/>
						</defs>
						<clipPath id="SVGID_4_">
							<use xlink:href="#SVGID_3_"  style="overflow:visible;"/>
						</clipPath>
						<path class="st16" d="M476.3,532.5c0,0-20-33.2,2.1-34.4c22.1-1.2,75.9,50.9,20.4,59.6L476.3,532.5z"/>
						<g class="st17">
							<g>
								<path class="st18" d="M627.6,426.8c-1.9,8.6,6.4,18.8,10.9,25.2c8.7,12.2,18.8,23.5,28.7,34.8c7.7,8.7,16.3,17.2,22.9,26.9
									c6.1,8.8,10.5,18.8,14,28.8c3.8,10.7,5.8,22.5,10.7,32.6c0.6,1.3,2.3,0.3,2.2-0.9c-1.4-10.4-5.4-21.3-8.9-31.1
									c-3.6-10.1-8.2-19.7-14-28.7c-5.8-8.9-13.7-16.6-20.8-24.4c-10.1-11.1-20.2-22.3-29.5-34.1c-4.1-5.2-7.8-10.5-11.2-16.2
									c-2.1-3.5-4.7-8.2-4-12.4C628.8,426.4,627.8,426.1,627.6,426.8L627.6,426.8z"/>
							</g>
						</g>
						<path class="st16" d="M571.8,391.8c0,0-27,16.1,0,33.6c27,17.6,31.5-0.5,21.8-15.8C583.9,394.2,571.8,391.8,571.8,391.8z"/>
					</g>
				</g>
				<g>
					<path class="st19" d="M669.4,651.3c-2.8-3.4-3.4-7.4-1.5-8.9l27.1-21c2-1.5,5.8,0,8.6,3.4l40.5,49.6c2.8,3.4,3.4,7.4,1.5,8.9
						l-27.1,21c-2,1.5-5.8,0-8.6-3.4L669.4,651.3z"/>
					<g>
						<defs>
							<polygon id="SVGID_5_" points="717.8,641.6 486.6,357.4 423.7,312.5 440.6,382.5 683.8,669.1 							"/>
						</defs>
						<clipPath id="SVGID_6_">
							<use xlink:href="#SVGID_5_"  style="overflow:visible;"/>
						</clipPath>
						<polygon class="st20" points="717.8,647.1 519.2,401.3 423.7,318 477.9,426.3 683.8,674.6 						"/>
						<path class="st21" d="M519.9,388.5c2,5.3-38.6-16.7-38.6-16.7l-22-8.2l3.3,23.3l2.9,29.8c0,0-78.2-95.3-76.2-97
							c2-1.7,5.2-46.9,19.3-43.8c14.2,3.1,87.4,76.2,94.6,80.5C510.4,360.7,519.9,388.5,519.9,388.5z"/>
						<path class="st22" d="M449.9,323.6l-25.1,18c0,0-45.8-70.8-44.2-74.2C382.2,263.9,449.9,323.6,449.9,323.6z"/>
						<path class="st23" d="M715.5,659.8l-234.3-288l-4.8-21.6c0,0,83.9,58.3,91,64.7c7.1,6.4,70.1,67.5,76.3,74.3
							c6.3,6.8,52.5,105.8,57.5,110.1c5,4.4,33.1,53.9,33.1,53.9L715.5,659.8z"/>
						<path class="st24" d="M695.1,668.6L462.6,386.9c0,0-20.4-16.6-20.7-15.2c-0.2,1.4,3.4,55.5,8.4,61.4
							c5,5.9,55.8,84.8,76.8,102.8c21,18,73.8,91.4,91.9,107.4c18.1,16,92.3,62.5,92.3,62.5L695.1,668.6z"/>
					</g>
				</g>
			</g>
		</g>
	</g>
</g>
</svg>
